g Signage_011_Back_Prop
v -0.13209015 -0.05215631 0.002098546
v -0.13209015 0.05215621 0.0020985485
v 0.13208999 0.05215621 0.0020985485
v 0.13209015 -0.05215631 0.002098546
v -0.13209015 -0.05215631 0
v -0.13209015 0.05215621 2.3841857E-09
v 0.13208999 0.05215621 2.3841857E-09
v 0.13209015 -0.05215631 0
v -0.13209015 -0.05215631 0
v -0.13209015 -0.05215631 0.002098546
v 0.13209015 -0.05215631 0.002098546
v 0.13209015 -0.05215631 0
v 0.13209015 -0.05215631 0
v 0.13209015 -0.05215631 0.002098546
v 0.13208999 0.05215621 0.0020985485
v 0.13208999 0.05215621 2.3841857E-09
v 0.13208999 0.05215621 2.3841857E-09
v 0.13208999 0.05215621 0.0020985485
v -0.13209015 0.05215621 0.0020985485
v -0.13209015 0.05215621 2.3841857E-09
v -0.13209015 0.05215621 2.3841857E-09
v -0.13209015 0.05215621 0.0020985485
v -0.13209015 -0.05215631 0.002098546
v -0.13209015 -0.05215631 0
vt 0.0025571608 0.824027
vt 0.0025571599 0.8766292
vt 0.13577627 0.8766292
vt 0.13577627 0.82402706
vt 0.0025571608 0.824027
vt 0.0025571599 0.8766292
vt 0.13577627 0.8766292
vt 0.13577627 0.82402706
vt 0.0025571608 0.824027
vt 0.0025571608 0.824027
vt 0.13577627 0.82402706
vt 0.13577627 0.82402706
vt 0.13577627 0.82402706
vt 0.13577627 0.82402706
vt 0.13577627 0.8766292
vt 0.13577627 0.8766292
vt 0.13577627 0.8766292
vt 0.13577627 0.8766292
vt 0.0025571599 0.8766292
vt 0.0025571599 0.8766292
vt 0.0025571599 0.8766292
vt 0.0025571599 0.8766292
vt 0.0025571608 0.824027
vt 0.0025571608 0.824027
vn -0 0 1
vn -0 0 1
vn -0 0 1
vn -0 0 1
vn -0 0 1
vn -0 0 1
vn -0 0 1
vn -0 0 1
vn -0 -1 0
vn -0 -1 0
vn -0 -1 0
vn -0 -1 0
vn 1 1.5248013E-06 0
vn 1 1.5248013E-06 0
vn 1 1.5248013E-06 0
vn 1 1.5248013E-06 0
vn -0 1 0
vn -0 1 0
vn -0 1 0
vn -0 1 0
vn -1 0 0
vn -1 0 0
vn -1 0 0
vn -1 0 0
g Signage_011_Back_Prop_0
f 3/3/3 2/2/2 1/1/1
f 4/4/4 3/3/3 1/1/1
f 7/7/7 6/6/6 5/5/5
f 8/8/8 7/7/7 5/5/5
f 11/11/11 10/10/10 9/9/9
f 12/12/12 11/11/11 9/9/9
f 15/15/15 14/14/14 13/13/13
f 16/16/16 15/15/15 13/13/13
f 19/19/19 18/18/18 17/17/17
f 20/20/20 19/19/19 17/17/17
f 23/23/23 22/22/22 21/21/21
f 24/24/24 23/23/23 21/21/21
