g Signage_023_Back_Prop
v -0.14723419 -0.08778412 0.005073662
v -0.14723419 0.08778412 0.005073662
v 0.14723468 0.08778419 0.005073662
v 0.14723468 -0.08778404 0.005073662
v -0.14723419 -0.08778412 0
v -0.14723419 -0.08778412 0.005073662
v 0.14723468 -0.08778404 0.005073662
v 0.14723468 -0.08778404 0
v 0.14723468 -0.08778404 0
v 0.14723468 -0.08778404 0.005073662
v 0.14723468 0.08778419 0.005073662
v 0.14723468 0.08778419 0
v 0.14723468 0.08778419 0
v 0.14723468 0.08778419 0.005073662
v -0.14723419 0.08778412 0.005073662
v -0.14723419 0.08778412 0
v -0.14723419 0.08778412 0
v -0.14723419 0.08778412 0.005073662
v -0.14723419 -0.08778412 0.005073662
v -0.14723419 -0.08778412 0
vt 0.5457625 0.5673227
vt 0.5457625 0.65585715
vt 0.69425553 0.6558572
vt 0.6942556 0.56732273
vt 0.6158564 0.6191106
vt 0.6156247 0.6191106
vt 0.6156247 0.6325563
vt 0.6158564 0.6325563
vt 0.6152288 0.6245397
vt 0.614997 0.6245397
vt 0.614997 0.6325563
vt 0.6152288 0.6325563
vt 0.61530966 0.6325563
vt 0.61554134 0.6325563
vt 0.61554134 0.6191106
vt 0.61530966 0.6191106
vt 0.61491597 0.6245397
vt 0.6146844 0.6245397
vt 0.6146844 0.6325563
vt 0.61491597 0.6325563
vn -0 0 1
vn -0 0 1
vn -0 0 1
vn -0 0 1
vn 2.5909E-07 -1 0
vn 2.5909E-07 -1 0
vn 2.5909E-07 -1 0
vn 2.5909E-07 -1 0
vn 1 0 0
vn 1 0 0
vn 1 0 0
vn 1 0 0
vn -2.5909E-07 1 0
vn -2.5909E-07 1 0
vn -2.5909E-07 1 0
vn -2.5909E-07 1 0
vn -1 0 0
vn -1 0 0
vn -1 0 0
vn -1 0 0
g Signage_023_Back_Prop_0
f 3/3/3 2/2/2 1/1/1
f 4/4/4 3/3/3 1/1/1
f 7/7/7 6/6/6 5/5/5
f 8/8/8 7/7/7 5/5/5
f 11/11/11 10/10/10 9/9/9
f 12/12/12 11/11/11 9/9/9
f 15/15/15 14/14/14 13/13/13
f 16/16/16 15/15/15 13/13/13
f 19/19/19 18/18/18 17/17/17
f 20/20/20 19/19/19 17/17/17
