g Signage_010_Back_Prop
v 0.34569424 -0.24268998 0.0075491234
v -0.34569427 -0.24268983 0.0075491234
v -0.34569427 0.24268995 0.0075491047
v 0.34569424 0.24268988 0.0075491047
v 0.34569424 -0.24268997 9.536743E-09
v 0.34569424 -0.24268998 0.0075491234
v 0.34569424 0.24268988 0.0075491047
v 0.34569424 0.2426899 -9.536743E-09
v 0.34569424 0.2426899 -9.536743E-09
v 0.34569424 0.24268988 0.0075491047
v -0.34569427 0.24268995 0.0075491047
v -0.34569427 0.24268997 -9.536743E-09
v -0.34569427 0.24268997 -9.536743E-09
v -0.34569427 0.24268995 0.0075491047
v -0.34569427 -0.24268983 0.0075491234
v -0.34569427 -0.24268982 9.536743E-09
v -0.34569427 -0.24268982 9.536743E-09
v -0.34569427 -0.24268983 0.0075491234
v 0.34569424 -0.24268998 0.0075491234
v 0.34569424 -0.24268997 9.536743E-09
vt 1 0.83229303
vt 0.7657584 0.83229315
vt 0.7657584 0.9967393
vt 1 0.9967393
vt 1 0.83229303
vt 1 0.83229303
vt 1 0.9967393
vt 1 0.9967393
vt 1 0.9967393
vt 1 0.9967393
vt 0.7657584 0.9967393
vt 0.7657584 0.9967393
vt 0.7657584 0.9967393
vt 0.7657584 0.9967393
vt 0.7657584 0.83229315
vt 0.7657584 0.83229315
vt 0.7657584 0.83229315
vt 0.7657584 0.83229315
vt 1 0.83229303
vt 1 0.83229303
vn -0 0 1
vn -0 0 1
vn -0 0 1
vn -0 0 1
vn 1 0 0
vn 1 0 0
vn 1 0 0
vn 1 0 0
vn 1.10348886E-07 1 2.338794E-06
vn 1.10348886E-07 1 2.338794E-06
vn 1.10348886E-07 1 2.338794E-06
vn 1.10348886E-07 1 2.338794E-06
vn -1 0 0
vn -1 0 0
vn -1 0 0
vn -1 0 0
vn -2.2069777E-07 -1 -2.338794E-06
vn -2.2069777E-07 -1 -2.338794E-06
vn -2.2069777E-07 -1 -2.338794E-06
vn -2.2069777E-07 -1 -2.338794E-06
g Signage_010_Back_Prop_0
f 3/3/3 2/2/2 1/1/1
f 4/4/4 3/3/3 1/1/1
f 7/7/7 6/6/6 5/5/5
f 8/8/8 7/7/7 5/5/5
f 11/11/11 10/10/10 9/9/9
f 12/12/12 11/11/11 9/9/9
f 15/15/15 14/14/14 13/13/13
f 16/16/16 15/15/15 13/13/13
f 19/19/19 18/18/18 17/17/17
f 20/20/20 19/19/19 17/17/17
