g Perception_is_Reality_Paper_Common_Prop
v -0.16119277 1.8930146E-17 -0.119664095
v -0.16119277 3.3143195E-17 -0.20950973
v -0.14463502 0.0012164802 -0.20950973
v -0.11969796 0.0013659884 -0.119664095
v -0.16119277 1.2693489E-17 -0.08023999
v -0.07301495 1.8930146E-17 -0.119664095
v -0.07301495 3.3143195E-17 -0.20950973
v -0.027405296 3.3143195E-17 -0.20950973
v -0.11969796 1.2693489E-17 -0.08023999
v -0.16119277 5.903236E-19 -0.003731641
v -0.02740529 0.0076175844 -0.119664095
v 0.0952103 3.3143195E-17 -0.20950973
v -0.07301495 1.2693489E-17 -0.08023998
v -0.10893148 0.0013659884 -0.003731641
v -0.16119277 -9.710129E-18 0.061381124
v 0.055750407 0.0013659884 -0.119664095
v 0.16119277 3.3143195E-17 -0.20950973
v 0.16119277 0.004154507 -0.119664095
v -0.027405296 1.2693489E-17 -0.05466171
v -0.07301495 0.0013659884 -0.003731641
v 0.055750396 1.2693489E-17 -0.05466172
v 0.16119277 0.004801056 -0.092421755
v -0.10893148 0.005160241 0.061381124
v -0.16119277 -2.2571598E-17 0.14268298
v -0.02740529 0.0013659884 -0.003731641
v 0.09521032 5.903236E-19 -0.003731641
v 0.16119277 0.0011929073 -0.003731641
v -0.05015573 -9.710129E-18 0.061381124
v -0.14463502 -2.2571598E-17 0.14268298
v -0.16119277 -2.965244E-17 0.18744348
v 0.09521032 0.0013659884 0.06138112
v 0.16119277 -9.710129E-18 0.061381124
v -0.00454607 -9.710129E-18 0.061381124
v -0.068714544 -2.2571598E-17 0.14268298
v -0.14463502 -2.965244E-17 0.18744348
v 0.09521032 -2.2571598E-17 0.14268298
v 0.16119277 0.0011929073 0.14268298
v -0.023104886 0.0013659884 0.14268298
v -0.14463502 -3.3143195E-17 0.20950975
v -0.16119277 0.0012066273 0.20950975
v -0.07301495 -2.965244E-17 0.18744348
v -0.07301495 0.0016787531 0.20950975
v -0.027405296 0.0013659884 0.18744348
v -0.027405296 0.0029300943 0.20950975
v 0.0952103 -2.965244E-17 0.18744346
v 0.16119277 -2.965244E-17 0.18744348
v 0.0952103 -3.3143195E-17 0.20950975
v 0.16119277 -3.3143195E-17 0.20950975
vt 0.11730707 0.7840983
vt 0.11730707 0.99740374
vt 0.15661739 0.9974037
vt 0.21582122 0.7840983
vt 0.11730707 0.6905003
vt 0.32665288 0.7840983
vt 0.32665288 0.99740374
vt 0.43493623 0.99740374
vt 0.2158212 0.6905003
vt 0.11730707 0.5088594
vt 0.43493667 0.7840983
vt 0.72604185 0.99740374
vt 0.32665288 0.6905003
vt 0.2413823 0.5088594
vt 0.11730707 0.35427308
vt 0.63235885 0.7840983
vt 0.88269293 0.99740374
vt 0.88269293 0.7840984
vt 0.43493623 0.6297741
vt 0.32665288 0.5088594
vt 0.6323588 0.6297741
vt 0.882693 0.7194215
vt 0.24138239 0.35427323
vt 0.11730707 0.16125172
vt 0.43493623 0.5088594
vt 0.7260418 0.5088594
vt 0.8826929 0.50885934
vt 0.3809237 0.35427308
vt 0.15661737 0.16125172
vt 0.11730707 0.054984454
vt 0.72604185 0.35427308
vt 0.88269293 0.35427308
vt 0.489207 0.35427308
vt 0.33686262 0.16125174
vt 0.15661737 0.054984454
vt 0.7260418 0.16125172
vt 0.88269293 0.16125184
vt 0.44514593 0.16125174
vt 0.15661739 0.0025961995
vt 0.11730707 0.0025961995
vt 0.32665288 0.054984454
vt 0.32665306 0.002597031
vt 0.43493623 0.054984443
vt 0.43493617 0.0025971222
vt 0.7260418 0.054984454
vt 0.88269293 0.054984454
vt 0.72604185 0.0025961995
vt 0.88269293 0.0025961995
vn -0.03366105 0.9993837 0.009954479
vn -0.044440422 0.99899775 0.005336123
vn -0.005357336 0.9999857 -8.854083E-05
vn 0.0033697332 0.9999863 0.0040174285
vn -0.015159927 0.9998851 0
vn -0.03275628 0.999463 0.0008329441
vn -0.024019338 0.9994987 -0.020626329
vn -0.0045951363 0.9990646 -0.04299685
vn -0.0055458294 0.99998236 -0.0021472417
vn -0.037841603 0.99911755 -0.018223854
vn -0.004856499 0.99998736 -0.0013332298
vn 0.002935976 0.9992741 -0.03798369
vn -0.028591605 0.9994604 0.01616925
vn -0.0069902283 0.9997609 -0.020717563
vn -0.06793813 0.9976482 -0.009078808
vn 0.010769525 0.99988747 -0.01044879
vn -0.016255008 0.9992805 -0.034269582
vn -0.023355195 0.99956554 -0.017981386
vn 0.005802767 0.99978 0.020159375
vn 0.018242031 0.9997292 -0.014446379
vn -0.00086579064 0.99978024 0.02094764
vn -0.03136515 0.9993166 0.019558145
vn 0.0042613777 0.9999418 0.009906334
vn -0.0591704 0.99817514 0.012050512
vn 0.0029965236 0.99998736 -0.0040341937
vn -0.009441703 0.99989974 0.010556456
vn -0.015913801 0.99968255 0.01953049
vn 0.016592326 0.9998005 0.011121053
vn -0.009498203 0.9997526 0.02011401
vn 0.005922283 0.9999726 -0.004443882
vn 0.0004917528 0.9999999 0
vn 0.0013115671 0.99999917 0
vn -0.0019479699 0.999998 0.0004644313
vn 0.008654711 0.999835 0.015966587
vn -0.0031898355 0.99994135 -0.01035319
vn 0.0018375785 0.99999607 0.0021265314
vn -0.0023634098 0.9999826 0.005417427
vn -0.0028751704 0.99999225 -0.002694676
vn -0.0060343524 0.9992816 -0.037416756
vn 0.07257301 0.9958753 -0.054456342
vn -0.013084081 0.9997627 -0.017418064
vn -0.018305603 0.9984913 -0.051770158
vn 0.0010097504 0.9998739 -0.015848286
vn 0.0049857856 0.99894255 -0.04570471
vn 0.006543577 0.9999695 -0.004285355
vn -0.0060543483 0.9999418 0.008924847
vn 0.011385764 0.9996698 -0.023034142
vn -0 1 0
g Perception_is_Reality_Paper_Common_Prop_0
f 3/3/3 2/2/2 1/1/1
f 4/4/4 3/3/3 1/1/1
f 4/4/4 1/1/1 5/5/5
f 4/4/4 6/6/6 3/3/3
f 6/6/6 7/7/7 3/3/3
f 8/8/8 7/7/7 6/6/6
f 9/9/9 4/4/4 5/5/5
f 9/9/9 5/5/5 10/10/10
f 11/11/11 8/8/8 6/6/6
f 12/12/12 8/8/8 11/11/11
f 13/13/13 6/6/6 4/4/4
f 9/9/9 13/13/13 4/4/4
f 11/11/11 6/6/6 13/13/13
f 14/14/14 9/9/9 10/10/10
f 14/14/14 10/10/10 15/15/15
f 16/16/16 12/12/12 11/11/11
f 17/17/17 12/12/12 16/16/16
f 18/18/18 17/17/17 16/16/16
f 19/19/19 11/11/11 13/13/13
f 16/16/16 11/11/11 19/19/19
f 20/20/20 13/13/13 9/9/9
f 14/14/14 20/20/20 9/9/9
f 19/19/19 13/13/13 20/20/20
f 18/18/18 16/16/16 21/21/21
f 21/21/21 16/16/16 19/19/19
f 22/22/22 18/18/18 21/21/21
f 23/23/23 14/14/14 15/15/15
f 23/23/23 15/15/15 24/24/24
f 25/25/25 19/19/19 20/20/20
f 21/21/21 19/19/19 25/25/25
f 22/22/22 21/21/21 26/26/26
f 26/26/26 21/21/21 25/25/25
f 27/27/27 22/22/22 26/26/26
f 28/28/28 20/20/20 14/14/14
f 25/25/25 20/20/20 28/28/28
f 23/23/23 28/28/28 14/14/14
f 29/29/29 23/23/23 24/24/24
f 29/29/29 24/24/24 30/30/30
f 27/27/27 26/26/26 31/31/31
f 32/32/32 27/27/27 31/31/31
f 26/26/26 25/25/25 33/33/33
f 33/33/33 25/25/25 28/28/28
f 31/31/31 26/26/26 33/33/33
f 34/34/34 28/28/28 23/23/23
f 29/29/29 34/34/34 23/23/23
f 33/33/33 28/28/28 34/34/34
f 35/35/35 29/29/29 30/30/30
f 34/34/34 29/29/29 35/35/35
f 32/32/32 31/31/31 36/36/36
f 37/37/37 32/32/32 36/36/36
f 31/31/31 33/33/33 38/38/38
f 38/38/38 33/33/33 34/34/34
f 36/36/36 31/31/31 38/38/38
f 39/39/39 35/35/35 30/30/30
f 39/39/39 30/30/30 40/40/40
f 41/41/41 34/34/34 35/35/35
f 41/41/41 35/35/35 39/39/39
f 38/38/38 34/34/34 41/41/41
f 42/42/42 41/41/41 39/39/39
f 43/43/43 38/38/38 41/41/41
f 43/43/43 41/41/41 42/42/42
f 36/36/36 38/38/38 43/43/43
f 44/44/44 43/43/43 42/42/42
f 37/37/37 36/36/36 45/45/45
f 45/45/45 36/36/36 43/43/43
f 45/45/45 43/43/43 44/44/44
f 46/46/46 37/37/37 45/45/45
f 47/47/47 45/45/45 44/44/44
f 46/46/46 45/45/45 47/47/47
f 48/48/48 46/46/46 47/47/47
