g Perception_is_Reality_Paper_002_Common_Prop
v 0.09521032 0.00020359576 0.13056523
v 0.16119277 -9.710129E-18 0.061381124
v 0.16119277 0.0010151088 0.13056524
v 0.09521032 0.0013659884 0.06138112
v 0.16119277 0.0011929073 -0.003731641
v 0.044857744 0.00062140863 0.13056523
v 0.09521032 5.903236E-19 -0.003731641
v 0.16119277 0.004801056 -0.092421755
v 0.051739693 0.0007707345 0.06138112
v 0.055750396 1.2693489E-17 -0.05466172
v 0.16119277 0.004154507 -0.119664095
v 0.041778374 0.0005952539 -0.003731641
v 0.055750407 0.0013659884 -0.119664095
v 0.16119277 3.3143195E-17 -0.20950973
v 0.0952103 3.3143195E-17 -0.20950973
v 0.019513818 1.2693489E-17 -0.054661717
v 0.019513823 0.0040902332 -0.119664095
v 0.041778363 3.3143195E-17 -0.20950973
v -0.02740529 0.0076175844 -0.119664095
v -0.027405296 3.3143195E-17 -0.20950973
v -0.027405296 1.2693489E-17 -0.05466171
v -0.02740529 0.0013659884 -0.003731641
v -0.00454607 -9.710129E-18 0.061381124
v -0.07301495 1.8930146E-17 -0.119664095
v -0.07301495 3.3143195E-17 -0.20950973
v -0.14463502 0.0012164802 -0.20950973
v -0.07301495 1.2693489E-17 -0.08023998
v -0.07301495 0.0013659884 -0.003731641
v -0.11969796 0.0013659884 -0.119664095
v -0.16119277 1.8930146E-17 -0.119664095
v -0.16119277 3.3143195E-17 -0.20950973
v -0.16119277 1.2693489E-17 -0.08023999
v -0.11969796 1.2693489E-17 -0.08023999
v -0.16119277 5.903236E-19 -0.003731641
v -0.10893148 0.0013659884 -0.003731641
v -0.16119277 -9.710129E-18 0.061381124
v -0.05015573 -9.710129E-18 0.061381124
v -0.10893148 0.005160241 0.061381124
v -0.16119277 -2.065464E-17 0.13056524
v -0.06594841 -2.065464E-17 0.13056524
v -0.13931353 0.00076911575 0.13056524
v -0.16119277 -2.2571598E-17 0.14268298
v -0.14463502 -2.2571598E-17 0.14268298
v -0.16119277 -2.965244E-17 0.18744348
v -0.020338759 0.0011623927 0.13056524
v -0.068714544 -2.2571598E-17 0.14268298
v -0.023104886 0.0013659884 0.14268298
v 0.043652352 0.0005952539 0.14268298
v -0.14463502 -2.965244E-17 0.18744348
v -0.07301495 -2.965244E-17 0.18744348
v -0.027405296 0.0013659884 0.18744348
v 0.041778363 0.0005952539 0.18744346
v -0.14463502 -3.3143195E-17 0.20950975
v -0.16119277 0.0012066273 0.20950975
v -0.07301495 0.0016787531 0.20950975
v -0.027405296 0.0029300943 0.20950975
v 0.041778363 0.001276841 0.20950975
v 0.0952103 -3.3143195E-17 0.20950975
v 0.16119277 -2.965244E-17 0.18744348
v 0.16119277 -3.3143195E-17 0.20950975
v 0.0952103 -2.965244E-17 0.18744346
v 0.041778363 0.001276841 0.20950975
v 0.16119277 0.0011929073 0.14268298
v 0.041778363 0.0005952539 0.18744346
v 0.09521032 -2.2571598E-17 0.14268298
v 0.16119277 0.0010151088 0.13056524
v 0.043652352 0.0005952539 0.14268298
v 0.09521032 0.00020359576 0.13056523
v 0.044857744 0.00062140863 0.13056523
vt 0.7260418 0.19002087
vt 0.88269293 0.35427308
vt 0.88269293 0.19002098
vt 0.72604185 0.35427308
vt 0.8826929 0.50885934
vt 0.6064981 0.19002087
vt 0.7260418 0.5088594
vt 0.882693 0.7194215
vt 0.6228368 0.35427308
vt 0.6323588 0.6297741
vt 0.88269293 0.7840984
vt 0.5991874 0.5088594
vt 0.63235885 0.7840983
vt 0.88269293 0.99740374
vt 0.72604185 0.99740374
vt 0.54632837 0.6297741
vt 0.5463286 0.7840983
vt 0.5991874 0.99740374
vt 0.43493667 0.7840983
vt 0.43493623 0.99740374
vt 0.43493623 0.6297741
vt 0.43493623 0.5088594
vt 0.489207 0.35427308
vt 0.32665288 0.7840983
vt 0.32665288 0.99740374
vt 0.15661739 0.9974037
vt 0.32665288 0.6905003
vt 0.32665288 0.5088594
vt 0.21582122 0.7840983
vt 0.11730707 0.7840983
vt 0.11730707 0.99740374
vt 0.11730707 0.6905003
vt 0.2158212 0.6905003
vt 0.11730707 0.5088594
vt 0.2413823 0.5088594
vt 0.11730707 0.35427308
vt 0.3809237 0.35427308
vt 0.24138239 0.35427323
vt 0.11730707 0.19002087
vt 0.34342977 0.19002089
vt 0.16925131 0.19002089
vt 0.11730707 0.16125172
vt 0.15661737 0.16125172
vt 0.11730707 0.054984454
vt 0.4517131 0.19002089
vt 0.33686262 0.16125174
vt 0.44514593 0.16125174
vt 0.6036364 0.16125172
vt 0.15661737 0.054984454
vt 0.32665288 0.054984454
vt 0.43493623 0.054984443
vt 0.5991874 0.05498445
vt 0.15661739 0.0025961995
vt 0.11730707 0.0025961995
vt 0.32665306 0.002597031
vt 0.43493617 0.0025971222
vt 0.5991874 0.0025966016
vt 0.79590714 0.22511867
vt 0.8255949 0.23504701
vt 0.8255949 0.22511867
vt 0.79590714 0.23504701
vt 0.77186644 0.22511874
vt 0.8255949 0.25518626
vt 0.77186644 0.23504701
vt 0.79590714 0.25518626
vt 0.8255949 0.26063842
vt 0.7727095 0.25518626
vt 0.79590714 0.26063836
vt 0.7732518 0.26063836
vn 0.0007622182 0.9999893 0.004587514
vn 0.002800461 0.99999607 -9.6015756E-05
vn 0.0013110021 0.99999857 0.0010644329
vn 0.0012237494 0.99999917 -0.00050655374
vn -0.015913801 0.99968255 0.01953049
vn -2.5621031E-05 1 -0.00036687712
vn -0.013157569 0.99981695 0.013893988
vn -0.03136515 0.9993166 0.019558145
vn -0.0009610768 0.9999995 -0.00033561987
vn -0.011141611 0.99976736 0.018467115
vn -0.023355195 0.99956554 -0.017981386
vn 0.002712228 0.999982 -0.0053565037
vn -0.00096533744 0.9999604 -0.008847019
vn -0.016255008 0.9992805 -0.034269582
vn -0.0053629777 0.9995074 -0.030921882
vn 0.022085184 0.99942255 0.025823658
vn 0.032990187 0.99944645 -0.0043047485
vn 0.030342892 0.99873656 -0.04005842
vn -0.021297881 0.9997682 -0.0031649268
vn -0.01969737 0.998403 -0.052947145
vn -0.0008891889 0.999765 0.021659072
vn 0.0029260654 0.99999464 -0.0014596119
vn -0.002942342 0.99999404 0.0018269614
vn -0.03275628 0.999463 0.0008329441
vn -0.024019338 0.9994987 -0.020626329
vn -0.005357336 0.9999857 -8.854083E-05
vn -0.028591605 0.9994604 0.01616925
vn 0.018242031 0.9997292 -0.014446379
vn 0.0033697332 0.9999863 0.0040174285
vn -0.03366105 0.9993837 0.009954479
vn -0.044440422 0.99899775 0.005336123
vn -0.015159927 0.9998851 0
vn -0.0055458294 0.99998236 -0.0021472417
vn -0.037841603 0.99911755 -0.018223854
vn -0.0069902283 0.9997609 -0.020717563
vn -0.06980042 0.9975057 -0.010496111
vn 0.019310929 0.99975246 0.011047128
vn 0.004484005 0.9999596 0.0077941283
vn -0.074764185 0.99708503 0.0152263045
vn 0.019959664 0.9994974 0.024630042
vn -0.013312184 0.9994289 0.031055408
vn -0.004784119 0.9999672 0.0065370486
vn -0.00048975874 0.9999815 0.006064017
vn 0.005922283 0.9999726 -0.004443882
vn -0.006608916 0.99993443 -0.009358863
vn -0.010727663 0.99993753 0.0031549286
vn -0.00487553 0.999985 -0.0025058158
vn 0.011044895 0.99993885 0.0005616356
vn -0.0031898355 0.99994135 -0.01035319
vn -0.013084081 0.9997627 -0.017418064
vn -0.004581219 0.99977726 -0.020605613
vn 0.0133970855 0.9998448 -0.0114437165
vn -0.0060343524 0.9992816 -0.037416756
vn 0.07257301 0.9958753 -0.054456342
vn -0.018305603 0.9984913 -0.051770158
vn -0.0008388706 0.9982127 -0.059754696
vn 0.017504813 0.9992192 -0.035421584
vn 0.007838222 0.9999454 -0.006910074
vn -0.0060543483 0.9999418 0.008924847
vn -0 1 0
vn 0.0025952223 0.99999297 0.0027341181
vn 0.017504813 0.9992192 -0.035421584
vn -0.010348699 0.99988914 0.010711799
vn 0.0133970855 0.9998448 -0.0114437165
vn -0.00090157293 0.9999752 0.0069823978
vn 0.0013110021 0.99999857 0.0010644329
vn 0.011044895 0.99993885 0.0005616356
vn 0.0007622182 0.9999893 0.004587514
vn -2.5621031E-05 1 -0.00036687712
g Perception_is_Reality_Paper_002_Common_Prop_0
f 3/3/3 2/2/2 1/1/1
f 2/2/2 4/4/4 1/1/1
f 2/2/2 5/5/5 4/4/4
f 1/1/1 4/4/4 6/6/6
f 5/5/5 7/7/7 4/4/4
f 5/5/5 8/8/8 7/7/7
f 4/4/4 9/9/9 6/6/6
f 4/4/4 7/7/7 9/9/9
f 8/8/8 10/10/10 7/7/7
f 8/8/8 11/11/11 10/10/10
f 7/7/7 12/12/12 9/9/9
f 7/7/7 10/10/10 12/12/12
f 11/11/11 13/13/13 10/10/10
f 11/11/11 14/14/14 13/13/13
f 14/14/14 15/15/15 13/13/13
f 10/10/10 13/13/13 16/16/16
f 10/10/10 16/16/16 12/12/12
f 13/13/13 15/15/15 17/17/17
f 13/13/13 17/17/17 16/16/16
f 15/15/15 18/18/18 17/17/17
f 17/17/17 18/18/18 19/19/19
f 18/18/18 20/20/20 19/19/19
f 16/16/16 17/17/17 21/21/21
f 17/17/17 19/19/19 21/21/21
f 12/12/12 16/16/16 22/22/22
f 16/16/16 21/21/21 22/22/22
f 9/9/9 12/12/12 23/23/23
f 12/12/12 22/22/22 23/23/23
f 19/19/19 20/20/20 24/24/24
f 20/20/20 25/25/25 24/24/24
f 24/24/24 25/25/25 26/26/26
f 21/21/21 19/19/19 27/27/27
f 19/19/19 24/24/24 27/27/27
f 22/22/22 21/21/21 28/28/28
f 21/21/21 27/27/27 28/28/28
f 29/29/29 24/24/24 26/26/26
f 27/27/27 24/24/24 29/29/29
f 29/29/29 26/26/26 30/30/30
f 26/26/26 31/31/31 30/30/30
f 29/29/29 30/30/30 32/32/32
f 33/33/33 27/27/27 29/29/29
f 33/33/33 29/29/29 32/32/32
f 28/28/28 27/27/27 33/33/33
f 33/33/33 32/32/32 34/34/34
f 35/35/35 33/33/33 34/34/34
f 35/35/35 28/28/28 33/33/33
f 35/35/35 34/34/34 36/36/36
f 22/22/22 28/28/28 37/37/37
f 37/37/37 28/28/28 35/35/35
f 23/23/23 22/22/22 37/37/37
f 38/38/38 35/35/35 36/36/36
f 38/38/38 37/37/37 35/35/35
f 38/38/38 36/36/36 39/39/39
f 23/23/23 37/37/37 40/40/40
f 40/40/40 37/37/37 38/38/38
f 41/41/41 38/38/38 39/39/39
f 41/41/41 40/40/40 38/38/38
f 41/41/41 39/39/39 42/42/42
f 43/43/43 41/41/41 42/42/42
f 41/41/41 43/43/43 40/40/40
f 43/43/43 42/42/42 44/44/44
f 45/45/45 23/23/23 40/40/40
f 9/9/9 23/23/23 45/45/45
f 6/6/6 9/9/9 45/45/45
f 43/43/43 46/46/46 40/40/40
f 45/45/45 40/40/40 46/46/46
f 6/6/6 45/45/45 47/47/47
f 47/47/47 45/45/45 46/46/46
f 48/48/48 6/6/6 47/47/47
f 49/49/49 43/43/43 44/44/44
f 46/46/46 43/43/43 49/49/49
f 47/47/47 46/46/46 50/50/50
f 50/50/50 46/46/46 49/49/49
f 48/48/48 47/47/47 51/51/51
f 51/51/51 47/47/47 50/50/50
f 52/52/52 48/48/48 51/51/51
f 53/53/53 49/49/49 44/44/44
f 50/50/50 49/49/49 53/53/53
f 53/53/53 44/44/44 54/54/54
f 55/55/55 50/50/50 53/53/53
f 51/51/51 50/50/50 55/55/55
f 56/56/56 51/51/51 55/55/55
f 52/52/52 51/51/51 56/56/56
f 57/57/57 52/52/52 56/56/56
f 60/60/60 59/59/59 58/58/58
f 59/59/59 61/61/61 58/58/58
f 58/58/58 61/61/61 62/62/62
f 59/59/59 63/63/63 61/61/61
f 61/61/61 64/64/64 62/62/62
f 63/63/63 65/65/65 61/61/61
f 61/61/61 65/65/65 64/64/64
f 63/63/63 66/66/66 65/65/65
f 65/65/65 67/67/67 64/64/64
f 66/66/66 68/68/68 65/65/65
f 65/65/65 68/68/68 67/67/67
f 68/68/68 69/69/69 67/67/67
