g Cardboard_Box_003_A_Back_Prop
v 0.2675023 0.0061405734 0.58058107
v 0.27364287 0.25269684 0.5744405
v 0.27364287 0.0061405734 0.5744405
v -0.27364287 0.25269684 -0.57289463
v -0.27364287 0.0061405734 -0.57289463
v -0.2675023 0.0061405734 -0.57903516
v -0.03615631 0.11329937 0.58233887
v 0.03584198 0.11662235 0.58233887
v 0.03584198 0.004942682 0.58233887
v -0.03615631 0.004942682 0.58233887
v 0.03584198 -0.0011978912 0.5761983
v -0.03615631 -0.0011978912 0.5761983
v 0.03584198 -0.0011978912 0.5761983
v 0.03584198 -0.0011978912 -0.5754223
v -0.03615631 -0.0011978912 -0.5754223
v -0.03615631 -0.0011978912 0.5761983
v 0.03584198 0.004942682 -0.5815629
v 0.03584198 0.13313122 -0.5815629
v -0.03615631 0.13313122 -0.5815629
v -0.03615631 0.004942682 -0.5815629
v -0.03615631 -0.0011978912 -0.5754223
v 0.03584198 -0.0011978912 -0.5754223
v -0.03615631 0.19254074 0.58138
v 0.035841674 0.25463557 0.58138
v 0.035841674 0.18921776 0.58138
v -0.03615631 0.25463557 0.58138
v -0.03615631 0.26077616 0.5752394
v 0.035841674 0.26077616 0.5752394
v -0.03615631 0.26077616 0.5752394
v -0.03615631 0.26077616 -0.5761982
v 0.035841674 0.26077616 -0.5761982
v 0.035841674 0.26077616 0.5752394
v -0.03615631 0.25463557 -0.58233875
v -0.03615631 0.17598693 -0.58233875
v 0.035841674 0.17598693 -0.58233875
v 0.035841674 0.25463557 -0.58233875
v 0.035841674 0.26077616 -0.5761982
v -0.03615631 0.26077616 -0.5761982
v -0.2675023 0 0.5744405
v -0.2675023 0 -0.57289463
v -0.27364287 0.0061405734 -0.57289463
v 0.2675023 0 0.5744405
v 0.2675023 0 -0.57289463
v 0.27364287 0.0061405734 0.5744405
v 0.27364287 0.0061405734 -0.57289463
v -0.2675023 0 0.5744405
v -0.27364287 0.0061405734 -0.57289463
v -0.27364287 0.0061405734 0.5744405
v -0.27364287 0.25269684 0.5744405
v -0.27364287 0.25269684 -0.57289463
v -0.27364287 0.0061405734 0.5744405
v -0.27364287 0.25269684 0.5744405
v -0.2675023 0.25269684 0.58058107
v -0.2675023 0.0061405734 0.58058107
v 0.2675023 0.25269684 0.58058107
v 0.2675023 0.0061405734 0.58058107
v 0.27364287 0.25269684 0.5744405
v 0.2675023 0.25883743 0.5744405
v 0.2675023 0.25269684 -0.57903516
v 0.2675023 0.0061405734 -0.57903516
v 0.27364287 0.0061405734 -0.57289463
v 0.27364287 0.25269684 -0.57289463
v 0.27364287 0.25269684 -0.57289463
v 0.2675023 0.25883743 -0.57289463
v 0.2675023 0.25883743 0.5744405
v 0.27364287 0.25269684 0.5744405
v 0.27364287 0.0061405734 0.5744405
v 0.27364287 0.0061405734 -0.57289463
v 0.2675023 0.25883743 -0.57289463
v -0.2675023 0.25883743 -0.57289463
v -0.2675023 0.25269684 -0.57903516
v 0.2675023 0.25269684 -0.57903516
v 0.2675023 0.0061405734 -0.57903516
v -0.2675023 0.0061405734 -0.57903516
v -0.27364287 0.25269684 -0.57289463
v -0.2675023 0 0.5744405
v -0.27364287 0.0061405734 0.5744405
v -0.2675023 0.0061405734 0.58058107
v 0.2675023 0 0.5744405
v 0.2675023 0.0061405734 0.58058107
v 0.27364287 0.0061405734 0.5744405
v -0.27364287 0.25269684 0.5744405
v -0.2675023 0.25883743 0.5744405
v -0.2675023 0.25269684 0.58058107
v 0.2675023 0.25269684 0.58058107
v 0.2675023 0.25883743 0.5744405
v 0.2675023 0.25883743 -0.57289463
v -0.2675023 0.25883743 -0.57289463
v -0.27364287 0.25269684 0.5744405
v -0.27364287 0.25269684 -0.57289463
v -0.2675023 0.25269684 -0.57903516
v 0.2675023 0 -0.57289463
v 0.27364287 0.0061405734 -0.57289463
v 0.2675023 0.0061405734 -0.57903516
v -0.2675023 0 -0.57289463
v -0.2675023 0.0061405734 -0.57903516
v -0.27364287 0.0061405734 -0.57289463
vt 0.08425435 0.39935347
vt 0.08331698 0.3617163
vt 0.08331698 0.39935347
vt 0.16686076 0.1828246
vt 0.16686076 0.14518718
vt 0.16592339 0.14518718
vt 0.043133974 0.040571105
vt 0.043133974 0.050420176
vt 0.058196157 0.050420176
vt 0.05817212 0.040571105
vt 0.059864335 0.050420176
vt 0.059864342 0.040571105
vt 0.059864335 0.050420176
vt 0.21740216 0.050420176
vt 0.21740218 0.040571105
vt 0.059864342 0.040571105
vt 0.21908216 0.050420176
vt 0.23661768 0.050420176
vt 0.23661768 0.040571105
vt 0.21908216 0.040571105
vt 0.21740218 0.040571105
vt 0.21740216 0.050420176
vt 0.23459509 0.054222476
vt 0.22530621 0.06468905
vt 0.23459509 0.06468905
vt 0.22534867 0.054222476
vt 0.22353975 0.054222476
vt 0.22354165 0.06468905
vt 0.22353975 0.054222476
vt 0.056157548 0.05422248
vt 0.05615754 0.06468905
vt 0.22354165 0.06468905
vt 0.054372232 0.054222476
vt 0.042939067 0.054222476
vt 0.042939067 0.06468905
vt 0.054372232 0.06468905
vt 0.05615754 0.06468905
vt 0.056157548 0.05422248
vt 0.20731017 0.35984156
vt 0.20731016 0.1846994
vt 0.20543543 0.18469933
vt 0.2889794 0.35984156
vt 0.28897932 0.1846994
vt 0.28991675 0.35984156
vt 0.28991675 0.18469936
vt 0.20731017 0.35984156
vt 0.20543543 0.18469933
vt 0.20543543 0.35984156
vt 0.16779813 0.3598416
vt 0.16779813 0.18469933
vt 0.16686076 0.39935347
vt 0.16686076 0.3617163
vt 0.16592339 0.3617163
vt 0.16592339 0.39935347
vt 0.08425434 0.36171627
vt 0.08425435 0.39935347
vt 0.08331698 0.3617163
vt 0.0842544 0.3598415
vt 0.08425435 0.1828246
vt 0.08425435 0.1451872
vt 0.08331698 0.14518718
vt 0.08331698 0.1828246
vt 0.08237962 0.18469934
vt 0.08425435 0.18469933
vt 0.0842544 0.3598415
vt 0.08237962 0.3598416
vt 0.044742517 0.35984156
vt 0.04474252 0.18469933
vt 0.08425435 0.18469933
vt 0.16592339 0.18469933
vt 0.16592339 0.1828246
vt 0.08425435 0.1828246
vt 0.08425435 0.1451872
vt 0.16592339 0.14518718
vt 0.16686076 0.1828246
vt 0.16592339 0.40029085
vt 0.16686076 0.39935347
vt 0.16592339 0.39935347
vt 0.08425435 0.40029085
vt 0.08425435 0.39935347
vt 0.08331698 0.39935347
vt 0.16686076 0.3617163
vt 0.1659234 0.3598415
vt 0.16592339 0.3617163
vt 0.08425434 0.36171627
vt 0.0842544 0.3598415
vt 0.08425435 0.18469933
vt 0.16592339 0.18469933
vt 0.16779813 0.3598416
vt 0.16779813 0.18469933
vt 0.16592339 0.1828246
vt 0.084254354 0.14424981
vt 0.08331698 0.14518718
vt 0.08425435 0.1451872
vt 0.1659234 0.14424981
vt 0.16592339 0.14518718
vt 0.16686076 0.14518718
vn 0.011161681 -0.02411218 0.999647
vn 0.9996933 0.02420855 0.0052361446
vn 0.9996933 -0.024208551 0.0052361446
vn -0.9996933 0.024208553 -0.0052361456
vn -0.9996933 -0.024208555 -0.0052361456
vn -0.011161594 -0.02411218 -0.999647
vn -0 0 1
vn -0 0 1
vn -0 -0.05278978 0.99860567
vn -0 -0.05278978 0.99860567
vn -0 -0.99998593 0.00530376
vn -0 -0.99998593 0.00530376
vn -0 -0.99998593 0.00530376
vn -0 -0.99998593 -0.00530376
vn -0 -0.99998593 -0.00530376
vn -0 -0.99998593 0.00530376
vn -0 -0.045665085 -0.9989568
vn -0 0 -1
vn -0 0 -1
vn -0 -0.045665085 -0.9989568
vn -0 -0.99998593 -0.00530376
vn -0 -0.99998593 -0.00530376
vn -0 0 1
vn -0 0.08751455 0.99616325
vn -0 0 1
vn -0 0.08751455 0.99616325
vn -0 0.99998593 0.0053046076
vn -0 0.99998593 0.0053046076
vn -0 0.99998593 0.0053046076
vn -0 0.99998593 -0.0053046076
vn -0 0.99998593 -0.0053046076
vn -0 0.99998593 0.0053046076
vn -0 0.07223226 -0.9973878
vn -0 0 -1
vn -0 0 -1
vn -0 0.07223226 -0.9973878
vn -0 0.99998593 -0.0053046076
vn -0 0.99998593 -0.0053046076
vn -0.011306671 -0.99992216 0.0052830693
vn -0.011306671 -0.99992216 -0.0052830693
vn -0.9996933 -0.024208555 -0.0052361456
vn 0.011306671 -0.99992216 0.0052830693
vn 0.011306671 -0.99992216 -0.0052830693
vn 0.9996933 -0.024208551 0.0052361446
vn 0.9996933 -0.024208555 -0.0052361456
vn -0.011306671 -0.99992216 0.0052830693
vn -0.9996933 -0.024208555 -0.0052361456
vn -0.9996933 -0.024208551 0.0052361446
vn -0.9996933 0.02420855 0.0052361446
vn -0.9996933 0.024208553 -0.0052361456
vn -0.9996933 -0.024208551 0.0052361446
vn -0.9996933 0.02420855 0.0052361446
vn -0.01116168 0.024112178 0.999647
vn -0.011161681 -0.02411218 0.999647
vn 0.01116168 0.024112178 0.999647
vn 0.011161681 -0.02411218 0.999647
vn 0.9996933 0.02420855 0.0052361446
vn 0.011306674 0.99992216 0.0052830796
vn 0.011161592 0.024112178 -0.999647
vn 0.011161594 -0.02411218 -0.999647
vn 0.9996933 -0.024208555 -0.0052361456
vn 0.9996933 0.024208553 -0.0052361456
vn 0.9996933 0.024208553 -0.0052361456
vn 0.011306674 0.99992216 -0.0052830796
vn 0.011306674 0.99992216 0.0052830796
vn 0.9996933 0.02420855 0.0052361446
vn 0.9996933 -0.024208551 0.0052361446
vn 0.9996933 -0.024208555 -0.0052361456
vn 0.011306674 0.99992216 -0.0052830796
vn -0.011306674 0.99992216 -0.0052830796
vn -0.011161592 0.024112178 -0.999647
vn 0.011161592 0.024112178 -0.999647
vn 0.011161594 -0.02411218 -0.999647
vn -0.011161594 -0.02411218 -0.999647
vn -0.9996933 0.024208553 -0.0052361456
vn -0.011306671 -0.99992216 0.0052830693
vn -0.9996933 -0.024208551 0.0052361446
vn -0.011161681 -0.02411218 0.999647
vn 0.011306671 -0.99992216 0.0052830693
vn 0.011161681 -0.02411218 0.999647
vn 0.9996933 -0.024208551 0.0052361446
vn -0.9996933 0.02420855 0.0052361446
vn -0.011306674 0.99992216 0.0052830796
vn -0.01116168 0.024112178 0.999647
vn 0.01116168 0.024112178 0.999647
vn 0.011306674 0.99992216 0.0052830796
vn 0.011306674 0.99992216 -0.0052830796
vn -0.011306674 0.99992216 -0.0052830796
vn -0.9996933 0.02420855 0.0052361446
vn -0.9996933 0.024208553 -0.0052361456
vn -0.011161592 0.024112178 -0.999647
vn 0.011306671 -0.99992216 -0.0052830693
vn 0.9996933 -0.024208555 -0.0052361456
vn 0.011161594 -0.02411218 -0.999647
vn -0.011306671 -0.99992216 -0.0052830693
vn -0.011161594 -0.02411218 -0.999647
vn -0.9996933 -0.024208555 -0.0052361456
g Cardboard_Box_003_A_Back_Prop_0
f 3/3/3 2/2/2 1/1/1
f 6/6/6 5/5/5 4/4/4
f 9/9/9 8/8/8 7/7/7
f 10/10/10 9/9/9 7/7/7
f 11/11/11 9/9/9 10/10/10
f 12/12/12 11/11/11 10/10/10
f 15/15/15 14/14/14 13/13/13
f 16/16/16 15/15/15 13/13/13
f 19/19/19 18/18/18 17/17/17
f 20/20/20 19/19/19 17/17/17
f 21/21/21 20/20/20 17/17/17
f 22/22/22 21/21/21 17/17/17
f 25/25/25 24/24/24 23/23/23
f 24/24/24 26/26/26 23/23/23
f 26/26/26 24/24/24 27/27/27
f 24/24/24 28/28/28 27/27/27
f 31/31/31 30/30/30 29/29/29
f 32/32/32 31/31/31 29/29/29
f 35/35/35 34/34/34 33/33/33
f 36/36/36 35/35/35 33/33/33
f 36/36/36 33/33/33 37/37/37
f 33/33/33 38/38/38 37/37/37
f 41/41/41 40/40/40 39/39/39
f 42/42/42 39/39/39 40/40/40
f 43/43/43 42/42/42 40/40/40
f 42/42/42 43/43/43 44/44/44
f 43/43/43 45/45/45 44/44/44
f 48/48/48 47/47/47 46/46/46
f 48/48/48 49/49/49 47/47/47
f 49/49/49 50/50/50 47/47/47
f 53/53/53 52/52/52 51/51/51
f 54/54/54 53/53/53 51/51/51
f 55/55/55 53/53/53 54/54/54
f 56/56/56 55/55/55 54/54/54
f 57/57/57 55/55/55 56/56/56
f 55/55/55 57/57/57 58/58/58
f 61/61/61 60/60/60 59/59/59
f 62/62/62 61/61/61 59/59/59
f 64/64/64 63/63/63 59/59/59
f 63/63/63 64/64/64 65/65/65
f 66/66/66 63/63/63 65/65/65
f 63/63/63 66/66/66 67/67/67
f 68/68/68 63/63/63 67/67/67
f 71/71/71 70/70/70 69/69/69
f 72/72/72 71/71/71 69/69/69
f 72/72/72 73/73/73 71/71/71
f 73/73/73 74/74/74 71/71/71
f 71/71/71 74/74/74 75/75/75
f 78/78/78 77/77/77 76/76/76
f 76/76/76 79/79/79 78/78/78
f 79/79/79 80/80/80 78/78/78
f 80/80/80 79/79/79 81/81/81
f 84/84/84 83/83/83 82/82/82
f 83/83/83 84/84/84 85/85/85
f 86/86/86 83/83/83 85/85/85
f 86/86/86 87/87/87 83/83/83
f 87/87/87 88/88/88 83/83/83
f 83/83/83 88/88/88 89/89/89
f 88/88/88 90/90/90 89/89/89
f 88/88/88 91/91/91 90/90/90
f 94/94/94 93/93/93 92/92/92
f 92/92/92 95/95/95 94/94/94
f 95/95/95 96/96/96 94/94/94
f 96/96/96 95/95/95 97/97/97
