g Cardboard_Box_004_A_Back_Prop
v 0.28381005 0 -0.28371638
v 0.28764454 0.0038344811 -0.28371638
v 0.28381005 0.0038344793 -0.28755093
v -0.28774765 0.41033584 0.010342187
v -0.28774765 0.40259588 0.17537479
v -0.28774765 0.38752028 0.1890998
v -0.28774765 0.39661095 -0.0047333986
v -0.28774765 0.3017381 -0.009183008
v -0.28774765 0.29264715 0.1846503
v -0.28774765 0.28666198 0.0045417966
v -0.28774765 0.27892208 0.16957462
v 0.28901717 0.0029653406 0.052821875
v 0.28901717 0.14630263 0.052821875
v 0.28901717 0.14630263 -0.040909957
v 0.28901717 0.0029653406 -0.040909957
v 0.2851827 -0.0008691406 -0.040909957
v 0.2851827 -0.0008691406 0.052821875
v -0.2851827 -0.0008691406 0.052821875
v -0.2851827 -0.0008691406 -0.040909957
v -0.28901717 0.0029653406 -0.040909957
v -0.28901717 0.0029653406 0.052821875
v -0.28901717 0.14630263 0.052821875
v -0.28901717 0.14630263 -0.040909957
v -0.28901717 0.57849634 0.052821875
v -0.28901717 0.42899394 0.052821875
v -0.28901717 0.42899394 -0.040909957
v -0.28901717 0.57849634 -0.040909957
v -0.28518286 0.582331 -0.040909957
v -0.28518286 0.582331 0.052821875
v 0.28518254 0.58237857 0.052821875
v 0.28518254 0.58237857 -0.040909957
v 0.28901717 0.57854426 -0.040909957
v 0.28901717 0.57854426 0.052821875
v 0.28901717 0.42899394 0.052821875
v 0.28901717 0.42899394 -0.040909957
v 0.28381005 0 -0.28371638
v 0.28381005 0 0.2837165
v 0.28764454 0.0038344811 0.2837165
v 0.28764454 0.0038344811 -0.28371638
v 0.28764454 0.5784251 -0.07298643
v 0.28764454 0.57456684 0.16612549
v 0.28764454 0.5713689 0.2837165
v 0.28764454 0.5782875 -0.1811317
v 0.28764454 0.57151276 -0.28371638
v 0.28381005 0.58212197 -0.1812584
v 0.28393048 0.57534707 -0.28384492
v 0.28393048 0.57138836 -0.28755084
v 0.28381005 0.0038344793 -0.28755093
v -0.28362492 0.57126784 -0.2875509
v -0.28362492 0.0038344811 -0.2875509
v -0.28745937 0.57151276 -0.28371638
v -0.28362492 0 -0.28371638
v 0.28381005 0 -0.28371638
v -0.28745937 0.0038344811 -0.28371638
v -0.28745937 0.5782875 -0.1811317
v -0.28362492 0.575355 -0.28372473
v -0.28362492 0.57126784 -0.2875509
v 0.28393048 0.57534707 -0.28384492
v 0.28393048 0.57138836 -0.28755084
v 0.28381005 0.58212197 -0.1812584
v -0.28362492 0.58212197 -0.1812584
v -0.28745937 0.5784352 -0.0729827
v 0.28368855 0.58213425 -0.07161055
v 0.28764454 0.5782875 -0.1811317
v 0.28764454 0.5784251 -0.07298643
v -0.28351414 0.58213425 -0.07161055
v 0.28376183 0.5783657 0.16532265
v 0.28764454 0.57456684 0.16612549
v -0.28745937 0.0038344811 0.2837165
v -0.28745937 0.5745622 0.16612647
v -0.28357187 0.5783657 0.16532265
v -0.28362492 0 0.2837165
v -0.28362492 0 -0.28371638
v 0.28381005 0 -0.28371638
v 0.28381005 0 0.2837165
v 0.28381005 0.5752047 0.28371787
v 0.28764454 0.57456684 0.16612549
v 0.28764454 0.5713689 0.2837165
v -0.28362492 0.5752047 0.28371787
v -0.28745937 0.5713689 0.2837165
v -0.28362492 0.57126784 0.287551
v -0.28362492 0.5752047 0.28371787
v -0.28362492 0.0038344811 0.287551
v -0.28362492 0 0.2837165
v 0.28381005 0 0.2837165
v 0.2838602 0.57131803 0.287551
v 0.28381005 0.5752047 0.28371787
v 0.28764454 0.5713689 0.2837165
v 0.28381005 0.0038344811 0.287551
v 0.28764454 0.0038344811 0.2837165
vt 0.43338302 0.62382185
vt 0.43341482 0.6274825
vt 0.43168747 0.62747204
vt 0.61651826 0.561375
vt 0.61651826 0.52661884
vt 0.61351013 0.52377164
vt 0.61351013 0.5645937
vt 0.5932002 0.5645937
vt 0.5932002 0.52377164
vt 0.59019166 0.561375
vt 0.59019166 0.5268289
vt 0.2174109 0.113932736
vt 0.251198 0.113932736
vt 0.251198 0.09183801
vt 0.2174109 0.09183801
vt 0.21560319 0.09183801
vt 0.21560319 0.113932736
vt 0.08115817 0.113932736
vt 0.08115808 0.09183801
vt 0.079350375 0.09183801
vt 0.079350375 0.113932736
vt 0.045563042 0.113932736
vt 0.045563042 0.09183801
vt 0.078239396 0.067350514
vt 0.043029845 0.067350514
vt 0.043029845 0.089444764
vt 0.078239396 0.089444764
vt 0.080046244 0.089444764
vt 0.080046244 0.06735051
vt 0.2144915 0.067350514
vt 0.21449155 0.089444764
vt 0.21629052 0.08944476
vt 0.21629052 0.067350514
vt 0.251198 0.067350514
vt 0.251198 0.089444764
vt 0.43341556 0.628337
vt 0.5617011 0.628337
vt 0.5617004 0.62748253
vt 0.43341482 0.6274825
vt 0.48094708 0.49943078
vt 0.53489006 0.49945632
vt 0.56169397 0.4994695
vt 0.45655134 0.49945876
vt 0.4334135 0.49947104
vt 0.45652273 0.49860418
vt 0.4333845 0.49860418
vt 0.4317145 0.499442
vt 0.43168747 0.62747204
vt 0.30425054 0.49946916
vt 0.30425054 0.62747204
vt 0.302505 0.49947107
vt 0.30425054 0.628337
vt 0.43168747 0.628337
vt 0.3025064 0.6274825
vt 0.2788407 0.4994588
vt 0.3025069 0.49773163
vt 0.30338937 0.49773374
vt 0.3025346 0.36858547
vt 0.3032324 0.36857814
vt 0.27887374 0.36861286
vt 0.27887374 0.49773166
vt 0.25339457 0.49942854
vt 0.25307485 0.36864042
vt 0.27884397 0.36774027
vt 0.25339866 0.36774027
vt 0.25307485 0.49770644
vt 0.19951203 0.36862373
vt 0.19951203 0.36774027
vt 0.17275111 0.6274825
vt 0.1993303 0.49945742
vt 0.19951203 0.4977196
vt 0.17275728 0.6292001
vt 0.30251253 0.6292001
vt 0.30251256 0.7569195
vt 0.17275725 0.7569195
vt 0.17274702 0.36861268
vt 0.1993078 0.36774027
vt 0.17272414 0.36774027
vt 0.17274699 0.49773166
vt 0.17274727 0.49946964
vt 0.1710254 0.49946916
vt 0.17100076 0.49860418
vt 0.1710254 0.62747204
vt 0.1710254 0.628337
vt 0.044492293 0.628337
vt 0.04419772 0.49945784
vt 0.044206887 0.49860418
vt 0.043351933 0.4994464
vt 0.0444923 0.62747204
vt 0.04363533 0.62747204
vn 0.006682076 -0.9999554 -0.0066820853
vn 0.9998709 -0.011451992 -0.011275017
vn 0.00668202 -0.0066812094 -0.9999554
vn -1 -1.1784842E-06 0
vn -1 -1.1784842E-06 0
vn -1 -1.3054206E-07 0
vn -1 -1.3054253E-07 0
vn -1 0 0
vn -1 0 0
vn -1 4.4192012E-07 0
vn -1 4.4192012E-07 0
vn 0.99966073 -0.026045304 0
vn 1 0 0
vn 1 0 0
vn 0.99966073 -0.026045304 0
vn 0.006677806 -0.9999777 0
vn 0.006677806 -0.9999777 0
vn -0.006677806 -0.9999777 0
vn -0.006677806 -0.9999777 0
vn -0.99966073 -0.026045304 0
vn -0.99966073 -0.026045304 0
vn -1 0 0
vn -1 0 0
vn -0.99968755 0.024997914 0
vn -1 0 0
vn -1 0 0
vn -0.99968755 0.024997914 0
vn -0.0067610047 0.99997723 0
vn -0.0067610047 0.99997723 0
vn 0.006594659 0.9999783 0
vn 0.006594659 0.9999783 0
vn 0.9996877 0.024992282 0
vn 0.9996877 0.024992282 0
vn 1 0 0
vn 1 0 0
vn 0.006682076 -0.9999554 -0.0066820853
vn 0.0066820765 -0.9999554 0.006682101
vn 0.9998927 -0.010392731 0.010325831
vn 0.9998709 -0.011451992 -0.011275017
vn 0.9999912 0.0041984613 4.0885043E-05
vn 0.9999895 0.00458045 9.137844E-05
vn 0.99817276 0.012413433 0.05913639
vn 0.9999058 0.01371531 -0.00042952612
vn 0.99781895 0.01171148 -0.064963646
vn 0.006539902 0.9994672 -0.031977102
vn 0.006636312 0.99487394 -0.10090435
vn 0.006780462 0.0065616486 -0.99995553
vn 0.00668202 -0.0066812094 -0.9999554
vn -0.006870327 0.0065579535 -0.99995494
vn -0.006682106 -0.0066806795 -0.9999554
vn -0.99780613 0.011754829 -0.06515113
vn -0.0066820784 -0.9999554 -0.0066821
vn 0.006682076 -0.9999554 -0.0066820853
vn -0.99986887 -0.011450723 -0.011453166
vn -0.99990463 0.013805297 -0.00044072498
vn -0.006725359 0.9948774 -0.10086507
vn -0.006870327 0.0065579535 -0.99995494
vn 0.006636312 0.99487394 -0.10090435
vn 0.006780462 0.0065616486 -0.99995553
vn 0.006539902 0.9994672 -0.031977102
vn -0.006536994 0.99946755 -0.031967964
vn -0.9999912 0.004194566 4.0866675E-05
vn 0.0069415392 0.99991715 0.010842865
vn 0.9999058 0.01371531 -0.00042952612
vn 0.9999912 0.0041984613 4.0885043E-05
vn -0.0069359792 0.99991715 0.010843108
vn 0.00682809 0.9997867 0.019495383
vn 0.9999895 0.00458045 9.137844E-05
vn -0.999892 -0.010392237 0.010393136
vn -0.9999895 0.004579001 9.1475704E-05
vn -0.006825279 0.9997867 0.0194956
vn -0.006682078 -0.9999554 0.006682101
vn -0.0066820784 -0.9999554 -0.0066821
vn 0.006682076 -0.9999554 -0.0066820853
vn 0.0066820765 -0.9999554 0.006682101
vn 0.0065680575 0.9983058 0.05781449
vn 0.9999895 0.00458045 9.137844E-05
vn 0.99817276 0.012413433 0.05913639
vn -0.0065764813 0.9983157 0.057642326
vn -0.9981688 0.012428714 0.059197977
vn -0.006759519 0.006677224 0.99995494
vn -0.0065764813 0.9983157 0.057642326
vn -0.0066820695 -0.006681502 0.9999554
vn -0.006682078 -0.9999554 0.006682101
vn 0.0066820765 -0.9999554 0.006682101
vn 0.006722557 0.0066405144 0.9999554
vn 0.0065680575 0.9983058 0.05781449
vn 0.99817276 0.012413433 0.05913639
vn 0.006682017 -0.006681716 0.9999554
vn 0.9998927 -0.010392731 0.010325831
g Cardboard_Box_004_A_Back_Prop_0
f 3/3/3 2/2/2 1/1/1
f 6/6/6 5/5/5 4/4/4
f 7/7/7 6/6/6 4/4/4
f 7/7/7 8/8/8 6/6/6
f 8/8/8 9/9/9 6/6/6
f 8/8/8 10/10/10 9/9/9
f 10/10/10 11/11/11 9/9/9
f 14/14/14 13/13/13 12/12/12
f 15/15/15 14/14/14 12/12/12
f 16/16/16 15/15/15 12/12/12
f 17/17/17 16/16/16 12/12/12
f 16/16/16 17/17/17 18/18/18
f 19/19/19 16/16/16 18/18/18
f 20/20/20 19/19/19 18/18/18
f 21/21/21 20/20/20 18/18/18
f 20/20/20 21/21/21 22/22/22
f 23/23/23 20/20/20 22/22/22
f 26/26/26 25/25/25 24/24/24
f 27/27/27 26/26/26 24/24/24
f 28/28/28 27/27/27 24/24/24
f 29/29/29 28/28/28 24/24/24
f 28/28/28 29/29/29 30/30/30
f 31/31/31 28/28/28 30/30/30
f 32/32/32 31/31/31 30/30/30
f 33/33/33 32/32/32 30/30/30
f 32/32/32 33/33/33 34/34/34
f 35/35/35 32/32/32 34/34/34
f 38/38/38 37/37/37 36/36/36
f 39/39/39 38/38/38 36/36/36
f 39/39/39 40/40/40 38/38/38
f 40/40/40 41/41/41 38/38/38
f 41/41/41 42/42/42 38/38/38
f 43/43/43 40/40/40 39/39/39
f 44/44/44 43/43/43 39/39/39
f 45/45/45 43/43/43 44/44/44
f 46/46/46 45/45/45 44/44/44
f 44/44/44 47/47/47 46/46/46
f 47/47/47 44/44/44 39/39/39
f 48/48/48 47/47/47 39/39/39
f 49/49/49 47/47/47 48/48/48
f 50/50/50 49/49/49 48/48/48
f 49/49/49 50/50/50 51/51/51
f 52/52/52 50/50/50 48/48/48
f 53/53/53 52/52/52 48/48/48
f 52/52/52 54/54/54 50/50/50
f 50/50/50 54/54/54 51/51/51
f 55/55/55 51/51/51 54/54/54
f 51/51/51 55/55/55 56/56/56
f 56/56/56 57/57/57 51/51/51
f 57/57/57 56/56/56 58/58/58
f 59/59/59 57/57/57 58/58/58
f 58/58/58 56/56/56 60/60/60
f 55/55/55 61/61/61 56/56/56
f 56/56/56 61/61/61 60/60/60
f 62/62/62 55/55/55 54/54/54
f 55/55/55 62/62/62 61/61/61
f 60/60/60 61/61/61 63/63/63
f 60/60/60 63/63/63 64/64/64
f 63/63/63 65/65/65 64/64/64
f 61/61/61 66/66/66 63/63/63
f 62/62/62 66/66/66 61/61/61
f 63/63/63 67/67/67 65/65/65
f 63/63/63 66/66/66 67/67/67
f 67/67/67 68/68/68 65/65/65
f 62/62/62 54/54/54 69/69/69
f 62/62/62 70/70/70 66/66/66
f 70/70/70 62/62/62 69/69/69
f 66/66/66 71/71/71 67/67/67
f 70/70/70 71/71/71 66/66/66
f 72/72/72 69/69/69 54/54/54
f 73/73/73 72/72/72 54/54/54
f 73/73/73 74/74/74 72/72/72
f 74/74/74 75/75/75 72/72/72
f 67/67/67 71/71/71 76/76/76
f 77/77/77 67/67/67 76/76/76
f 78/78/78 77/77/77 76/76/76
f 71/71/71 79/79/79 76/76/76
f 79/79/79 71/71/71 80/80/80
f 71/71/71 70/70/70 80/80/80
f 70/70/70 69/69/69 80/80/80
f 80/80/80 69/69/69 81/81/81
f 81/81/81 82/82/82 80/80/80
f 69/69/69 83/83/83 81/81/81
f 83/83/83 69/69/69 84/84/84
f 83/83/83 84/84/84 85/85/85
f 82/82/82 81/81/81 86/86/86
f 86/86/86 81/81/81 83/83/83
f 87/87/87 82/82/82 86/86/86
f 86/86/86 88/88/88 87/87/87
f 89/89/89 83/83/83 85/85/85
f 89/89/89 86/86/86 83/83/83
f 88/88/88 86/86/86 89/89/89
f 85/85/85 90/90/90 89/89/89
f 90/90/90 88/88/88 89/89/89
