g Boombox_RadioKnob_01
v 0.024370555 -0.017706245 -0.008942007
v 0.01770625 -0.024370542 -0.008942007
v 0.018770441 -0.025835289 -0.007153772
v 0.025835294 -0.018770432 -0.007153772
v 0.0286493 -0.009308724 -0.008942007
v 0.030371198 -0.009868188 -0.007153772
v 0.030123644 1.41072745E-08 -0.008942007
v 0.031934157 1.41072745E-08 -0.007153772
v 0.028649282 0.009308753 -0.008942007
v 0.03037118 0.009868217 -0.007153772
v 0.024370536 0.017706236 -0.008942007
v 0.025835276 0.018770423 -0.007153772
v 0.017706236 0.024370551 -0.008942007
v 0.018770427 0.02583528 -0.007153772
v 0.01770625 -0.024370542 -0.008942007
v 0.009868206 -0.030371174 -0.007153772
v 0.018770441 -0.025835289 -0.007153772
v 0.009308729 -0.028649297 -0.008942007
v 4.5978448E-09 -0.03193417 -0.007153772
v 4.5978448E-09 -0.030123657 -0.008942007
v -0.0098681925 -0.030371174 -0.007153772
v -0.009308719 -0.028649297 -0.008942007
v -0.018770423 -0.025835289 -0.007153772
v -0.017706232 -0.024370542 -0.008942007
v -0.017706232 -0.024370542 -0.008942007
v -0.025835272 -0.018770432 -0.007153772
v -0.018770423 -0.025835289 -0.007153772
v -0.024370542 -0.017706245 -0.008942007
v -0.030371185 -0.009868188 -0.007153772
v -0.028649287 -0.009308724 -0.008942007
v -0.031934157 1.41072745E-08 -0.007153772
v -0.030123644 1.41072745E-08 -0.008942007
v -0.030371185 0.009868217 -0.007153772
v -0.028649287 0.009308753 -0.008942007
v -0.025835272 0.018770423 -0.007153772
v -0.024370534 0.017706236 -0.008942007
v -0.018770423 0.02583528 -0.007153772
v -0.017706228 0.024370551 -0.008942007
v -0.017706228 0.024370551 -0.008942007
v -0.0098681925 0.030371202 -0.007153772
v -0.018770423 0.02583528 -0.007153772
v -0.009308714 0.028649287 -0.008942007
v 4.5978448E-09 0.03193418 -0.007153772
v 4.5978448E-09 0.030123668 -0.008942007
v 0.009868202 0.030371202 -0.007153772
v 0.009308719 0.028649287 -0.008942007
v 0.018770427 0.02583528 -0.007153772
v 0.017706236 0.024370551 -0.008942007
v 0.025835294 -0.018770432 0.008942018
v 0.018770441 -0.025835289 -0.007153772
v 0.018770441 -0.025835289 0.008942018
v 0.025835294 -0.018770432 -0.007153772
v 0.030371198 -0.009868188 0.008942018
v 0.030371198 -0.009868188 -0.007153772
v 0.031934157 1.41072745E-08 0.008942018
v 0.031934157 1.41072745E-08 -0.007153772
v 0.03037118 0.009868217 0.008942018
v 0.03037118 0.009868217 -0.007153772
v 0.025835276 0.018770423 0.008942018
v 0.025835276 0.018770423 -0.007153772
v 0.018770427 0.02583528 0.008942018
v 0.018770427 0.02583528 -0.007153772
v 0.018770441 -0.025835289 0.008942018
v 0.018770441 -0.025835289 -0.007153772
v 0.009868206 -0.030371174 -0.007153772
v 0.009868206 -0.030371174 0.008942018
v 4.5978448E-09 -0.03193417 -0.007153772
v 4.5978448E-09 -0.03193417 0.008942018
v -0.0098681925 -0.030371174 -0.007153772
v -0.0098681925 -0.030371174 0.008942018
v -0.018770423 -0.025835289 -0.007153772
v -0.018770423 -0.025835289 0.008942018
v -0.018770423 -0.025835289 0.008942018
v -0.018770423 -0.025835289 -0.007153772
v -0.025835272 -0.018770432 -0.007153772
v -0.025835272 -0.018770432 0.008942018
v -0.030371185 -0.009868188 -0.007153772
v -0.030371185 -0.009868188 0.008942018
v -0.031934157 1.41072745E-08 -0.007153772
v -0.031934157 1.41072745E-08 0.008942018
v -0.030371185 0.009868217 -0.007153772
v -0.030371185 0.009868217 0.008942018
v -0.025835272 0.018770423 -0.007153772
v -0.025835272 0.018770423 0.008942018
v -0.018770423 0.02583528 -0.007153772
v -0.018770423 0.02583528 0.008942018
v -0.018770423 0.02583528 0.008942018
v -0.018770423 0.02583528 -0.007153772
v -0.0098681925 0.030371202 -0.007153772
v -0.0098681925 0.030371202 0.008942018
v 4.5978448E-09 0.03193418 -0.007153772
v 4.5978448E-09 0.03193418 0.008942018
v 0.009868202 0.030371202 -0.007153772
v 0.009868202 0.030371202 0.008942018
v 0.018770427 0.02583528 -0.007153772
v 0.018770427 0.02583528 0.008942018
v 0.0286493 -0.009308724 -0.008942007
v 4.5978448E-09 1.41072745E-08 -0.008942007
v 0.024370555 -0.017706245 -0.008942007
v 0.030123644 1.41072745E-08 -0.008942007
v 0.01770625 -0.024370542 -0.008942007
v 0.028649282 0.009308753 -0.008942007
v 0.009308729 -0.028649297 -0.008942007
v 0.024370536 0.017706236 -0.008942007
v 4.5978448E-09 -0.030123657 -0.008942007
v 0.017706236 0.024370551 -0.008942007
v -0.009308719 -0.028649297 -0.008942007
v 0.009308719 0.028649287 -0.008942007
v -0.017706232 -0.024370542 -0.008942007
v 4.5978448E-09 0.030123668 -0.008942007
v -0.024370542 -0.017706245 -0.008942007
v -0.009308714 0.028649287 -0.008942007
v -0.028649287 -0.009308724 -0.008942007
v -0.017706228 0.024370551 -0.008942007
v -0.030123644 1.41072745E-08 -0.008942007
v -0.024370534 0.017706236 -0.008942007
v -0.028649287 0.009308753 -0.008942007
vt 0.80365556 0.0844117
vt 0.80365556 0.016702427
vt 0.785487 0.0018207566
vt 0.785487 0.07359962
vt 0.80365556 0.16973048
vt 0.785487 0.16404624
vt 0.80365556 0.2643071
vt 0.785487 0.2643071
vt 0.80365556 0.35888377
vt 0.785487 0.36456802
vt 0.80365556 0.44420224
vt 0.785487 0.45501465
vt 0.80365556 0.5119118
vt 0.785487 0.5267932
vt 0.816306 0.5415964
vt 0.8344745 0.62123126
vt 0.8344745 0.53078467
vt 0.816306 0.6269152
vt 0.8344745 0.7214919
vt 0.816306 0.7214919
vt 0.8344745 0.8217525
vt 0.816306 0.81606853
vt 0.8344745 0.9121991
vt 0.816306 0.901387
vt 0.811002 0.016702427
vt 0.8291706 0.07359962
vt 0.8291706 0.0018207566
vt 0.811002 0.0844117
vt 0.8291706 0.16404624
vt 0.811002 0.16973048
vt 0.8291706 0.2643071
vt 0.811002 0.2643071
vt 0.8291706 0.36456802
vt 0.811002 0.35888377
vt 0.8291706 0.45501465
vt 0.811002 0.44420224
vt 0.8291706 0.5267932
vt 0.811002 0.5119118
vt 0.81017107 0.9013867
vt 0.79200256 0.8217525
vt 0.79200256 0.9121991
vt 0.81017107 0.8160679
vt 0.79200256 0.7214919
vt 0.81017107 0.7214919
vt 0.79200256 0.62123126
vt 0.81017107 0.6269152
vt 0.79200256 0.53078467
vt 0.81017107 0.5415964
vt 0.62195355 0.07359962
vt 0.785487 0.0018207566
vt 0.62195355 0.0018207566
vt 0.785487 0.07359962
vt 0.62195355 0.16404624
vt 0.785487 0.16404624
vt 0.62195355 0.2643071
vt 0.785487 0.2643071
vt 0.62195355 0.36456802
vt 0.785487 0.36456802
vt 0.62195355 0.45501465
vt 0.785487 0.45501465
vt 0.62195355 0.5267932
vt 0.785487 0.5267932
vt 0.998008 0.53078467
vt 0.8344745 0.53078467
vt 0.8344745 0.62123126
vt 0.998008 0.62123126
vt 0.8344745 0.7214919
vt 0.998008 0.7214919
vt 0.8344745 0.8217525
vt 0.998008 0.8217525
vt 0.8344745 0.9121991
vt 0.998008 0.9121991
vt 0.99270403 0.0018207566
vt 0.8291706 0.0018207566
vt 0.8291706 0.07359962
vt 0.99270403 0.07359962
vt 0.8291706 0.16404624
vt 0.99270403 0.16404624
vt 0.8291706 0.2643071
vt 0.99270403 0.2643071
vt 0.8291706 0.36456802
vt 0.99270403 0.36456802
vt 0.8291706 0.45501465
vt 0.99270403 0.45501465
vt 0.8291706 0.5267932
vt 0.99270403 0.5267932
vt 0.62846905 0.9121991
vt 0.79200256 0.9121991
vt 0.79200256 0.8217525
vt 0.62846905 0.8217525
vt 0.79200256 0.7214919
vt 0.62846905 0.7214919
vt 0.79200256 0.62123126
vt 0.62846905 0.62123126
vt 0.79200256 0.53078467
vt 0.62846905 0.53078467
vt 0.5991246 0.40245417
vt 0.30804783 0.3078775
vt 0.55565256 0.48777294
vt 0.614104 0.3078775
vt 0.4879433 0.55548257
vt 0.59912425 0.21330088
vt 0.4026245 0.5989533
vt 0.55565226 0.1279821
vt 0.30804783 0.613933
vt 0.4879433 0.0602725
vt 0.21347119 0.5989533
vt 0.4026245 0.01680047
vt 0.12815273 0.55548257
vt 0.30804783 0.0018207566
vt 0.060443453 0.48777294
vt 0.21347152 0.01680047
vt 0.016971424 0.40245417
vt 0.12815273 0.0602725
vt 0.0019920322 0.3078775
vt 0.060443453 0.1279821
vt 0.016971424 0.21330088
vn 0.56851166 -0.4130445 -0.7114694
vn 0.41304407 -0.5685081 -0.7114726
vn 0.41304374 -0.5685084 -0.7114725
vn 0.56851184 -0.41304424 -0.7114694
vn 0.66832393 -0.21715038 -0.71146953
vn 0.6683241 -0.21714975 -0.7114695
vn 0.7027135 4.9913825E-07 -0.7114729
vn 0.7027135 4.0280435E-07 -0.711473
vn 0.6683222 0.21715204 -0.7114705
vn 0.6683225 0.21715125 -0.71147054
vn 0.5685115 0.41304693 -0.7114681
vn 0.5685118 0.4130467 -0.7114681
vn 0.41304687 0.568509 -0.7114702
vn 0.4130469 0.56850886 -0.71147025
vn 0.41304407 -0.5685081 -0.7114726
vn 0.21714942 -0.66832113 -0.71147245
vn 0.41304374 -0.5685084 -0.7114725
vn 0.21714914 -0.6683212 -0.7114724
vn -0 -0.7027163 -0.7114701
vn -0 -0.7027163 -0.7114701
vn -0.21715201 -0.6683236 -0.7114693
vn -0.21715201 -0.6683236 -0.7114693
vn -0.4130499 -0.56850827 -0.711469
vn -0.4130503 -0.5685081 -0.711469
vn -0.4130503 -0.5685081 -0.711469
vn -0.5685153 -0.4130441 -0.7114668
vn -0.4130499 -0.56850827 -0.711469
vn -0.5685152 -0.4130442 -0.7114668
vn -0.668324 -0.21715057 -0.7114694
vn -0.6683237 -0.21715131 -0.7114694
vn -0.70271367 0 -0.7114727
vn -0.70271367 0 -0.7114727
vn -0.6683228 0.21715133 -0.71147025
vn -0.66832256 0.21715221 -0.7114702
vn -0.5685115 0.41304725 -0.711468
vn -0.5685112 0.4130476 -0.711468
vn -0.41304556 0.5685093 -0.7114706
vn -0.4130454 0.56850946 -0.7114706
vn -0.4130454 0.56850946 -0.7114706
vn -0.21714982 0.668321 -0.7114724
vn -0.41304556 0.5685093 -0.7114706
vn -0.21715024 0.66832095 -0.71147233
vn -8.683779E-07 0.70271415 -0.71147233
vn -8.6667853E-07 0.70271415 -0.71147233
vn 0.21715087 0.66832083 -0.7114723
vn 0.21715108 0.66832083 -0.7114723
vn 0.4130469 0.56850886 -0.71147025
vn 0.41304687 0.568509 -0.7114702
vn 0.8090174 -0.5877846 0
vn 0.5877842 -0.8090178 0
vn 0.5877842 -0.8090178 0
vn 0.8090174 -0.5877846 0
vn 0.9510569 -0.3090158 0
vn 0.9510569 -0.3090158 0
vn 1 8.958617E-07 0
vn 1 8.958617E-07 0
vn 0.9510565 0.3090174 0
vn 0.9510565 0.3090174 0
vn 0.8090168 0.58778554 0
vn 0.8090168 0.58778554 0
vn 0.58778596 0.8090164 0
vn 0.58778596 0.8090164 0
vn 0.5877842 -0.8090178 0
vn 0.5877842 -0.8090178 0
vn 0.30901676 -0.95105654 0
vn 0.30901676 -0.95105654 0
vn -0 -1 0
vn -0 -1 0
vn -0.309017 -0.95105654 0
vn -0.309017 -0.95105654 0
vn -0.58778447 -0.8090176 0
vn -0.58778447 -0.8090176 0
vn -0.58778447 -0.8090176 0
vn -0.58778447 -0.8090176 0
vn -0.8090173 -0.58778495 0
vn -0.8090173 -0.58778495 0
vn -0.95105654 -0.30901676 0
vn -0.95105654 -0.30901676 0
vn -1 0 0
vn -1 0 0
vn -0.9510565 0.30901733 0
vn -0.9510565 0.30901733 0
vn -0.80901664 0.5877858 0
vn -0.80901664 0.5877858 0
vn -0.5877858 0.8090166 0
vn -0.5877858 0.8090166 0
vn -0.5877858 0.8090166 0
vn -0.5877858 0.8090166 0
vn -0.30901805 0.95105624 0
vn -0.30901805 0.95105624 0
vn -0 1 0
vn -0 1 0
vn 0.30901805 0.95105624 0
vn 0.30901805 0.95105624 0
vn 0.58778596 0.8090164 0
vn 0.58778596 0.8090164 0
vn -0 0 -1
vn 2.0405763E-07 0 -1
vn -0 0 -1
vn -0 0 -1
vn -0 0 -1
vn 1.3603889E-06 0 -1
vn -0 0 -1
vn 1.3603909E-06 0 -1
vn -0 0 -1
vn 2.7207775E-06 0 -1
vn -0 0 -1
vn 2.7207764E-06 0 -1
vn -0 0 -1
vn -0 0 -1
vn -0 0 -1
vn -2.7207805E-06 0 -1
vn -0 0 -1
vn -1.360391E-06 0 -1
vn -0 0 -1
vn 6.8019295E-07 0 -1
vn -6.801944E-07 0 -1
g Boombox_RadioKnob_01_0
f 3/3/3 2/2/2 1/1/1
f 4/4/4 3/3/3 1/1/1
f 4/4/4 1/1/1 5/5/5
f 6/6/6 4/4/4 5/5/5
f 5/5/5 7/7/7 6/6/6
f 7/7/7 8/8/8 6/6/6
f 8/8/8 7/7/7 9/9/9
f 10/10/10 8/8/8 9/9/9
f 10/10/10 9/9/9 11/11/11
f 12/12/12 10/10/10 11/11/11
f 12/12/12 11/11/11 13/13/13
f 14/14/14 12/12/12 13/13/13
f 17/17/17 16/16/16 15/15/15
f 16/16/16 18/18/18 15/15/15
f 16/16/16 19/19/19 18/18/18
f 19/19/19 20/20/20 18/18/18
f 19/19/19 21/21/21 20/20/20
f 21/21/21 22/22/22 20/20/20
f 21/21/21 23/23/23 22/22/22
f 23/23/23 24/24/24 22/22/22
f 27/27/27 26/26/26 25/25/25
f 26/26/26 28/28/28 25/25/25
f 26/26/26 29/29/29 28/28/28
f 29/29/29 30/30/30 28/28/28
f 29/29/29 31/31/31 30/30/30
f 31/31/31 32/32/32 30/30/30
f 31/31/31 33/33/33 32/32/32
f 33/33/33 34/34/34 32/32/32
f 33/33/33 35/35/35 34/34/34
f 35/35/35 36/36/36 34/34/34
f 35/35/35 37/37/37 36/36/36
f 37/37/37 38/38/38 36/36/36
f 41/41/41 40/40/40 39/39/39
f 40/40/40 42/42/42 39/39/39
f 40/40/40 43/43/43 42/42/42
f 43/43/43 44/44/44 42/42/42
f 43/43/43 45/45/45 44/44/44
f 45/45/45 46/46/46 44/44/44
f 45/45/45 47/47/47 46/46/46
f 47/47/47 48/48/48 46/46/46
f 51/51/51 50/50/50 49/49/49
f 50/50/50 52/52/52 49/49/49
f 49/49/49 52/52/52 53/53/53
f 52/52/52 54/54/54 53/53/53
f 53/53/53 54/54/54 55/55/55
f 54/54/54 56/56/56 55/55/55
f 55/55/55 56/56/56 57/57/57
f 56/56/56 58/58/58 57/57/57
f 57/57/57 58/58/58 59/59/59
f 58/58/58 60/60/60 59/59/59
f 59/59/59 60/60/60 61/61/61
f 60/60/60 62/62/62 61/61/61
f 65/65/65 64/64/64 63/63/63
f 66/66/66 65/65/65 63/63/63
f 67/67/67 65/65/65 66/66/66
f 68/68/68 67/67/67 66/66/66
f 69/69/69 67/67/67 68/68/68
f 70/70/70 69/69/69 68/68/68
f 71/71/71 69/69/69 70/70/70
f 72/72/72 71/71/71 70/70/70
f 75/75/75 74/74/74 73/73/73
f 76/76/76 75/75/75 73/73/73
f 77/77/77 75/75/75 76/76/76
f 78/78/78 77/77/77 76/76/76
f 79/79/79 77/77/77 78/78/78
f 80/80/80 79/79/79 78/78/78
f 81/81/81 79/79/79 80/80/80
f 82/82/82 81/81/81 80/80/80
f 83/83/83 81/81/81 82/82/82
f 84/84/84 83/83/83 82/82/82
f 85/85/85 83/83/83 84/84/84
f 86/86/86 85/85/85 84/84/84
f 89/89/89 88/88/88 87/87/87
f 90/90/90 89/89/89 87/87/87
f 91/91/91 89/89/89 90/90/90
f 92/92/92 91/91/91 90/90/90
f 93/93/93 91/91/91 92/92/92
f 94/94/94 93/93/93 92/92/92
f 95/95/95 93/93/93 94/94/94
f 96/96/96 95/95/95 94/94/94
f 99/99/99 98/98/98 97/97/97
f 97/97/97 98/98/98 100/100/100
f 101/101/101 98/98/98 99/99/99
f 100/100/100 98/98/98 102/102/102
f 103/103/103 98/98/98 101/101/101
f 102/102/102 98/98/98 104/104/104
f 105/105/105 98/98/98 103/103/103
f 104/104/104 98/98/98 106/106/106
f 107/107/107 98/98/98 105/105/105
f 106/106/106 98/98/98 108/108/108
f 109/109/109 98/98/98 107/107/107
f 108/108/108 98/98/98 110/110/110
f 111/111/111 98/98/98 109/109/109
f 110/110/110 98/98/98 112/112/112
f 113/113/113 98/98/98 111/111/111
f 112/112/112 98/98/98 114/114/114
f 115/115/115 98/98/98 113/113/113
f 114/114/114 98/98/98 116/116/116
f 117/117/117 98/98/98 115/115/115
f 116/116/116 98/98/98 117/117/117
