g Painted_Panel_001_Chamber_Gameplay
v -0.7875006 -3.1502154 0.04599655
v -0.79249996 -3.145216 -0.04599655
v -0.79249996 -3.145216 0.04599655
v -0.7875006 -3.1502154 -0.04599655
v 0.78750044 -3.1502154 0.04599655
v 0.78750044 -3.1502154 -0.04599655
v 0.79249996 -3.145216 0.04599655
v 0.79249996 -3.145216 -0.04599655
v 0.78750044 -3.1502154 -0.04599655
v 0.78750044 -3.1502154 0.04599655
v -0.79249996 3.145216 0.04599655
v -0.79249996 3.145216 -0.04599655
v -0.7875006 3.1502154 -0.04599655
v -0.7875006 3.1502154 0.04599655
v 0.78750044 3.1502154 -0.04599655
v 0.78750044 3.1502154 0.04599655
v 0.79249996 3.145216 -0.04599655
v 0.79249996 3.145216 0.04599655
v 0.79249996 -3.145216 0.04599655
v 0.79249996 3.145216 0.04599655
v 0.79249996 3.145216 -0.04599655
v 0.79249996 -3.145216 -0.04599655
v -0.79249996 -3.145216 -0.04599655
v -0.79249996 3.145216 -0.04599655
v -0.79249996 3.145216 0.04599655
v -0.79249996 -3.145216 0.04599655
v -0.79249996 -3.145216 0.04599655
v -0.79249996 3.145216 0.04599655
v -0.7875006 3.145216 0.05099609
v -0.7875006 3.1502154 0.04599655
v -0.7875006 -3.145216 0.05099609
v -0.7875006 -3.1502154 0.04599655
v 0.78750044 -3.1502154 0.04599655
v 0.78750044 3.145216 0.05099609
v 0.78750044 3.1502154 0.04599655
v 0.79249996 3.145216 0.04599655
v 0.78750044 -3.145216 0.05099609
v 0.79249996 -3.145216 0.04599655
v -0.79249996 3.145216 -0.04599655
v -0.79249996 -3.145216 -0.04599655
v -0.7875006 -3.145216 -0.05099609
v -0.7875006 -3.1502154 -0.04599655
v -0.7875006 3.145216 -0.05099609
v -0.7875006 3.1502154 -0.04599655
v 0.78750044 3.1502154 -0.04599655
v 0.78750044 -3.145216 -0.05099609
v 0.78750044 -3.1502154 -0.04599655
v 0.79249996 -3.145216 -0.04599655
v 0.78750044 3.145216 -0.05099609
v 0.79249996 3.145216 -0.04599655
vt 0.51158166 0.890231
vt 0.48842913 0.8914102
vt 0.5118833 0.89141005
vt 0.48872894 0.89023006
vt 0.5116893 0.49466687
vt 0.48857164 0.49457708
vt 0.5119635 0.54588675
vt 0.488508 0.54605263
vt 0.48865253 0.547292
vt 0.5117702 0.5473819
vt 0.4882725 0.8914089
vt 0.5117662 0.8914088
vt 0.5114343 0.89024746
vt 0.4886033 0.89024687
vt 0.51157653 0.494523
vt 0.4884615 0.494523
vt 0.51157653 0.49326676
vt 0.4884615 0.49326676
vt 0.48727423 0.0019920468
vt 0.48727423 0.99642736
vt 0.51226884 0.99642736
vt 0.51226884 0.0019920468
vt 0.4871955 0.0012681782
vt 0.4871955 0.99721766
vt 0.5126231 0.99721766
vt 0.5126231 0.0012681782
vt 0.0008196629 0.0015739158
vt 0.00091315585 0.99819463
vt 0.0023950404 0.9978937
vt 0.0022619204 0.999557
vt 0.0024327426 0.0019973908
vt 0.0023382986 0.0001604695
vt 0.4992062 0.0004874525
vt 0.49936408 0.9979344
vt 0.4996162 0.99920696
vt 0.5008714 0.99816626
vt 0.49930036 0.001961998
vt 0.50098675 0.0017219395
vt 0.9985109 0.9976024
vt 0.99850464 0.001585722
vt 0.9970411 0.0019266605
vt 0.99709445 0.0002593994
vt 0.99704736 0.99726146
vt 0.99714035 0.99893534
vt 0.50143385 0.99871993
vt 0.50170106 0.0019302368
vt 0.5017248 0.00071173906
vt 0.50018746 0.0017193556
vt 0.501809 0.99724287
vt 0.4999717 0.99755895
vn -0.0030517206 -0.9986749 0.051371306
vn -0.9986753 -0.0007658502 -0.051449876
vn -0.9986753 -0.0007658502 0.051449876
vn -0.0030517206 -0.9986749 -0.051371306
vn 0.0030517208 -0.9986749 0.05137131
vn 0.0030517208 -0.9986749 -0.05137131
vn 0.99867517 -0.00076587027 0.05145144
vn 0.99867517 -0.00076587027 -0.05145144
vn 0.0030517208 -0.9986749 -0.05137131
vn 0.0030517208 -0.9986749 0.05137131
vn -0.9986753 0.0007658502 0.051449876
vn -0.9986753 0.0007658502 -0.051449876
vn -0.0030517206 0.9986749 -0.051371306
vn -0.0030517206 0.9986749 0.051371306
vn 0.0030517208 0.9986749 -0.05137131
vn 0.0030517208 0.9986749 0.05137131
vn 0.99867517 0.00076587027 -0.05145144
vn 0.99867517 0.00076587027 0.05145144
vn 0.99867517 -0.00076587027 0.05145144
vn 0.99867517 0.00076587027 0.05145144
vn 0.99867517 0.00076587027 -0.05145144
vn 0.99867517 -0.00076587027 -0.05145144
vn -0.9986753 -0.0007658502 -0.051449876
vn -0.9986753 0.0007658502 -0.051449876
vn -0.9986753 0.0007658502 0.051449876
vn -0.9986753 -0.0007658502 0.051449876
vn -0.9986753 -0.0007658502 0.051449876
vn -0.9986753 0.0007658502 0.051449876
vn -0.0031625812 0.000792476 0.99999475
vn -0.0030517206 0.9986749 0.051371306
vn -0.0031625812 -0.000792476 0.99999475
vn -0.0030517206 -0.9986749 0.051371306
vn 0.0030517208 -0.9986749 0.05137131
vn 0.0031625808 0.00079247594 0.99999475
vn 0.0030517208 0.9986749 0.05137131
vn 0.99867517 0.00076587027 0.05145144
vn 0.0031625808 -0.00079247594 0.99999475
vn 0.99867517 -0.00076587027 0.05145144
vn -0.9986753 0.0007658502 -0.051449876
vn -0.9986753 -0.0007658502 -0.051449876
vn -0.0031625812 -0.000792476 -0.99999475
vn -0.0030517206 -0.9986749 -0.051371306
vn -0.0031625812 0.000792476 -0.99999475
vn -0.0030517206 0.9986749 -0.051371306
vn 0.0030517208 0.9986749 -0.05137131
vn 0.0031625808 -0.00079247594 -0.99999475
vn 0.0030517208 -0.9986749 -0.05137131
vn 0.99867517 -0.00076587027 -0.05145144
vn 0.0031625808 0.00079247594 -0.99999475
vn 0.99867517 0.00076587027 -0.05145144
g Painted_Panel_001_Chamber_Gameplay_0
f 3/3/3 2/2/2 1/1/1
f 2/2/2 4/4/4 1/1/1
f 5/5/5 1/1/1 4/4/4
f 6/6/6 5/5/5 4/4/4
f 9/9/9 8/8/8 7/7/7
f 10/10/10 9/9/9 7/7/7
f 13/13/13 12/12/12 11/11/11
f 14/14/14 13/13/13 11/11/11
f 15/15/15 13/13/13 14/14/14
f 16/16/16 15/15/15 14/14/14
f 17/17/17 15/15/15 16/16/16
f 18/18/18 17/17/17 16/16/16
f 21/21/21 20/20/20 19/19/19
f 22/22/22 21/21/21 19/19/19
f 25/25/25 24/24/24 23/23/23
f 26/26/26 25/25/25 23/23/23
f 29/29/29 28/28/28 27/27/27
f 29/29/29 30/30/30 28/28/28
f 31/31/31 29/29/29 27/27/27
f 31/31/31 27/27/27 32/32/32
f 32/32/32 33/33/33 31/31/31
f 29/29/29 34/34/34 30/30/30
f 34/34/34 29/29/29 31/31/31
f 34/34/34 35/35/35 30/30/30
f 34/34/34 36/36/36 35/35/35
f 33/33/33 37/37/37 31/31/31
f 37/37/37 34/34/34 31/31/31
f 36/36/36 34/34/34 37/37/37
f 37/37/37 33/33/33 38/38/38
f 38/38/38 36/36/36 37/37/37
f 41/41/41 40/40/40 39/39/39
f 41/41/41 42/42/42 40/40/40
f 43/43/43 41/41/41 39/39/39
f 44/44/44 43/43/43 39/39/39
f 44/44/44 45/45/45 43/43/43
f 41/41/41 46/46/46 42/42/42
f 46/46/46 41/41/41 43/43/43
f 46/46/46 47/47/47 42/42/42
f 46/46/46 48/48/48 47/47/47
f 45/45/45 49/49/49 43/43/43
f 49/49/49 46/46/46 43/43/43
f 48/48/48 46/46/46 49/49/49
f 45/45/45 50/50/50 49/49/49
f 50/50/50 48/48/48 49/49/49
