g Toy_Block_Chamber_Gameplay
v -0.062363967 -0.05807415 0.062387392
v -0.06209892 -0.05925123 0.06212235
v -0.062363967 -0.059516285 0.060945258
v -0.06296135 -0.05807415 0.060945258
v -0.06296135 0.05807415 0.060945258
v -0.062363967 0.05807415 0.062387392
v -0.06296135 -0.05807415 -0.060945265
v -0.062363967 -0.059516285 -0.060945265
v -0.062363967 0.059516285 0.060945258
v -0.06209892 0.059251234 0.06212235
v -0.062363967 0.059516285 -0.060945265
v -0.06296135 0.05807415 -0.060945265
v -0.062363967 -0.05807415 -0.062387407
v -0.06209892 -0.05925123 -0.062122352
v -0.062363967 0.05807415 -0.062387407
v -0.06209892 0.059251234 -0.062122352
v -0.062363967 -0.059516285 0.060945258
v -0.06209892 -0.05925123 0.06212235
v -0.06092186 -0.059516285 0.062387392
v -0.06092186 -0.060113635 0.060945258
v -0.062363967 -0.059516285 -0.060945265
v 0.06092186 -0.060113635 0.060945258
v 0.06092186 -0.059516285 0.062387392
v -0.06092186 -0.060113635 -0.060945265
v 0.062363967 -0.059516285 0.060945258
v 0.06209892 -0.05925123 0.06212235
v 0.06092186 -0.060113635 -0.060945265
v 0.062363967 -0.059516285 -0.060945265
v 0.06092186 -0.059516285 -0.062387407
v 0.06209892 -0.05925123 -0.062122352
v -0.06092186 -0.059516285 -0.062387407
v -0.06209892 -0.05925123 -0.062122352
v -0.06092186 -0.059516285 0.062387392
v -0.06209892 -0.05925123 0.06212235
v -0.062363967 -0.05807415 0.062387392
v -0.06092186 -0.05807415 0.06298475
v 0.06092186 -0.059516285 0.062387392
v -0.06092186 0.05807415 0.06298475
v -0.062363967 0.05807415 0.062387392
v 0.06092186 -0.05807415 0.06298475
v -0.06092186 0.059516285 0.062387392
v -0.06209892 0.059251234 0.06212235
v 0.06092186 0.05807415 0.06298475
v 0.06092186 0.059516285 0.062387392
v 0.062363967 0.05807415 0.062387392
v 0.06209892 0.059251234 0.06212235
v 0.062363967 -0.05807415 0.062387392
v 0.06209892 -0.05925123 0.06212235
v -0.06092186 0.059516285 0.062387392
v -0.06209892 0.059251234 0.06212235
v -0.062363967 0.059516285 0.060945258
v -0.06092186 0.06011364 0.060945258
v 0.06092186 0.059516285 0.062387392
v -0.06092186 0.06011364 -0.060945265
v -0.062363967 0.059516285 -0.060945265
v -0.06092186 0.059516285 -0.062387407
v -0.06209892 0.059251234 -0.062122352
v 0.06092186 0.06011364 -0.060945265
v 0.06092186 0.059516285 -0.062387407
v 0.06092186 0.06011364 0.060945258
v 0.062363967 0.059516285 -0.060945265
v 0.06209892 0.059251234 -0.062122352
v 0.062363967 0.059516285 0.060945258
v 0.06209892 0.059251234 0.06212235
v -0.06092186 0.059516285 -0.062387407
v -0.06209892 0.059251234 -0.062122352
v -0.062363967 0.05807415 -0.062387407
v -0.06092186 0.05807415 -0.06298476
v 0.06092186 0.059516285 -0.062387407
v -0.06092186 -0.05807415 -0.06298476
v -0.062363967 -0.05807415 -0.062387407
v -0.06092186 -0.059516285 -0.062387407
v -0.06209892 -0.05925123 -0.062122352
v 0.06092186 -0.05807415 -0.06298476
v 0.06092186 -0.059516285 -0.062387407
v 0.06092186 0.05807415 -0.06298476
v 0.062363967 -0.05807415 -0.062387407
v 0.06209892 -0.05925123 -0.062122352
v 0.062363967 0.05807415 -0.062387407
v 0.06209892 0.059251234 -0.062122352
v 0.062363967 -0.059516285 0.060945258
v 0.06209892 -0.05925123 0.06212235
v 0.062363967 -0.05807415 0.062387392
v 0.06296135 -0.05807415 0.060945258
v 0.062363967 -0.059516285 -0.060945265
v 0.06296135 0.05807415 0.060945258
v 0.062363967 0.05807415 0.062387392
v 0.06296135 -0.05807415 -0.060945265
v 0.062363967 0.059516285 0.060945258
v 0.06209892 0.059251234 0.06212235
v 0.06296135 0.05807415 -0.060945265
v 0.062363967 0.059516285 -0.060945265
v 0.062363967 0.05807415 -0.062387407
v 0.06209892 0.059251234 -0.062122352
v 0.062363967 -0.05807415 -0.062387407
v 0.06209892 -0.05925123 -0.062122352
vt 0.25821313 0.24441208
vt 0.25826174 0.24023354
vt 0.25580695 0.24023351
vt 0.25426075 0.244581
vt 0.25426087 0.4831739
vt 0.25821385 0.4833476
vt 0.015146618 0.24458098
vt 0.013600533 0.24023354
vt 0.25580713 0.4873495
vt 0.2582619 0.48734954
vt 0.013600677 0.48734957
vt 0.015146658 0.4831739
vt 0.0111457305 0.24301982
vt 0.011145715 0.24023357
vt 0.011145771 0.48466122
vt 0.01114589 0.48734957
vt 0.7948052 0.24194357
vt 0.7948052 0.23948881
vt 0.7923116 0.23948881
vt 0.79091555 0.24348983
vt 0.7948052 0.48415038
vt 0.5516177 0.24348971
vt 0.5502009 0.23948881
vt 0.7909154 0.48260328
vt 0.54768914 0.24194357
vt 0.54768914 0.23948887
vt 0.55161756 0.48260388
vt 0.54768914 0.48415014
vt 0.5514707 0.48675713
vt 0.54768914 0.4866049
vt 0.7910674 0.48675582
vt 0.7948052 0.48660502
vt 0.008153152 0.49598476
vt 0.0055313213 0.49652132
vt 0.0049966085 0.4991436
vt 0.0082389815 0.49922937
vt 0.26168746 0.49598682
vt 0.008244048 0.7407468
vt 0.004999529 0.74083525
vt 0.26159912 0.49922925
vt 0.008155774 0.7439892
vt 0.0055351956 0.7434554
vt 0.2616042 0.7407467
vt 0.26169014 0.7439912
vt 0.26484662 0.74083245
vt 0.2643119 0.7434547
vt 0.26484376 0.4991408
vt 0.26430815 0.4965206
vt 0.5506985 0.49612412
vt 0.54696083 0.4962004
vt 0.54696083 0.49865517
vt 0.5508504 0.50020087
vt 0.790295 0.49612424
vt 0.5508504 0.73931533
vt 0.54696083 0.7408616
vt 0.5506985 0.7433924
vt 0.54696083 0.74331635
vt 0.79014814 0.73931533
vt 0.790295 0.743393
vt 0.79014814 0.5002024
vt 0.7940767 0.7408616
vt 0.7940767 0.74331635
vt 0.7940767 0.49865517
vt 0.7940767 0.4962004
vt 0.5292134 0.74382406
vt 0.5318352 0.74328756
vt 0.53237 0.7406653
vt 0.5291275 0.74057955
vt 0.27567905 0.7438221
vt 0.5291225 0.4990621
vt 0.532367 0.49897364
vt 0.52921075 0.49581966
vt 0.5318314 0.49635345
vt 0.27576226 0.4990622
vt 0.27567646 0.4958176
vt 0.27576733 0.74057966
vt 0.27251992 0.49897644
vt 0.2730546 0.49635416
vt 0.2725228 0.7406681
vt 0.27305847 0.7432883
vt 0.28154534 0.23945692
vt 0.27909064 0.23945692
vt 0.2791223 0.24363545
vt 0.2830916 0.24380437
vt 0.5237519 0.23945694
vt 0.2830916 0.48239723
vt 0.27912182 0.48257092
vt 0.5222057 0.24380438
vt 0.28154546 0.48657295
vt 0.2790907 0.48657295
vt 0.52220565 0.48239723
vt 0.5237519 0.48657295
vt 0.5262066 0.4838846
vt 0.5262067 0.48657295
vt 0.52620655 0.24224322
vt 0.5262067 0.23945694
vn -0.7071001 -0.0034073233 0.7071052
vn -0.57736063 -0.57735115 0.5773391
vn -0.707085 -0.707121 0.00324762
vn -0.99997556 -0.0050606164 0.0048239417
vn -0.99997556 0.005060623 0.0048239403
vn -0.70710003 0.0034076076 0.7071052
vn -0.99997556 -0.005060622 -0.0048239403
vn -0.70708483 -0.7071212 -0.0032474138
vn -0.70708424 0.7071218 0.0032473987
vn -0.57734454 0.57737106 0.5773352
vn -0.70708454 0.70712155 -0.0032476126
vn -0.99997556 0.0050606164 -0.0048239427
vn -0.7070993 -0.00340761 -0.707106
vn -0.5773463 -0.57736987 -0.5773346
vn -0.7070993 0.0034073242 -0.707106
vn -0.5773595 0.57735187 -0.57733935
vn -0.707085 -0.707121 0.00324762
vn -0.57736063 -0.57735115 0.5773391
vn -0.0032487263 -0.70710295 0.70710313
vn -0.00482575 -0.99997675 0.0048239105
vn -0.70708483 -0.7071212 -0.0032474138
vn 0.0048257527 -0.99997675 0.0048239133
vn 0.0032486508 -0.7071031 0.7071031
vn -0.004825747 -0.99997675 -0.004823907
vn 0.70710737 -0.70709866 0.0032476145
vn 0.5773474 -0.57737136 0.57733196
vn 0.004825753 -0.99997675 -0.0048239133
vn 0.70710754 -0.70709854 -0.0032476266
vn 0.0032486636 -0.70710266 -0.7071035
vn 0.577351 -0.5773659 -0.5773338
vn -0.003248598 -0.7071025 -0.7071036
vn -0.5773463 -0.57736987 -0.5773346
vn -0.0032487263 -0.70710295 0.70710313
vn -0.57736063 -0.57735115 0.5773391
vn -0.7071001 -0.0034073233 0.7071052
vn -0.0048247967 -0.005059485 0.99997556
vn 0.0032486508 -0.7071031 0.7071031
vn -0.0048247967 0.0050594863 0.99997556
vn -0.70710003 0.0034076076 0.7071052
vn 0.0048247967 -0.005059489 0.99997556
vn -0.0032485805 0.7071039 0.7071021
vn -0.57734454 0.57737106 0.5773352
vn 0.004824796 0.005059489 0.99997556
vn 0.0032486261 0.70710415 0.70710194
vn 0.7071001 0.0034073715 0.7071052
vn 0.5773503 0.5773679 0.5773327
vn 0.70710003 -0.0034074564 0.7071052
vn 0.5773474 -0.57737136 0.57733196
vn -0.0032485805 0.7071039 0.7071021
vn -0.57734454 0.57737106 0.5773352
vn -0.70708424 0.7071218 0.0032473987
vn -0.004825757 0.99997675 0.0048239133
vn 0.0032486261 0.70710415 0.70710194
vn -0.004825761 0.99997675 -0.0048239166
vn -0.70708454 0.70712155 -0.0032476126
vn -0.003248721 0.7071035 -0.70710266
vn -0.5773595 0.57735187 -0.57733935
vn 0.004825764 0.99997675 -0.0048239203
vn 0.0032486818 0.70710355 -0.7071025
vn 0.004825764 0.99997675 0.0048239203
vn 0.7071068 0.7070992 -0.0032475996
vn 0.57734597 0.57737136 -0.5773335
vn 0.70710695 0.7070991 0.003247622
vn 0.5773503 0.5773679 0.5773327
vn -0.003248721 0.7071035 -0.70710266
vn -0.5773595 0.57735187 -0.57733935
vn -0.7070993 0.0034073242 -0.707106
vn -0.0048247627 0.005059465 -0.99997556
vn 0.0032486818 0.70710355 -0.7071025
vn -0.0048247627 -0.005059465 -0.99997556
vn -0.7070993 -0.00340761 -0.707106
vn -0.003248598 -0.7071025 -0.7071036
vn -0.5773463 -0.57736987 -0.5773346
vn 0.0048247627 -0.005059468 -0.99997556
vn 0.0032486636 -0.70710266 -0.7071035
vn 0.004824763 0.0050594686 -0.99997556
vn 0.7070993 -0.0034073957 -0.707106
vn 0.577351 -0.5773659 -0.5773338
vn 0.7070993 0.003407477 -0.707106
vn 0.57734597 0.57737136 -0.5773335
vn 0.70710737 -0.70709866 0.0032476145
vn 0.5773474 -0.57737136 0.57733196
vn 0.70710003 -0.0034074564 0.7071052
vn 0.99997556 -0.005060615 0.0048239403
vn 0.70710754 -0.70709854 -0.0032476266
vn 0.99997556 0.0050606136 0.0048239417
vn 0.7071001 0.0034073715 0.7071052
vn 0.99997556 -0.0050606136 -0.0048239417
vn 0.70710695 0.7070991 0.003247622
vn 0.5773503 0.5773679 0.5773327
vn 0.99997556 0.005060615 -0.0048239417
vn 0.7071068 0.7070992 -0.0032475996
vn 0.7070993 0.003407477 -0.707106
vn 0.57734597 0.57737136 -0.5773335
vn 0.7070993 -0.0034073957 -0.707106
vn 0.577351 -0.5773659 -0.5773338
g Toy_Block_Chamber_Gameplay_0
f 3/3/3 2/2/2 1/1/1
f 4/4/4 3/3/3 1/1/1
f 5/5/5 4/4/4 1/1/1
f 6/6/6 5/5/5 1/1/1
f 4/4/4 7/7/7 3/3/3
f 7/7/7 8/8/8 3/3/3
f 5/5/5 6/6/6 9/9/9
f 6/6/6 10/10/10 9/9/9
f 9/9/9 11/11/11 5/5/5
f 5/5/5 12/12/12 4/4/4
f 12/12/12 7/7/7 4/4/4
f 11/11/11 12/12/12 5/5/5
f 7/7/7 13/13/13 8/8/8
f 13/13/13 7/7/7 12/12/12
f 13/13/13 14/14/14 8/8/8
f 15/15/15 13/13/13 12/12/12
f 12/12/12 11/11/11 15/15/15
f 11/11/11 16/16/16 15/15/15
f 19/19/19 18/18/18 17/17/17
f 20/20/20 19/19/19 17/17/17
f 17/17/17 21/21/21 20/20/20
f 19/19/19 20/20/20 22/22/22
f 23/23/23 19/19/19 22/22/22
f 21/21/21 24/24/24 20/20/20
f 20/20/20 24/24/24 22/22/22
f 22/22/22 25/25/25 23/23/23
f 25/25/25 26/26/26 23/23/23
f 22/22/22 27/27/27 25/25/25
f 24/24/24 27/27/27 22/22/22
f 27/27/27 28/28/28 25/25/25
f 27/27/27 29/29/29 28/28/28
f 29/29/29 27/27/27 24/24/24
f 29/29/29 30/30/30 28/28/28
f 31/31/31 29/29/29 24/24/24
f 24/24/24 21/21/21 31/31/31
f 21/21/21 32/32/32 31/31/31
f 35/35/35 34/34/34 33/33/33
f 36/36/36 35/35/35 33/33/33
f 36/36/36 33/33/33 37/37/37
f 35/35/35 36/36/36 38/38/38
f 39/39/39 35/35/35 38/38/38
f 40/40/40 36/36/36 37/37/37
f 38/38/38 36/36/36 40/40/40
f 38/38/38 41/41/41 39/39/39
f 41/41/41 42/42/42 39/39/39
f 38/38/38 43/43/43 41/41/41
f 43/43/43 38/38/38 40/40/40
f 43/43/43 44/44/44 41/41/41
f 43/43/43 45/45/45 44/44/44
f 43/43/43 40/40/40 45/45/45
f 45/45/45 46/46/46 44/44/44
f 40/40/40 47/47/47 45/45/45
f 40/40/40 37/37/37 47/47/47
f 37/37/37 48/48/48 47/47/47
f 51/51/51 50/50/50 49/49/49
f 52/52/52 51/51/51 49/49/49
f 49/49/49 53/53/53 52/52/52
f 52/52/52 54/54/54 51/51/51
f 54/54/54 55/55/55 51/51/51
f 54/54/54 56/56/56 55/55/55
f 56/56/56 57/57/57 55/55/55
f 56/56/56 54/54/54 58/58/58
f 54/54/54 52/52/52 58/58/58
f 59/59/59 56/56/56 58/58/58
f 53/53/53 60/60/60 52/52/52
f 52/52/52 60/60/60 58/58/58
f 58/58/58 61/61/61 59/59/59
f 61/61/61 58/58/58 60/60/60
f 61/61/61 62/62/62 59/59/59
f 63/63/63 61/61/61 60/60/60
f 60/60/60 53/53/53 63/63/63
f 53/53/53 64/64/64 63/63/63
f 67/67/67 66/66/66 65/65/65
f 68/68/68 67/67/67 65/65/65
f 68/68/68 65/65/65 69/69/69
f 68/68/68 70/70/70 67/67/67
f 70/70/70 71/71/71 67/67/67
f 70/70/70 72/72/72 71/71/71
f 72/72/72 73/73/73 71/71/71
f 70/70/70 74/74/74 72/72/72
f 74/74/74 70/70/70 68/68/68
f 74/74/74 75/75/75 72/72/72
f 76/76/76 68/68/68 69/69/69
f 76/76/76 74/74/74 68/68/68
f 74/74/74 77/77/77 75/75/75
f 77/77/77 74/74/74 76/76/76
f 77/77/77 78/78/78 75/75/75
f 79/79/79 77/77/77 76/76/76
f 76/76/76 69/69/69 79/79/79
f 69/69/69 80/80/80 79/79/79
f 83/83/83 82/82/82 81/81/81
f 84/84/84 83/83/83 81/81/81
f 81/81/81 85/85/85 84/84/84
f 83/83/83 84/84/84 86/86/86
f 87/87/87 83/83/83 86/86/86
f 85/85/85 88/88/88 84/84/84
f 86/86/86 84/84/84 88/88/88
f 86/86/86 89/89/89 87/87/87
f 89/89/89 90/90/90 87/87/87
f 86/86/86 91/91/91 89/89/89
f 91/91/91 86/86/86 88/88/88
f 91/91/91 92/92/92 89/89/89
f 91/91/91 93/93/93 92/92/92
f 91/91/91 88/88/88 93/93/93
f 93/93/93 94/94/94 92/92/92
f 88/88/88 95/95/95 93/93/93
f 88/88/88 85/85/85 95/95/95
f 85/85/85 96/96/96 95/95/95
