g SIgnage_002_Back_Prop
v -0.5405566 -0.36467102 0.008287897
v -0.5216777 -0.38206095 0.008287897
v -0.5335001 -0.37696457 0.008287897
v -0.5216777 -0.36467102 0.008287897
v -0.5405566 0.36512804 0.008287897
v 0.5197043 -0.38206095 0.00828789
v -0.5216777 0.36826432 0.008287897
v -0.53663635 0.37657255 0.008287897
v -0.5216777 0.38206095 0.008287897
v 0.5197042 0.36826435 0.008287898
v 0.5197042 0.38206095 0.008287898
v 0.5197043 -0.36467102 0.00828789
v 0.5405566 0.3666962 0.008287897
v 0.5350682 0.3785327 0.008287897
v 0.5405566 -0.36467102 0.00828789
v 0.5338921 -0.37735665 0.00828789
v -0.5405566 -0.36467102 0.008287897
v -0.5335001 -0.37696457 0.008287897
v -0.5335001 -0.37696457 -2.2351741E-10
v -0.5405566 -0.36467102 -2.1843058E-10
v -0.5405566 0.36512804 0.008287897
v -0.5405566 0.36512804 -4.035732E-12
v -0.53663635 0.37657255 0.008287897
v -0.53663635 0.37657255 0
v -0.5335001 -0.37696457 0.008287897
v -0.5216777 -0.38206095 -2.1961424E-10
v -0.5335001 -0.37696457 -2.2351741E-10
v -0.5216777 -0.38206095 0.008287897
v 0.5197043 -0.382061 -4.3111747E-12
v 0.5197043 -0.38206095 0.00828789
v 0.5338921 -0.37735665 0
v 0.5338921 -0.37735665 0.00828789
v 0.5338921 -0.37735665 0.00828789
v 0.5405566 -0.36467105 0
v 0.5338921 -0.37735665 0
v 0.5405566 -0.36467102 0.00828789
v 0.5405566 0.3666962 0
v 0.5405566 0.3666962 0.008287897
v 0.5350682 0.3785327 0
v 0.5350682 0.3785327 0.008287897
v -0.5216777 0.38206095 0.008287897
v -0.53663635 0.37657255 0.008287897
v -0.53663635 0.37657255 0
v -0.5216777 0.38206095 0
v 0.5197042 0.38206095 0.008287898
v 0.5197042 0.38206095 0
v 0.5350682 0.3785327 0.008287897
v 0.5350682 0.3785327 0
v 0.5197042 0.38206095 0
v 0.5350682 0.3785327 0
v 0.5405566 0.3666962 0
v 0.5197043 0.36826435 -7.784067E-14
v -0.5216777 0.38206095 0
v 0.5197043 -0.36467105 -4.2130605E-12
v 0.5405566 -0.36467105 0
v -0.5216777 0.36826432 -3.9652574E-12
v -0.53663635 0.37657255 0
v -0.5405566 0.36512804 -4.035732E-12
v -0.5405566 -0.36467102 -2.1843058E-10
v -0.5216777 -0.36467102 -2.1461623E-10
v -0.5335001 -0.37696457 -2.2351741E-10
v -0.5216777 -0.38206095 -2.1961424E-10
v 0.5197043 -0.382061 -4.3111747E-12
v 0.5338921 -0.37735665 0
vt 0.54404217 0.6669893
vt 0.5479083 0.6637205
vt 0.5454872 0.6646785
vt 0.54790825 0.66698927
vt 0.5440422 0.804171
vt 0.7611687 0.66372055
vt 0.5479083 0.8047606
vt 0.54484504 0.8063222
vt 0.5479083 0.8073539
vt 0.7611688 0.80476063
vt 0.7611688 0.807354
vt 0.7611687 0.6669894
vt 0.76543903 0.8044658
vt 0.76431507 0.8066907
vt 0.76543903 0.6669893
vt 0.7640742 0.66460484
vt 0.72170323 0.6958135
vt 0.72170603 0.6958086
vt 0.72170603 0.6958086
vt 0.72170323 0.6958135
vt 0.72170323 0.6961043
vt 0.72170323 0.6961043
vt 0.7217048 0.6961088
vt 0.72170484 0.6961088
vt 0.72170603 0.6958086
vt 0.72171074 0.69580656
vt 0.72170603 0.6958086
vt 0.72171074 0.69580656
vt 0.72212565 0.6958066
vt 0.72212565 0.6958066
vt 0.72213125 0.6958084
vt 0.72213125 0.6958084
vt 0.72213125 0.6958084
vt 0.72213393 0.6958135
vt 0.72213125 0.6958084
vt 0.72213393 0.6958135
vt 0.72213393 0.69610494
vt 0.72213393 0.69610494
vt 0.7221317 0.69610965
vt 0.7221317 0.69610965
vt 0.72171074 0.696111
vt 0.7217048 0.6961088
vt 0.72170484 0.6961088
vt 0.72171074 0.696111
vt 0.72212565 0.696111
vt 0.72212565 0.696111
vt 0.7221317 0.69610965
vt 0.7221317 0.69610965
vt 0.72212565 0.696111
vt 0.7221317 0.69610965
vt 0.72213393 0.69610494
vt 0.72212565 0.69610554
vt 0.72171074 0.696111
vt 0.72212565 0.69581354
vt 0.72213393 0.6958135
vt 0.72171074 0.69610554
vt 0.72170484 0.6961088
vt 0.72170323 0.6961043
vt 0.72170323 0.6958135
vt 0.72171074 0.6958135
vt 0.72170603 0.6958086
vt 0.72171074 0.69580656
vt 0.72212565 0.6958066
vt 0.72213125 0.6958084
vn -0 0 1
vn -0 0 1
vn -0 0 1
vn -0 0 1
vn -0 0 1
vn -0 0 1
vn -0 0 1
vn -0 0 1
vn -0 0 1
vn -0 0 1
vn -0 0 1
vn -0 0 1
vn -0 0 1
vn -0 0 1
vn -0 0 1
vn -0 0 1
vn -0.9999548 -0.009508547 0
vn -0.67750543 -0.73551774 0
vn -0.67750543 -0.73551774 0
vn -0.9999548 -0.009508547 0
vn -0.99998605 0.0052887215 0
vn -0.99998605 0.0052887215 0
vn -0.6676964 0.74443376 0
vn -0.6676964 0.74443376 0
vn -0.67750543 -0.73551774 0
vn -0.004838908 -0.9999883 5.593816E-06
vn -0.67750543 -0.73551774 0
vn -0.004838908 -0.9999883 5.593816E-06
vn 0.004456616 -0.9999901 5.624895E-06
vn 0.0044566244 -0.9999901 5.624895E-06
vn 0.6404662 -0.7679864 2.5427596E-06
vn 0.6404662 -0.7679864 2.5427596E-06
vn 0.6404662 -0.7679864 2.5427596E-06
vn 0.99995995 -0.008956686 0
vn 0.6404662 -0.7679864 2.5427596E-06
vn 0.99995995 -0.008956588 0
vn 0.9999728 0.007384646 0
vn 0.9999728 0.007384646 0
vn 0.5931949 0.8050589 0
vn 0.5931949 0.8050589 0
vn -0.005195598 0.9999865 0
vn -0.6676964 0.74443376 0
vn -0.6676964 0.74443376 0
vn -0.005195598 0.9999865 0
vn 0.0033387733 0.9999944 0
vn 0.0033387735 0.9999944 0
vn 0.5931949 0.8050589 0
vn 0.5931949 0.8050589 0
vn -0 0 1
vn -0 0 1
vn -0 0 1
vn -0 0 1
vn -0 0 1
vn -0 0 1
vn -0 0 1
vn -0 0 1
vn -0 0 1
vn -0 0 1
vn -0 0 1
vn -0 0 1
vn -0 0 1
vn -0 0 1
vn -0 0 1
vn -0 0 1
g SIgnage_002_Back_Prop_0
f 3/3/3 2/2/2 1/1/1
f 2/2/2 4/4/4 1/1/1
f 1/1/1 4/4/4 5/5/5
f 4/4/4 2/2/2 6/6/6
f 4/4/4 7/7/7 5/5/5
f 5/5/5 7/7/7 8/8/8
f 7/7/7 9/9/9 8/8/8
f 7/7/7 10/10/10 9/9/9
f 10/10/10 7/7/7 4/4/4
f 10/10/10 11/11/11 9/9/9
f 12/12/12 4/4/4 6/6/6
f 12/12/12 10/10/10 4/4/4
f 10/10/10 13/13/13 11/11/11
f 10/10/10 12/12/12 13/13/13
f 13/13/13 14/14/14 11/11/11
f 12/12/12 15/15/15 13/13/13
f 12/12/12 6/6/6 15/15/15
f 6/6/6 16/16/16 15/15/15
f 19/19/19 18/18/18 17/17/17
f 20/20/20 19/19/19 17/17/17
f 20/20/20 17/17/17 21/21/21
f 22/22/22 20/20/20 21/21/21
f 22/22/22 21/21/21 23/23/23
f 24/24/24 22/22/22 23/23/23
f 27/27/27 26/26/26 25/25/25
f 26/26/26 28/28/28 25/25/25
f 26/26/26 29/29/29 28/28/28
f 29/29/29 30/30/30 28/28/28
f 29/29/29 31/31/31 30/30/30
f 31/31/31 32/32/32 30/30/30
f 35/35/35 34/34/34 33/33/33
f 34/34/34 36/36/36 33/33/33
f 34/34/34 37/37/37 36/36/36
f 37/37/37 38/38/38 36/36/36
f 37/37/37 39/39/39 38/38/38
f 39/39/39 40/40/40 38/38/38
f 43/43/43 42/42/42 41/41/41
f 44/44/44 43/43/43 41/41/41
f 44/44/44 41/41/41 45/45/45
f 46/46/46 44/44/44 45/45/45
f 46/46/46 45/45/45 47/47/47
f 48/48/48 46/46/46 47/47/47
f 51/51/51 50/50/50 49/49/49
f 52/52/52 51/51/51 49/49/49
f 52/52/52 49/49/49 53/53/53
f 52/52/52 54/54/54 51/51/51
f 54/54/54 55/55/55 51/51/51
f 56/56/56 52/52/52 53/53/53
f 56/56/56 53/53/53 57/57/57
f 58/58/58 56/56/56 57/57/57
f 58/58/58 59/59/59 56/56/56
f 56/56/56 60/60/60 52/52/52
f 59/59/59 60/60/60 56/56/56
f 60/60/60 54/54/54 52/52/52
f 59/59/59 61/61/61 60/60/60
f 61/61/61 62/62/62 60/60/60
f 60/60/60 62/62/62 54/54/54
f 62/62/62 63/63/63 54/54/54
f 54/54/54 63/63/63 55/55/55
f 63/63/63 64/64/64 55/55/55
