g Signage_002_Common_Prop
v 0.11057384 0.1849917 0.0067851637
v 0.11678423 0.18129867 0.0067851637
v 0.12035808 0.1752592 0.0067851637
v 0.11057384 0.1752592 0.0067851637
v -0.111087434 0.18499173 0.0067851637
v 0.11057389 -0.17559624 0.006785202
v 0.120358095 -0.17559624 0.006785202
v -0.111087434 0.17525926 0.0067851637
v -0.11672466 0.18183483 0.0067851637
v -0.12035808 0.17525926 0.0067851637
v -0.111087434 -0.17559624 0.006785202
v -0.12035808 -0.17559624 0.006785202
v 0.11057389 -0.18499176 0.006785202
v 0.11649701 -0.18200257 0.006785202
v -0.111087434 -0.18499173 0.006785202
v -0.11736891 -0.18125527 0.006785202
v 0.11057384 0.18499167 0
v 0.12035808 0.1752592 0
v 0.11678423 0.18129867 0
v 0.11057384 0.1752592 0
v -0.111087434 0.18499172 0
v 0.11057389 -0.17559624 0
v 0.120358095 -0.17559624 0
v -0.111087434 0.17525926 0
v -0.11672466 0.18183485 0
v -0.12035808 0.17525926 0
v -0.111087434 -0.17559624 0
v -0.12035808 -0.17559624 0
v 0.11057389 -0.18499176 0
v 0.11649701 -0.18200257 0
v -0.111087434 -0.18499173 0
v -0.11736891 -0.18125527 0
v 0.12035808 0.1752592 0
v 0.11678423 0.18129867 0.0067851637
v 0.11678423 0.18129867 0
v 0.12035808 0.1752592 0.0067851637
v 0.120358095 -0.17559624 0
v 0.120358095 -0.17559624 0.006785202
v 0.11649701 -0.18200257 0
v 0.11649701 -0.18200257 0.006785202
v 0.11678423 0.18129867 0
v 0.11678423 0.18129867 0.0067851637
v 0.11057384 0.1849917 0.0067851637
v 0.11057384 0.18499167 0
v -0.111087434 0.18499173 0.0067851637
v -0.111087434 0.18499172 0
v -0.11672466 0.18183483 0.0067851637
v -0.11672466 0.18183485 0
v -0.11672466 0.18183485 0
v -0.11672466 0.18183483 0.0067851637
v -0.12035808 0.17525926 0.0067851637
v -0.12035808 0.17525926 0
v -0.12035808 -0.17559624 0.006785202
v -0.12035808 -0.17559624 0
v -0.11736891 -0.18125527 0.006785202
v -0.11736891 -0.18125527 0
v -0.111087434 -0.18499173 0.006785202
v -0.111087434 -0.18499173 0
v 0.11057389 -0.18499176 0.006785202
v 0.11057389 -0.18499176 0
v 0.11649701 -0.18200257 0.006785202
v 0.11649701 -0.18200257 0
vt 0.3588423 0.91696185
vt 0.36346895 0.9142104
vt 0.36613172 0.909711
vt 0.3588423 0.909711
vt 0.19370066 0.91696185
vt 0.35884228 0.64831734
vt 0.3661317 0.64831734
vt 0.19370066 0.909711
vt 0.18950099 0.9146097
vt 0.18679385 0.909711
vt 0.19370067 0.64831734
vt 0.18679386 0.64831734
vt 0.35884228 0.64131755
vt 0.36325502 0.6435448
vt 0.19370067 0.64131755
vt 0.18902113 0.64410144
vt 0.2355009 0.7200307
vt 0.2355349 0.7200645
vt 0.23552248 0.72004354
vt 0.2355009 0.7200645
vt 0.23473097 0.7200307
vt 0.2355009 0.7212832
vt 0.2355349 0.7212832
vt 0.23473097 0.7200645
vt 0.2347114 0.7200417
vt 0.23469877 0.7200645
vt 0.23473097 0.7212832
vt 0.23469877 0.7212832
vt 0.2355009 0.7213158
vt 0.2355215 0.72130543
vt 0.23473097 0.7213158
vt 0.23470914 0.72130287
vt 0.23554322 0.7200517
vt 0.23556018 0.7200307
vt 0.23554322 0.7200307
vt 0.23556018 0.7200517
vt 0.23554322 0.7212704
vt 0.23556018 0.7212704
vt 0.23554322 0.7212926
vt 0.23556018 0.7212926
vt 0.23563588 0.7200307
vt 0.23561892 0.7200307
vt 0.23561892 0.72005224
vt 0.23563588 0.72005224
vt 0.23561892 0.7208222
vt 0.23563588 0.7208222
vt 0.23561892 0.72084177
vt 0.23563588 0.72084177
vt 0.23556846 0.7212919
vt 0.23558539 0.7212919
vt 0.23558539 0.721269
vt 0.23556846 0.721269
vt 0.23558539 0.72005033
vt 0.23556846 0.72005033
vt 0.23558539 0.7200307
vt 0.23556846 0.7200307
vt 0.23561066 0.72082126
vt 0.23559368 0.72082126
vt 0.23561066 0.7200513
vt 0.23559368 0.7200513
vt 0.23561066 0.7200307
vt 0.23559368 0.7200307
vn -0 0 1
vn -0 0 1
vn -0 1.0749076E-07 1
vn -0 1.0583601E-07 1
vn -0 0 1
vn -0 1.05931605E-07 1
vn -0 1.0751245E-07 1
vn -0 1.0583211E-07 1
vn -0 0 1
vn -0 1.074276E-07 1
vn -0 1.05929914E-07 1
vn -0 1.0745387E-07 1
vn -0 0 1
vn -0 0 1
vn -0 0 1
vn -0 0 1
vn -0 0 -1
vn -0 0 -1
vn -0 0 -1
vn -0 0 -1
vn -0 0 -1
vn -0 0 -1
vn -0 0 -1
vn -0 0 -1
vn -0 0 -1
vn -0 0 -1
vn -0 0 -1
vn -0 0 -1
vn -0 0 -1
vn -0 0 -1
vn -0 0 -1
vn -0 0 -1
vn 0.99994993 0.010013269 0
vn 0.7052289 0.7089796 0
vn 0.7052289 0.7089796 0
vn 0.99994993 0.010013267 0
vn 0.9999416 -0.0108068 0
vn 0.9999416 -0.0108068 0
vn 0.69263494 -0.72128826 0
vn 0.69263494 -0.72128826 0
vn 0.7052289 0.7089796 0
vn 0.7052289 0.7089796 0
vn 0.016204594 0.99986875 -1.9735241E-06
vn 0.01620462 0.99986875 -1.973524E-06
vn -0.013887225 0.99990356 -1.9785693E-06
vn -0.013887251 0.99990356 -1.9785693E-06
vn -0.72407746 0.68971866 0
vn -0.7240769 0.68971926 0
vn -0.7240769 0.68971926 0
vn -0.72407746 0.68971866 0
vn -0.9999484 0.010164834 0
vn -0.9999484 0.010164834 0
vn -0.99996483 -0.0083841765 0
vn -0.99996483 -0.0083841765 0
vn -0.7118206 -0.7023612 0
vn -0.7118206 -0.7023612 0
vn -0.01639005 -0.99986565 0
vn -0.01639005 -0.99986565 0
vn 0.013133152 -0.9999138 0
vn 0.013133152 -0.9999138 0
vn 0.69263494 -0.72128826 0
vn 0.69263494 -0.72128826 0
g Signage_002_Common_Prop_0
f 3/3/3 2/2/2 1/1/1
f 4/4/4 3/3/3 1/1/1
f 4/4/4 1/1/1 5/5/5
f 4/4/4 6/6/6 3/3/3
f 6/6/6 7/7/7 3/3/3
f 8/8/8 4/4/4 5/5/5
f 4/4/4 8/8/8 6/6/6
f 8/8/8 5/5/5 9/9/9
f 10/10/10 8/8/8 9/9/9
f 11/11/11 8/8/8 10/10/10
f 8/8/8 11/11/11 6/6/6
f 12/12/12 11/11/11 10/10/10
f 6/6/6 13/13/13 7/7/7
f 6/6/6 11/11/11 13/13/13
f 13/13/13 14/14/14 7/7/7
f 11/11/11 15/15/15 13/13/13
f 15/15/15 11/11/11 12/12/12
f 16/16/16 15/15/15 12/12/12
f 19/19/19 18/18/18 17/17/17
f 18/18/18 20/20/20 17/17/17
f 17/17/17 20/20/20 21/21/21
f 22/22/22 20/20/20 18/18/18
f 23/23/23 22/22/22 18/18/18
f 20/20/20 24/24/24 21/21/21
f 24/24/24 20/20/20 22/22/22
f 21/21/21 24/24/24 25/25/25
f 24/24/24 26/26/26 25/25/25
f 24/24/24 27/27/27 26/26/26
f 27/27/27 24/24/24 22/22/22
f 27/27/27 28/28/28 26/26/26
f 29/29/29 22/22/22 23/23/23
f 27/27/27 22/22/22 29/29/29
f 30/30/30 29/29/29 23/23/23
f 31/31/31 27/27/27 29/29/29
f 27/27/27 31/31/31 28/28/28
f 31/31/31 32/32/32 28/28/28
f 35/35/35 34/34/34 33/33/33
f 34/34/34 36/36/36 33/33/33
f 33/33/33 36/36/36 37/37/37
f 36/36/36 38/38/38 37/37/37
f 37/37/37 38/38/38 39/39/39
f 38/38/38 40/40/40 39/39/39
f 43/43/43 42/42/42 41/41/41
f 44/44/44 43/43/43 41/41/41
f 45/45/45 43/43/43 44/44/44
f 46/46/46 45/45/45 44/44/44
f 47/47/47 45/45/45 46/46/46
f 48/48/48 47/47/47 46/46/46
f 51/51/51 50/50/50 49/49/49
f 52/52/52 51/51/51 49/49/49
f 53/53/53 51/51/51 52/52/52
f 54/54/54 53/53/53 52/52/52
f 55/55/55 53/53/53 54/54/54
f 56/56/56 55/55/55 54/54/54
f 57/57/57 55/55/55 56/56/56
f 58/58/58 57/57/57 56/56/56
f 59/59/59 57/57/57 58/58/58
f 60/60/60 59/59/59 58/58/58
f 61/61/61 59/59/59 60/60/60
f 62/62/62 61/61/61 60/60/60
