g Signage_003_Common_Prop
v 0.110888444 0.18491967 0.0067851637
v 0.11684418 0.18164499 0.0067851637
v 0.120357074 0.17506342 0.0067851637
v 0.110888444 0.17506342 0.0067851637
v -0.11001648 0.18491967 0.0067851637
v 0.120357074 -0.17564511 0.0067851637
v -0.11001648 0.17506336 0.0067851637
v -0.11649742 0.18106015 0.0067851637
v -0.12035694 0.17506336 0.0067851637
v 0.110888444 -0.17564511 0.0067851637
v 0.1172446 -0.18155819 0.0067851637
v 0.110888444 -0.18491971 0.0067851637
v -0.11001648 -0.17564511 0.0067851637
v -0.12035705 -0.17564511 0.0067851637
v -0.11001648 -0.18491971 0.0067851637
v -0.11612392 -0.18168268 0.0067851637
v 0.110888444 -0.1849197 0
v 0.110888444 -0.18491971 0.0067851637
v 0.1172446 -0.18155819 0.0067851637
v 0.1172446 -0.18155816 0
v 0.1172446 -0.18155816 0
v 0.1172446 -0.18155819 0.0067851637
v 0.120357074 -0.17564511 0.0067851637
v 0.120357074 -0.17564514 0
v 0.120357074 0.17506342 0
v 0.11684418 0.18164499 0.0067851637
v 0.11684418 0.18164498 0
v 0.120357074 0.17506342 0.0067851637
v 0.120357074 -0.17564514 0
v 0.120357074 -0.17564511 0.0067851637
v 0.11684418 0.18164498 0
v 0.11684418 0.18164499 0.0067851637
v 0.110888444 0.18491967 0.0067851637
v 0.110888444 0.1849197 0
v -0.11001648 0.18491967 0.0067851637
v -0.11001648 0.1849197 0
v -0.11649742 0.18106015 0.0067851637
v -0.11649742 0.18106014 0
v -0.11001648 -0.1849197 0
v 0.110888444 -0.18491971 0.0067851637
v 0.110888444 -0.1849197 0
v -0.11001648 -0.18491971 0.0067851637
v -0.11612392 -0.18168268 0
v -0.11612392 -0.18168268 0.0067851637
v -0.11649742 0.18106014 0
v -0.11649742 0.18106015 0.0067851637
v -0.12035694 0.17506336 0.0067851637
v -0.12035694 0.17506336 0
v -0.12035705 -0.17564511 0.0067851637
v -0.12035705 -0.17564514 0
v -0.11612392 -0.18168268 0.0067851637
v -0.11612392 -0.18168268 0
vt 0.17440544 0.91696185
vt 0.17884406 0.9145209
vt 0.18146248 0.9096159
vt 0.17440544 0.9096159
vt 0.0097631905 0.91696185
vt 0.1814625 0.64822996
vt 0.009763193 0.9096159
vt 0.0049335333 0.9140846
vt 0.0020563062 0.9096159
vt 0.17440546 0.64822996
vt 0.17914245 0.64382315
vt 0.17440546 0.64131755
vt 0.009763193 0.64822996
vt 0.0020563062 0.64822996
vt 0.009763194 0.64131755
vt 0.0052113463 0.64373034
vt 0.14468218 0.7065303
vt 0.14477253 0.7065303
vt 0.14477253 0.7064126
vt 0.14468218 0.7064126
vt 0.14441822 0.7131366
vt 0.14450857 0.7131366
vt 0.14450857 0.7130271
vt 0.14441822 0.7130271
vt 0.14441822 0.70653445
vt 0.14450857 0.7064126
vt 0.14441822 0.7064126
vt 0.14450857 0.70653445
vt 0.14441822 0.7130271
vt 0.14450857 0.7130271
vt 0.1449039 0.7064126
vt 0.14481357 0.7064126
vt 0.14481357 0.7065229
vt 0.1449039 0.7065229
vt 0.14481357 0.7106125
vt 0.1449039 0.7106125
vt 0.14481357 0.71073246
vt 0.1449039 0.71073246
vt 0.14468218 0.7106199
vt 0.14477253 0.7065303
vt 0.14468218 0.7065303
vt 0.14477253 0.7106199
vt 0.14468218 0.710733
vt 0.14477253 0.710733
vt 0.1445508 0.7131281
vt 0.14464113 0.7131281
vt 0.14464113 0.71301705
vt 0.1445508 0.71301705
vt 0.14464113 0.7065244
vt 0.1445508 0.7065244
vt 0.14464113 0.7064126
vt 0.1445508 0.7064126
vn -0 0 1
vn -0 0 1
vn -0 0 1
vn -0 0 1
vn -0 0 1
vn -0 0 1
vn -0 0 1
vn -0 0 1
vn -0 0 1
vn -0 0 1
vn -0 0 1
vn -0 0 1
vn -0 0 1
vn -0 0 1
vn -0 0 1
vn -0 0 1
vn 0.46750757 -0.88398904 0
vn 0.46750757 -0.88398904 0
vn 0.46750757 -0.88398904 0
vn 0.46750757 -0.88398904 0
vn 0.88489753 -0.46578577 0
vn 0.88489753 -0.46578577 0
vn 0.88489753 -0.46578577 0
vn 0.88489753 -0.46578577 0
vn 0.9999517 0.009831577 0
vn 0.7211454 0.6927837 -5.1418516E-07
vn 0.7211458 0.6927833 -5.1418635E-07
vn 0.9999517 0.009831577 0
vn 1 0 0
vn 1 0 0
vn 0.7211458 0.6927833 -5.1418635E-07
vn 0.7211454 0.6927837 -5.1418516E-07
vn 0.014433395 0.9998958 3.9647457E-06
vn 0.014433369 0.9998958 3.9647457E-06
vn -0.016971098 0.999856 3.95543E-06
vn -0.016971067 0.999856 3.95543E-06
vn -0.6899582 0.7238491 0
vn -0.68995863 0.72384876 0
vn -0.014257819 -0.9998983 -1.9810527E-06
vn -0 -1 -2.0360308E-06
vn -0 -1 -2.0360308E-06
vn -0.014257797 -0.9998983 -1.9810527E-06
vn -0.66769314 -0.7444366 0
vn -0.66769314 -0.7444366 0
vn -0.68995863 0.72384876 0
vn -0.6899582 0.7238491 0
vn -0.99994147 0.01081961 0
vn -0.99994147 0.01081961 0
vn -0.99992967 -0.01186478 0
vn -0.99992967 -0.011864856 0
vn -0.66769314 -0.7444366 0
vn -0.66769314 -0.7444366 0
g Signage_003_Common_Prop_0
f 3/3/3 2/2/2 1/1/1
f 4/4/4 3/3/3 1/1/1
f 4/4/4 1/1/1 5/5/5
f 6/6/6 3/3/3 4/4/4
f 7/7/7 4/4/4 5/5/5
f 7/7/7 5/5/5 8/8/8
f 9/9/9 7/7/7 8/8/8
f 10/10/10 6/6/6 4/4/4
f 10/10/10 4/4/4 7/7/7
f 11/11/11 6/6/6 10/10/10
f 12/12/12 11/11/11 10/10/10
f 13/13/13 7/7/7 9/9/9
f 13/13/13 10/10/10 7/7/7
f 12/12/12 10/10/10 13/13/13
f 14/14/14 13/13/13 9/9/9
f 15/15/15 12/12/12 13/13/13
f 15/15/15 13/13/13 14/14/14
f 16/16/16 15/15/15 14/14/14
f 19/19/19 18/18/18 17/17/17
f 20/20/20 19/19/19 17/17/17
f 23/23/23 22/22/22 21/21/21
f 24/24/24 23/23/23 21/21/21
f 27/27/27 26/26/26 25/25/25
f 26/26/26 28/28/28 25/25/25
f 25/25/25 28/28/28 29/29/29
f 28/28/28 30/30/30 29/29/29
f 33/33/33 32/32/32 31/31/31
f 34/34/34 33/33/33 31/31/31
f 35/35/35 33/33/33 34/34/34
f 36/36/36 35/35/35 34/34/34
f 37/37/37 35/35/35 36/36/36
f 38/38/38 37/37/37 36/36/36
f 41/41/41 40/40/40 39/39/39
f 40/40/40 42/42/42 39/39/39
f 39/39/39 42/42/42 43/43/43
f 42/42/42 44/44/44 43/43/43
f 47/47/47 46/46/46 45/45/45
f 48/48/48 47/47/47 45/45/45
f 49/49/49 47/47/47 48/48/48
f 50/50/50 49/49/49 48/48/48
f 51/51/51 49/49/49 50/50/50
f 52/52/52 51/51/51 50/50/50
