g Exit_Sign_001_Exit_Common_Prop
v -0.2519799 0.13048814 -0.02471702
v -0.2519799 -0.12722819 -0.02471702
v 0.25048086 -0.12722819 -0.02471702
v 0.25048086 0.13048814 -0.02471702
v 0.25048086 0.13048814 0.02471702
v 0.25048086 -0.12722819 0.02471702
v -0.25197998 -0.12722819 0.02471702
v -0.25197998 0.13048814 0.02471702
v 0.25048086 -0.15124522 0.03459348
v 0.25048086 -0.15438245 0.03978416
v 0.25048086 -0.15124522 0.012785354
v 0.25048086 -0.13950658 -0.0127853155
v 0.25048086 -0.13950658 0.0127853155
v 0.25048086 -0.15124522 -0.012785349
v -0.25197998 -0.15438245 -0.03978416
v -0.25197998 -0.1512452 -0.012785334
v -0.25197998 -0.15124522 -0.03459348
v 0.25048086 -0.15124522 -0.03459348
v 0.25048086 -0.15124522 -0.012785349
v 0.25048086 -0.15438245 -0.03978416
v -0.27673727 -0.15438245 -0.03978416
v -0.27673727 -0.15438245 0.03978416
v -0.25197998 -0.15438245 0.03978416
v -0.25197998 -0.15438245 -0.03978416
v -0.27673727 0.15438245 -0.03978416
v -0.27673727 0.15438245 0.03978416
v -0.27673727 -0.15438245 0.03978416
v -0.27673727 -0.15438245 -0.03978416
v -0.27673727 0.15438245 0.03978416
v -0.27673727 0.15438245 -0.03978416
v -0.25197998 0.15438245 -0.03978416
v -0.25197998 0.15438245 0.039784156
v 0.25048086 0.15438245 -0.03978416
v 0.25048086 0.15438245 0.03978416
v 0.25048086 0.15124527 0.03459348
v 0.25048086 0.15124527 -0.03978416
v 0.25048086 0.15438245 0.03978416
v 0.25048086 0.15438245 -0.03978416
v 0.2767372 0.15438245 -0.03978416
v 0.2767372 0.15438245 0.03978416
v 0.2767372 -0.15438245 0.03978416
v 0.2767372 0.15438245 0.03978416
v 0.2767372 0.15438245 -0.03978416
v 0.2767372 -0.15438245 -0.03978416
v 0.25048086 -0.15438245 0.03978416
v 0.2767372 -0.15438245 0.03978416
v 0.2767372 -0.15438245 -0.03978416
v 0.25048086 -0.15438245 -0.03978416
v -0.25197998 -0.13950658 0.0127853155
v 0.25048086 -0.13950658 0.0127853155
v 0.25048086 -0.13950658 -0.0127853155
v -0.25197998 -0.13950658 -0.0127853155
v -0.25197998 -0.1512452 0.012785334
v -0.25197998 -0.13950658 0.0127853155
v -0.25197998 -0.13950658 -0.0127853155
v -0.25197998 -0.1512452 -0.012785334
v -0.25197998 -0.15438245 -0.03978416
v -0.25197998 -0.15438245 0.03978416
v -0.25197998 -0.15124522 0.03459348
v -0.27673727 -0.15438245 0.03978416
v -0.27673727 0.15438245 0.03978416
v -0.25197998 0.15438245 0.039784156
v -0.25197998 -0.15438245 0.03978416
v 0.2767372 0.15438245 0.03978416
v 0.2767372 -0.15438245 0.03978416
v 0.25048086 -0.15438245 0.03978416
v 0.25048086 0.15438245 0.03978416
v 0.25048086 -0.15124522 0.03459348
v -0.25197998 -0.15124522 0.03459348
v -0.25197998 -0.12722819 0.03459348
v 0.25048086 -0.12722819 0.03459348
v -0.25197998 0.15124527 0.03459348
v 0.25048086 0.15124527 0.03459348
v 0.25048086 0.13048814 0.03459348
v -0.25197998 0.13048814 0.03459348
v 0.25048086 0.13048814 0.03459348
v 0.25048086 0.13048814 0.02471702
v -0.25197998 0.13048814 0.02471702
v -0.25197998 0.13048814 0.03459348
v -0.25197998 0.13048814 0.03459348
v -0.25197998 0.13048814 0.02471702
v -0.25197998 -0.12722819 0.02471702
v -0.25197998 -0.12722819 0.03459348
v -0.25197998 0.15438245 0.039784156
v -0.25197998 0.15124527 0.03459348
v -0.25197998 -0.15438245 0.03978416
v -0.25197998 -0.15124522 0.03459348
v -0.25197998 -0.12722819 0.03459348
v -0.25197998 -0.12722819 0.02471702
v 0.25048086 -0.12722819 0.02471702
v 0.25048086 -0.12722819 0.03459348
v 0.25048086 -0.12722819 0.03459348
v 0.25048086 -0.12722819 0.02471702
v 0.25048086 0.13048814 0.02471702
v 0.25048086 0.13048814 0.03459348
v 0.25048086 -0.15438245 0.03978416
v 0.25048086 -0.15124522 0.03459348
v 0.25048086 0.15438245 0.03978416
v 0.25048086 0.15124527 0.03459348
v 0.25048086 -0.15124522 0.03459348
v 0.25048086 -0.15124522 0.012785354
v -0.25197998 -0.1512452 0.012785334
v -0.25197998 -0.15124522 0.03459348
v 0.25048086 -0.15124522 0.012785354
v 0.25048086 -0.13950658 0.0127853155
v -0.25197998 -0.13950658 0.0127853155
v -0.25197998 -0.1512452 0.012785334
v -0.27673727 -0.15438245 -0.03978416
v -0.25197998 -0.15438245 -0.03978416
v -0.25197998 0.15438245 -0.03978416
v -0.27673727 0.15438245 -0.03978416
v 0.2767372 0.15438245 -0.03978416
v 0.25048086 0.15438245 -0.03978416
v 0.25048086 -0.15438245 -0.03978416
v 0.2767372 -0.15438245 -0.03978416
v 0.25048086 -0.15124522 -0.03459348
v 0.25048086 -0.12722819 -0.03459348
v -0.25197998 -0.12722819 -0.03459348
v -0.25197998 -0.15124522 -0.03459348
v -0.25197998 0.15124527 -0.03459348
v -0.25197998 0.13048814 -0.03459348
v 0.25048086 0.13048814 -0.03459348
v 0.25048086 0.15124527 -0.03459348
v 0.25048086 0.13048814 -0.03459348
v -0.25197998 0.13048814 -0.03459348
v -0.2519799 0.13048814 -0.02471702
v 0.25048086 0.13048814 -0.02471702
v -0.25197998 0.13048814 -0.03459348
v -0.2519799 -0.12722819 -0.02471702
v -0.2519799 0.13048814 -0.02471702
v -0.25197998 -0.12722819 -0.03459348
v -0.25197998 0.15438245 -0.03978416
v -0.25197998 0.15124527 -0.03459348
v -0.25197998 -0.15438245 -0.03978416
v -0.25197998 -0.15124522 -0.03459348
v -0.25197998 -0.12722819 -0.03459348
v 0.25048086 -0.12722819 -0.03459348
v 0.25048086 -0.12722819 -0.02471702
v -0.2519799 -0.12722819 -0.02471702
v 0.25048086 -0.12722819 -0.03459348
v 0.25048086 0.13048814 -0.02471702
v 0.25048086 -0.12722819 -0.02471702
v 0.25048086 0.13048814 -0.03459348
v 0.25048086 -0.15438245 -0.03978416
v 0.25048086 -0.15124522 -0.03459348
v 0.25048086 0.15438245 -0.03978416
v 0.25048086 0.15124527 -0.03459348
v 0.25048086 -0.15124522 -0.012785349
v -0.25197998 -0.1512452 -0.012785334
v -0.25197998 -0.13950658 -0.0127853155
v 0.25048086 -0.13950658 -0.0127853155
v 0.25048086 0.15124527 -0.03459348
v 0.25048086 0.15124527 0.03459348
v -0.25197998 0.15124527 0.03459348
v -0.25197998 0.15124527 -0.03459348
v -0.25197998 0.15124527 0.03459348
v -0.25197998 0.15438245 0.039784156
v -0.25197998 0.15438245 -0.03978416
v -0.25197998 0.15124527 -0.03459348
v 0.25048086 -0.15124522 0.012785354
v 0.25048086 -0.15438245 0.03978416
v 0.25048086 -0.15438245 -0.03978416
v 0.25048086 -0.15124522 -0.012785349
v -0.25197998 -0.15124522 -0.03459348
v -0.25197998 -0.1512452 -0.012785334
v 0.25048086 -0.15124522 -0.012785349
v 0.25048086 -0.15124522 -0.03459348
vt 1 1
vt 1 0
vt 0 0
vt 0 1
vt 1 1
vt 1 0
vt 0 0
vt 0 1
vt 0.56215525 0.6262788
vt 0.56790245 0.6228053
vt 0.5380094 0.62627906
vt 0.37611014 0.63927764
vt 0.5380094 0.63927597
vt 0.37611002 0.6262807
vt 0.3240134 0.5948678
vt 0.35390633 0.5983416
vt 0.32976055 0.59834135
vt 0.75473857 0
vt 0 0.45616254
vt 0.99999994 0
vt 0.08066404 0.59486806
vt 0.2966022 0.5948678
vt 0.29660216 0.56745636
vt 0.080663994 0.56745684
vt 0.080663994 0.9367298
vt 0.29660228 0.9367322
vt 0.2966022 0.5948678
vt 0.08066404 0.59486806
vt 0.29660228 0.9367322
vt 0.080663994 0.9367298
vt 0.08066337 0.9641398
vt 0.29660165 0.9641446
vt 0.35196757 0.9646706
vt 0.5679058 0.9646682
vt 0.5621587 0.96119493
vt 0.3519675 0.9611971
vt 0.59697676 0.993739
vt 0.81291485 0.99373686
vt 0.8129146 0.96466607
vt 0.5969765 0.964668
vt 0.5969734 0.62280506
vt 0.5969765 0.964668
vt 0.8129146 0.96466607
vt 0.81291175 0.6228027
vt 0.59697294 0.59373444
vt 0.5969734 0.62280506
vt 0.81291175 0.6228027
vt 0.8129115 0.5937316
vt 0.28039843 0.558311
vt 0.28038472 0.0020572543
vt 0.11848265 0.0020700097
vt 0.11853766 0.55832326
vt 0.35390633 0.5983416
vt 0.35390633 0.61133826
vt 0.5158057 0.61133826
vt 0.5158057 0.59834135
vt 0.5399517 0.5948678
vt 0.3240134 0.5948678
vt 0.32976055 0.59834135
vt 0.2966022 0.5948678
vt 0.29660228 0.9367322
vt 0.3240135 0.936731
vt 0.3240134 0.5948678
vt 0.5969765 0.964668
vt 0.5969734 0.62280506
vt 0.56790245 0.6228053
vt 0.5679058 0.9646682
vt 0.3175277 0.002055943
vt 0.31753343 0.5583104
vt 0.34411865 0.55831003
vt 0.34411865 0.0020560026
vt 0.6741814 0.5582597
vt 0.67436415 0.0020059347
vt 0.6513786 0.0020015836
vt 0.65120894 0.55825543
vt 0.6513786 0.0020015836
vt 0.64043885 0.0020002723
vt 0.64028066 0.55825496
vt 0.65120894 0.55825543
vt 0.32976055 0.91027534
vt 0.34069663 0.9102751
vt 0.34069455 0.6249331
vt 0.32976055 0.6249329
vt 0.3240135 0.936731
vt 0.32976055 0.93325746
vt 0.3240134 0.5948678
vt 0.32976055 0.59834135
vt 0.34411865 0.55831003
vt 0.35504836 0.5583054
vt 0.3550567 0.0020520687
vt 0.34411865 0.0020560026
vt 0.5621555 0.65287036
vt 0.5512203 0.65287036
vt 0.5512233 0.93821305
vt 0.56215847 0.9382128
vt 0.56790245 0.6228053
vt 0.56215525 0.6262788
vt 0.5679058 0.9646682
vt 0.5621587 0.96119493
vt 0.3175277 0.002055943
vt 0.29337686 0.0020561218
vt 0.29339927 0.558311
vt 0.31753343 0.5583104
vt 0.29337686 0.0020561218
vt 0.28038472 0.0020572543
vt 0.28039843 0.558311
vt 0.29339927 0.558311
vt 0.2966022 0.5948678
vt 0.3240134 0.5948678
vt 0.3240135 0.936731
vt 0.29660228 0.9367322
vt 0.5969765 0.964668
vt 0.5679058 0.9646682
vt 0.56790245 0.6228053
vt 0.5969734 0.62280506
vt 0.3175277 0.002055943
vt 0.34411865 0.0020560026
vt 0.34411865 0.55831003
vt 0.31753343 0.5583104
vt 0.6741814 0.5582597
vt 0.65120894 0.55825543
vt 0.6513786 0.0020015836
vt 0.67436415 0.0020059347
vt 0.6513786 0.0020015836
vt 0.65120894 0.55825543
vt 0.64028066 0.55825496
vt 0.64043885 0.0020002723
vt 0.32976055 0.91027534
vt 0.34069455 0.6249331
vt 0.34069663 0.9102751
vt 0.32976055 0.6249329
vt 0.3240135 0.936731
vt 0.32976055 0.93325746
vt 0.3240134 0.5948678
vt 0.32976055 0.59834135
vt 0.34411865 0.55831003
vt 0.34411865 0.0020560026
vt 0.3550567 0.0020520687
vt 0.35504836 0.5583054
vt 0.5621555 0.65287036
vt 0.5512233 0.93821305
vt 0.5512203 0.65287036
vt 0.56215847 0.9382128
vt 0.56790245 0.6228053
vt 0.56215525 0.6262788
vt 0.5679058 0.9646682
vt 0.5621587 0.96119493
vt 0.29337686 0.0020561218
vt 0.29339927 0.558311
vt 0.28039843 0.558311
vt 0.28038472 0.0020572543
vt 0 0.13769622
vt 0 0
vt 0.99999994 0
vt 0.99999994 0.13769622
vt 0.06523546 0
vt 0 0.039427605
vt 1 0.039427605
vt 0.93476456 0
vt 0.33931604 0.0394282
vt 0 0
vt 1 0
vt 0.66068393 0.0394282
vt 0 9.49003E-09
vt 4.118926E-10 0.043402687
vt 0.99999994 0.04340265
vt 0.99999994 0
vn -0 0 -1
vn -0 0 -1
vn -0 0 -1
vn -0 0 -1
vn -0 0 1
vn -0 0 1
vn -0 0 1
vn -0 0 1
vn -1 -1.1227587E-06 0
vn -1 -1.18445996E-07 0
vn -1 2.5417362E-06 0
vn -1 2.5417362E-06 0
vn -1 2.5417362E-06 0
vn -1 2.541736E-06 0
vn 1 9.4756774E-07 0
vn 1 2.2302549E-05 0
vn 1 8.982072E-06 0
vn -1 -1.1151274E-05 0
vn -1 -1.11512745E-05 0
vn -1 -1.1151274E-05 0
vn -0 -1 0
vn -0 -1 0
vn -0 -1 0
vn -0 -1 0
vn -1 0 0
vn -1 0 0
vn -1 0 0
vn -1 0 0
vn -0 1 0
vn -0 1 0
vn -0 1 0
vn -0 1 0
vn -1 0 0
vn -1 0 0
vn -1 0 0
vn -1 0 0
vn -0 1 0
vn -0 1 0
vn -0 1 0
vn -0 1 0
vn 1 0 0
vn 1 0 0
vn 1 0 0
vn 1 0 0
vn -0 -1 0
vn -0 -1 0
vn -0 -1 0
vn -0 -1 0
vn -0 -1 0
vn -0 -1 0
vn -0 -1 0
vn -0 -1 0
vn 1 -8.048603E-07 0
vn 1 -1.7804902E-06 0
vn 1 -1.7804902E-06 0
vn 1 -8.649768E-07 0
vn 1 0 0
vn 1 5.11628E-07 0
vn 1 5.6137947E-06 0
vn -0 0 1
vn -0 0 1
vn -0 0 1
vn -0 0 1
vn -0 0 1
vn -0 0 1
vn -0 0 1
vn -0 0 1
vn -0 0 1
vn -0 0 1
vn -0 0 1
vn -0 0 1
vn -0 0 1
vn -0 0 1
vn -0 0 1
vn -0 0 1
vn -0 -1 0
vn -0 -1 0
vn -0 -1 0
vn -0 -1 0
vn 1 0 0
vn 1 0 0
vn 1 0 0
vn 1 0 0
vn 1 5.9913344E-07 0
vn 1 2.0643631E-06 0
vn 1 5.11628E-07 0
vn 1 5.6137947E-06 0
vn -0 1 0
vn -0 1 0
vn -0 1 0
vn -0 1 0
vn -1 0 0
vn -1 0 0
vn -1 0 0
vn -1 0 0
vn -1 -1.18445996E-07 0
vn -1 -1.1227587E-06 0
vn -1 0 0
vn -1 0 0
vn -0 -1 -5.570052E-07
vn -0 -1 -5.570052E-07
vn -0 -1 -5.5700514E-07
vn -0 -1 -5.570052E-07
vn -0 -2.4372725E-06 -1
vn -0 -2.4372728E-06 -1
vn -0 -2.4372728E-06 -1
vn -0 -2.4372728E-06 -1
vn -0 0 -1
vn -0 0 -1
vn -0 0 -1
vn -0 0 -1
vn -0 0 -1
vn -0 0 -1
vn -0 0 -1
vn -0 0 -1
vn -0 0 -1
vn -0 0 -1
vn -0 0 -1
vn -0 0 -1
vn -0 0 -1
vn -0 0 -1
vn -0 0 -1
vn -0 0 -1
vn -0 -1 1.2299189E-06
vn -0 -1 1.2299189E-06
vn -0 -1 1.229919E-06
vn -0 -1 1.2299189E-06
vn 1 0 -3.714846E-06
vn 1 0 -7.724826E-06
vn 1 0 -7.724826E-06
vn 1 0 -3.698362E-06
vn 1 0 0
vn 1 0 0
vn 1 9.4756774E-07 0
vn 1 8.982072E-06 0
vn -0 1 1.2299189E-06
vn -0 1 1.2299189E-06
vn -0 1 1.2299189E-06
vn -0 1 1.229919E-06
vn -1 0 0
vn -1 0 0
vn -1 0 0
vn -1 0 0
vn -1 0 0
vn -1 0 0
vn -1 0 0
vn -1 0 0
vn -0 -2.2341667E-06 1
vn -0 -2.2341667E-06 1
vn -0 -2.2341667E-06 1
vn -0 -2.2341667E-06 1
vn -0 1 0
vn -0 1 0
vn -0 1 0
vn -0 1 0
vn 1 2.0643631E-06 0
vn 1 5.9913344E-07 0
vn 1 2.4522708E-06 0
vn 1 2.4522708E-06 0
vn -1 0 0
vn -1 0 0
vn -1 0 0
vn -1 0 0
vn -0 -1 5.5700514E-07
vn -0 -1 5.5700514E-07
vn -0 -1 5.5700514E-07
vn -0 -1 5.5700514E-07
g Exit_Sign_001_Exit_Common_Prop_0
f 3/3/3 2/2/2 1/1/1
f 4/4/4 3/3/3 1/1/1
f 7/7/7 6/6/6 5/5/5
f 8/8/8 7/7/7 5/5/5
g Exit_Sign_001_Exit_Common_Prop_1
f 11/11/11 10/10/10 9/9/9
f 11/11/11 13/13/13 12/12/12
f 14/14/14 11/11/11 12/12/12
f 17/17/17 16/16/16 15/15/15
f 20/20/20 19/19/19 18/18/18
f 23/23/23 22/22/22 21/21/21
f 24/24/24 23/23/23 21/21/21
f 27/27/27 26/26/26 25/25/25
f 28/28/28 27/27/27 25/25/25
f 31/31/31 30/30/30 29/29/29
f 32/32/32 31/31/31 29/29/29
f 35/35/35 34/34/34 33/33/33
f 36/36/36 35/35/35 33/33/33
f 39/39/39 38/38/38 37/37/37
f 40/40/40 39/39/39 37/37/37
f 43/43/43 42/42/42 41/41/41
f 44/44/44 43/43/43 41/41/41
f 47/47/47 46/46/46 45/45/45
f 48/48/48 47/47/47 45/45/45
f 51/51/51 50/50/50 49/49/49
f 52/52/52 51/51/51 49/49/49
f 55/55/55 54/54/54 53/53/53
f 56/56/56 55/55/55 53/53/53
f 56/56/56 53/53/53 57/57/57
f 53/53/53 58/58/58 57/57/57
f 53/53/53 59/59/59 58/58/58
f 62/62/62 61/61/61 60/60/60
f 63/63/63 62/62/62 60/60/60
f 66/66/66 65/65/65 64/64/64
f 67/67/67 66/66/66 64/64/64
f 70/70/70 69/69/69 68/68/68
f 71/71/71 70/70/70 68/68/68
f 74/74/74 73/73/73 72/72/72
f 75/75/75 74/74/74 72/72/72
f 78/78/78 77/77/77 76/76/76
f 79/79/79 78/78/78 76/76/76
f 82/82/82 81/81/81 80/80/80
f 83/83/83 82/82/82 80/80/80
f 80/80/80 84/84/84 83/83/83
f 85/85/85 84/84/84 80/80/80
f 84/84/84 86/86/86 83/83/83
f 83/83/83 86/86/86 87/87/87
f 90/90/90 89/89/89 88/88/88
f 91/91/91 90/90/90 88/88/88
f 94/94/94 93/93/93 92/92/92
f 95/95/95 94/94/94 92/92/92
f 92/92/92 96/96/96 95/95/95
f 97/97/97 96/96/96 92/92/92
f 96/96/96 98/98/98 95/95/95
f 95/95/95 98/98/98 99/99/99
f 102/102/102 101/101/101 100/100/100
f 103/103/103 102/102/102 100/100/100
f 106/106/106 105/105/105 104/104/104
f 107/107/107 106/106/106 104/104/104
f 110/110/110 109/109/109 108/108/108
f 111/111/111 110/110/110 108/108/108
f 114/114/114 113/113/113 112/112/112
f 115/115/115 114/114/114 112/112/112
f 118/118/118 117/117/117 116/116/116
f 119/119/119 118/118/118 116/116/116
f 122/122/122 121/121/121 120/120/120
f 123/123/123 122/122/122 120/120/120
f 126/126/126 125/125/125 124/124/124
f 127/127/127 126/126/126 124/124/124
f 130/130/130 129/129/129 128/128/128
f 129/129/129 131/131/131 128/128/128
f 132/132/132 128/128/128 131/131/131
f 132/132/132 133/133/133 128/128/128
f 134/134/134 132/132/132 131/131/131
f 134/134/134 131/131/131 135/135/135
f 138/138/138 137/137/137 136/136/136
f 139/139/139 138/138/138 136/136/136
f 142/142/142 141/141/141 140/140/140
f 141/141/141 143/143/143 140/140/140
f 144/144/144 140/140/140 143/143/143
f 144/144/144 145/145/145 140/140/140
f 146/146/146 144/144/144 143/143/143
f 146/146/146 143/143/143 147/147/147
f 150/150/150 149/149/149 148/148/148
f 151/151/151 150/150/150 148/148/148
f 154/154/154 153/153/153 152/152/152
f 155/155/155 154/154/154 152/152/152
f 158/158/158 157/157/157 156/156/156
f 159/159/159 158/158/158 156/156/156
f 162/162/162 161/161/161 160/160/160
f 163/163/163 162/162/162 160/160/160
f 166/166/166 165/165/165 164/164/164
f 167/167/167 166/166/166 164/164/164
