g Cardboard_Box_001_A_Back_Prop
v -0.2798607 0.48790604 0.0033296356
v -0.2798607 0.48147237 0.0033296356
v 0.27994058 0.48147237 0.0033296356
v 0.27994058 0.48790604 0.0033296356
v 0.27994058 0.4879061 -0.0024848632
v 0.27994058 0.48147237 -0.0024848632
v -0.2798607 0.48147237 -0.0024848632
v -0.2798607 0.4879061 -0.0024848632
v -0.2798607 0.48147237 -0.0024848632
v -0.2798607 0.48790604 0.0033296356
v -0.2798607 0.4879061 -0.0024848632
v -0.2798607 0.48147237 0.0033296356
v -0.27744207 0.015016845 -0.15935728
v -0.27744207 0.48147237 -0.15935728
v -0.27744207 0.015016845 0.16020212
v -0.27744207 0.48147237 0.16020212
v 0.27916643 0.015016845 0.16020212
v 0.27916643 0.48147237 0.16020212
v 0.27994058 0.48147237 0.0033296356
v 0.27916643 0.015016845 -0.15935728
v -0.27744207 0.015016845 -0.15935728
v 0.27916643 0.48147237 -0.15935728
v -0.27744207 0.48147237 -0.15935728
v 0.27994058 0.48147237 -0.0024848632
v -0.2798607 0.48147237 -0.0024848632
v 0.27994058 0.48147237 -0.0024848632
v 0.27916643 0.015016845 -0.15935728
v 0.27916643 0.48147237 -0.15935728
v 0.27994058 0.4879061 -0.0024848632
v 0.27994058 0.48790604 0.0033296356
v -0.2798607 0.48147237 0.0033296356
v -0.27744207 0.48147237 0.16020212
v 0.27916643 0.48147237 0.16020212
v 0.27994058 0.48147237 0.0033296356
v -0.28624955 0.36506924 -0.16568811
v -0.28624955 0.36506924 -0.072689086
v -0.28624955 0.21605834 -0.072689086
v -0.28624955 0.21605834 -0.16568811
v -0.2814583 0.21605834 -0.17047936
v -0.2814583 0.36506924 -0.17047936
v -0.039478607 0.36506927 -0.17047936
v -0.039478607 0.21605834 -0.17047936
v -0.2803795 0.0051011974 0.17047931
v 0.28114843 0 0.16537811
v -0.2803795 0 0.16537811
v 0.28114843 0.0051011974 0.17047931
v 0.28114843 0.48280478 0.17047931
v -0.2803795 0.48280478 0.17047931
v -0.2803795 0.48790604 0.16537811
v 0.28114843 0.48790604 0.16537811
v 0.28624964 0.48280478 0.16537811
v 0.28114843 0.48790604 0.16537811
v 0.28624964 0.0051011974 0.16537811
v 0.28114843 0 0.16537811
v 0.28114843 0 -0.16453335
v 0.28624964 0.4828049 -0.16453335
v 0.28114843 0.4879061 -0.16453335
v 0.28624964 0.0051011974 -0.16453335
v 0.28114843 0.0051011974 -0.16963454
v 0.28114843 0.4828049 -0.16963454
v -0.2803795 0.0051011974 -0.16963454
v -0.2803795 0.4828049 -0.16963454
v -0.2803795 0 -0.16453335
v 0.28114843 0 -0.16453335
v -0.2803795 0 0.16537811
v 0.28114843 0 0.16537811
v -0.2803795 0.4879061 -0.16453335
v -0.2798607 0.4879061 -0.0024848632
v 0.27994058 0.4879061 -0.0024848632
v -0.2798607 0.48790604 0.0033296356
v -0.2803795 0.48790604 0.16537811
v 0.27994058 0.48790604 0.0033296356
v 0.28114843 0.48790604 0.16537811
v -0.2854807 0.0051011974 0.16537811
v -0.2803795 0.48280478 0.17047931
v -0.2803795 0.0051011974 0.17047931
v -0.2803795 0 0.16537811
v -0.2854807 0.48280478 0.16537811
v -0.2803795 0.48790604 0.16537811
v -0.2803795 0.4879061 -0.16453335
v -0.2854807 0.0051011974 -0.16453335
v -0.2803795 0 -0.16453335
v -0.2803795 0.0051011974 -0.16963454
v -0.2854807 0.4828049 -0.16453335
v -0.2803795 0.4828049 -0.16963454
vt 0.9215586 0.53838956
vt 0.9204388 0.53838956
vt 0.9204388 0.6352719
vt 0.9215586 0.6352719
vt 0.646706 0.6352719
vt 0.6478257 0.6352719
vt 0.6478257 0.53838956
vt 0.646706 0.53838956
vt 0.89313394 0.5100726
vt 0.8942536 0.5110847
vt 0.8942536 0.5100726
vt 0.89313394 0.5110847
vt 0.8119434 0.48276746
vt 0.89313394 0.48276746
vt 0.8119434 0.53838956
vt 0.89313394 0.53838956
vt 0.8119434 0.6352719
vt 0.89313394 0.6352719
vt 0.89313394 0.66257703
vt 0.7563213 0.6352719
vt 0.7563213 0.53838956
vt 0.67513084 0.6352719
vt 0.67513084 0.53838956
vt 0.6478257 0.6352719
vt 0.6478257 0.53838956
vt 0.89313394 0.6635891
vt 0.8119432 0.690894
vt 0.89313394 0.690894
vt 0.8942535 0.6635891
vt 0.8942535 0.66257703
vt 0.9204388 0.53838956
vt 0.89313394 0.53838956
vt 0.89313394 0.6352719
vt 0.9204388 0.6352719
vt 0.59208775 0.61586624
vt 0.59208715 0.63205326
vt 0.61802375 0.6320542
vt 0.61802435 0.6158668
vt 0.61802435 0.6141988
vt 0.5920878 0.6141984
vt 0.5920878 0.5720798
vt 0.61802435 0.5720798
vt 0.46123743 0.23246664
vt 0.46212533 0.33020553
vt 0.46212533 0.23246664
vt 0.46123743 0.33020553
vt 0.37808907 0.33020553
vt 0.37808907 0.23246686
vt 0.37720114 0.23246686
vt 0.37720114 0.33020553
vt 0.37808907 0.33198133
vt 0.37720114 0.33198133
vt 0.4612374 0.33198133
vt 0.46212533 0.33198133
vt 0.46212545 0.3894053
vt 0.37808916 0.38940534
vt 0.37631336 0.39119297
vt 0.46123755 0.3894053
vt 0.46123752 0.39118117
vt 0.37808916 0.39118117
vt 0.46123752 0.48892006
vt 0.37808916 0.48892006
vt 0.46301335 0.48892006
vt 0.46301335 0.39118117
vt 0.52043724 0.4889201
vt 0.52043736 0.39118117
vt 0.37631336 0.48890722
vt 0.34810746 0.48840845
vt 0.34810746 0.3915261
vt 0.3470953 0.48840845
vt 0.31888944 0.4889072
vt 0.34709543 0.3915261
vt 0.3188895 0.39119297
vt 0.46123743 0.23069082
vt 0.37808907 0.23246686
vt 0.46123743 0.23246664
vt 0.46212533 0.23069082
vt 0.37808904 0.23069105
vt 0.37720114 0.23069105
vt 0.37720108 0.1732673
vt 0.46123728 0.17326729
vt 0.46212518 0.17326729
vt 0.46123728 0.17237939
vt 0.37808898 0.1732673
vt 0.378089 0.17237939
vn -0 0 -1
vn -0 0 -1
vn -0 0 -1
vn -0 0 -1
vn -0 0 1
vn -0 0 1
vn -0 0 1
vn -0 0 1
vn 0.8135028 -0.5815532 0.0030186563
vn 1 0 0
vn 1 0 0
vn 0.99998546 0.003935637 -0.0037103964
vn 0.21033841 0.5530195 0.80618066
vn 0.13197006 -0.31895575 0.9385367
vn 0.21033844 0.5530195 -0.80618066
vn 0.1392428 0 -0.9902582
vn -0.21045408 0.55267185 -0.80638874
vn -0.13944438 0 -0.9902299
vn -0.99999857 0.0012596721 -0.0011876203
vn -0.21045408 0.55267185 0.80638874
vn 0.21033841 0.5530195 0.80618066
vn -0.13223048 -0.3174733 0.93900263
vn 0.13197006 -0.31895575 0.9385367
vn -0.8106142 -0.58557975 0.0009628977
vn 0.8135028 -0.5815532 0.0030186563
vn -0.8106142 -0.58557975 0.0009628977
vn -0.21045408 0.55267185 0.80638874
vn -0.13223048 -0.3174733 0.93900263
vn -1 0 0
vn -1 0 0
vn -0 -1 -1.4158036E-07
vn -0 -1 -1.4158036E-07
vn -0 -1 -1.4158037E-07
vn -0 -1 -1.4158037E-07
vn -0.99880195 0 -0.04893637
vn -1 0 0
vn -1 0 0
vn -0.99880195 0 -0.04893637
vn -0.019412108 0 -0.9998116
vn -0.019412106 0 -0.9998116
vn -0 0 -1
vn -0 0 -1
vn -0.008939007 -0.010502021 0.9999049
vn 0.00891076 -0.99984574 0.015134541
vn -0.00891076 -0.99984574 0.015134541
vn 0.008939007 -0.010502022 0.9999049
vn 0.008939007 0.010502021 0.9999049
vn -0.008939007 0.010502004 0.9999049
vn -0.017753463 0.9993876 0.030153679
vn 0.017799232 0.9993844 0.030231366
vn 0.99983096 0.010457868 0.015118705
vn 0.017799232 0.9993844 0.030231366
vn 0.99983096 -0.010457873 0.015118708
vn 0.00891076 -0.99984574 0.015134541
vn 0.008910762 -0.99984574 -0.015134542
vn 0.99983096 0.010457875 -0.015118711
vn 0.017799225 0.9993844 -0.030231137
vn 0.99983096 -0.010457873 -0.015118711
vn 0.0089390045 -0.010501982 -0.9999049
vn 0.008939004 0.010501981 -0.9999049
vn -0.0089390045 -0.010501981 -0.9999049
vn -0.008939004 0.01050198 -0.9999049
vn -0.008910761 -0.99984574 -0.015134543
vn 0.008910762 -0.99984574 -0.015134542
vn -0.00891076 -0.99984574 0.015134541
vn 0.00891076 -0.99984574 0.015134541
vn -0.01775346 0.9993876 -0.030153407
vn -0 1 -2.0639337E-07
vn -0 1 -2.0484194E-07
vn -0 1 1.6788525E-07
vn -0.017753463 0.9993876 0.030153679
vn -0 1 1.6849745E-07
vn 0.017799232 0.9993844 0.030231366
vn -0.99983096 -0.010457799 0.015118654
vn -0.008939007 0.010502004 0.9999049
vn -0.008939007 -0.010502021 0.9999049
vn -0.00891076 -0.99984574 0.015134541
vn -0.99983096 0.010457794 0.015118651
vn -0.017753463 0.9993876 0.030153679
vn -0.01775346 0.9993876 -0.030153407
vn -0.99983096 -0.010457799 -0.015118655
vn -0.008910761 -0.99984574 -0.015134543
vn -0.0089390045 -0.010501981 -0.9999049
vn -0.99983096 0.010457802 -0.015118655
vn -0.008939004 0.01050198 -0.9999049
g Cardboard_Box_001_A_Back_Prop_0
f 3/3/3 2/2/2 1/1/1
f 4/4/4 3/3/3 1/1/1
f 7/7/7 6/6/6 5/5/5
f 8/8/8 7/7/7 5/5/5
f 11/11/11 10/10/10 9/9/9
f 10/10/10 12/12/12 9/9/9
f 9/9/9 12/12/12 13/13/13
f 9/9/9 13/13/13 14/14/14
f 12/12/12 15/15/15 13/13/13
f 12/12/12 16/16/16 15/15/15
f 17/17/17 15/15/15 16/16/16
f 18/18/18 17/17/17 16/16/16
f 19/19/19 17/17/17 18/18/18
f 15/15/15 17/17/17 20/20/20
f 21/21/21 15/15/15 20/20/20
f 21/21/21 20/20/20 22/22/22
f 23/23/23 21/21/21 22/22/22
f 23/23/23 22/22/22 24/24/24
f 25/25/25 23/23/23 24/24/24
f 19/19/19 26/26/26 17/17/17
f 26/26/26 27/27/27 17/17/17
f 26/26/26 28/28/28 27/27/27
f 26/26/26 19/19/19 29/29/29
f 19/19/19 30/30/30 29/29/29
f 33/33/33 32/32/32 31/31/31
f 34/34/34 33/33/33 31/31/31
f 37/37/37 36/36/36 35/35/35
f 38/38/38 37/37/37 35/35/35
f 38/38/38 35/35/35 39/39/39
f 35/35/35 40/40/40 39/39/39
f 40/40/40 41/41/41 39/39/39
f 41/41/41 42/42/42 39/39/39
f 45/45/45 44/44/44 43/43/43
f 44/44/44 46/46/46 43/43/43
f 46/46/46 47/47/47 43/43/43
f 47/47/47 48/48/48 43/43/43
f 48/48/48 47/47/47 49/49/49
f 47/47/47 50/50/50 49/49/49
f 47/47/47 46/46/46 51/51/51
f 51/51/51 52/52/52 47/47/47
f 46/46/46 53/53/53 51/51/51
f 54/54/54 53/53/53 46/46/46
f 53/53/53 54/54/54 55/55/55
f 52/52/52 51/51/51 56/56/56
f 51/51/51 53/53/53 56/56/56
f 57/57/57 52/52/52 56/56/56
f 58/58/58 53/53/53 55/55/55
f 53/53/53 58/58/58 56/56/56
f 55/55/55 59/59/59 58/58/58
f 56/56/56 58/58/58 60/60/60
f 60/60/60 57/57/57 56/56/56
f 58/58/58 59/59/59 60/60/60
f 59/59/59 61/61/61 60/60/60
f 61/61/61 62/62/62 60/60/60
f 57/57/57 60/60/60 62/62/62
f 61/61/61 59/59/59 63/63/63
f 59/59/59 64/64/64 63/63/63
f 65/65/65 63/63/63 64/64/64
f 66/66/66 65/65/65 64/64/64
f 67/67/67 57/57/57 62/62/62
f 67/67/67 68/68/68 57/57/57
f 68/68/68 69/69/69 57/57/57
f 70/70/70 68/68/68 67/67/67
f 71/71/71 70/70/70 67/67/67
f 69/69/69 72/72/72 57/57/57
f 72/72/72 70/70/70 71/71/71
f 72/72/72 73/73/73 57/57/57
f 73/73/73 72/72/72 71/71/71
f 76/76/76 75/75/75 74/74/74
f 77/77/77 76/76/76 74/74/74
f 75/75/75 78/78/78 74/74/74
f 75/75/75 79/79/79 78/78/78
f 78/78/78 79/79/79 80/80/80
f 77/77/77 74/74/74 81/81/81
f 74/74/74 78/78/78 81/81/81
f 82/82/82 77/77/77 81/81/81
f 82/82/82 81/81/81 83/83/83
f 84/84/84 78/78/78 80/80/80
f 78/78/78 84/84/84 81/81/81
f 81/81/81 84/84/84 83/83/83
f 84/84/84 80/80/80 85/85/85
f 84/84/84 85/85/85 83/83/83
