g End_Table_Hotel_Prop
v 0.4076654 0.96836567 -0.36931288
v 0.4076654 0 -0.36931288
v 0.4076654 0 0.33262312
v 0.4076654 0.9683656 0.33262312
v -0.4076654 -1.5258789E-07 -0.36931288
v -0.4076654 0.9683656 -0.36931288
v -0.4076654 0.9683656 0.33262312
v -0.4076654 -1.5258789E-07 0.33262312
v -0.4076654 -1.5258789E-07 -0.36931288
v -0.4076654 -1.5258789E-07 0.33262312
v -0.23588134 0 0.33262312
v -0.23588134 0 -0.36931282
v -0.4076654 0.9683656 -0.36931288
v -0.4076654 -1.5258789E-07 -0.36931288
v -0.23588134 0 -0.36931282
v -0.19685851 0.032578733 -0.36931282
v -0.15213683 0.05209915 -0.36931282
v -0.10423767 0.06047043 -0.36931282
v 0.4076654 0.96836567 -0.36931288
v 0.08226929 0.06047043 -0.36931288
v 0.13322693 0.050146177 -0.36931288
v 0.17741027 0.030599974 -0.36931288
v 0.22019531 0 -0.36931288
v 0.4076654 0 -0.36931288
v -0.23588134 0 0.33262312
v -0.19685851 0.032578733 -0.36931282
v -0.23588134 0 -0.36931282
v -0.19685851 0.032578733 0.33262312
v -0.15213683 0.05209915 -0.36931282
v -0.15213683 0.05209915 0.33262312
v -0.10423767 0.06047043 -0.36931282
v -0.10423767 0.06047043 0.33262312
v 0.08226929 0.06047043 -0.36931288
v 0.08226929 0.06047043 0.33262312
v 0.13322693 0.050146177 -0.36931288
v 0.13322693 0.050146177 0.33262312
v 0.17741027 0.030599974 -0.36931288
v 0.17741027 0.030599974 0.33262312
v 0.22019531 0 -0.36931288
v 0.22019531 0 0.33262312
v 0.22019531 0 0.33262312
v 0.4076654 0 0.33262312
v 0.4076654 0 -0.36931288
v 0.22019531 0 -0.36931288
v -0.3773303 0.6818077 -0.32312027
v 0.37247008 0.6818077 -0.32312027
v 0.37246948 0.12766914 -0.32312027
v -0.3773303 0.12766914 -0.32312027
v -0.3773303 0.6818077 0.33262312
v -0.3773303 0.6818077 -0.32312027
v -0.3773303 0.12766914 -0.32312027
v -0.3773303 0.12766907 0.33262312
v 0.37247008 0.12766922 0.33262312
v 0.37246948 0.12766914 -0.32312027
v 0.37247008 0.6818077 -0.32312027
v 0.37247008 0.6818077 0.33262312
v -0.3773303 0.12766907 0.33262312
v -0.3773303 0.12766914 -0.32312027
v 0.37246948 0.12766914 -0.32312027
v 0.37247008 0.12766922 0.33262312
v 0.37247008 0.6818077 0.33262312
v 0.37247008 0.6818077 -0.32312027
v -0.3773303 0.6818077 -0.32312027
v -0.3773303 0.6818077 0.33262312
v -0.3773303 0.93659276 0.33262312
v -0.3773303 0.93659276 0.3463929
v -0.3773303 0.7189959 0.34639293
v -0.3773303 0.7189959 0.33262312
v 0.37247008 0.7189959 0.33262312
v 0.37247008 0.7189959 0.34639293
v 0.37247008 0.93659276 0.34639293
v 0.37247008 0.93659276 0.33262312
v -0.3773303 0.7189959 0.33262312
v -0.3773303 0.7189959 0.34639293
v 0.37247008 0.7189959 0.34639293
v 0.37247008 0.7189959 0.33262312
v 0.37247008 0.93659276 0.33262312
v 0.37247008 0.93659276 0.34639293
v -0.3773303 0.93659276 0.3463929
v -0.3773303 0.93659276 0.33262312
v 0.37247008 0.93659276 0.34639293
v -0.36920166 0.92944014 0.35904014
v -0.3773303 0.93659276 0.3463929
v 0.36501402 0.92944014 0.35904014
v 0.36501402 0.7261486 0.35904014
v 0.37247008 0.7189959 0.34639293
v 0.37247008 0.93659276 0.34639293
v -0.36920166 0.7261486 0.35904014
v -0.3773303 0.93659276 0.3463929
v -0.3773303 0.7189959 0.34639293
v -0.3773303 0.7189959 0.34639293
v 0.37247008 0.7189959 0.34639293
v -0.4076654 0.9683656 -0.36931288
v -0.45452696 0.9683656 -0.41188246
v -0.45452696 0.9683656 0.3751928
v -0.4076654 0.9683656 0.33262312
v 0.45452696 0.9683656 0.3751928
v 0.4076654 0.9683656 0.33262312
v 0.45452696 0.96836567 -0.41188246
v 0.4076654 0.96836567 -0.36931288
v 0.4076654 0.96836567 -0.36931288
v 0.45452696 0.96836567 -0.41188246
v -0.45452696 0.9683656 -0.41188246
v -0.4076654 0.9683656 -0.36931288
v -0.45452696 0.9683656 -0.41188246
v -0.45452696 1.0069659 -0.41188246
v -0.45452696 1.0069659 0.3751928
v -0.45452696 0.9683656 0.3751928
v -0.45452696 0.9683656 0.3751928
v -0.45452696 1.0069659 0.3751928
v 0.45452696 1.0069659 0.3751928
v 0.45452696 0.9683656 0.3751928
v 0.45452696 0.9683656 0.3751928
v 0.45452696 1.0069659 0.3751928
v 0.45452696 1.0069659 -0.41188246
v 0.45452696 0.96836567 -0.41188246
v 0.45452696 0.96836567 -0.41188246
v 0.45452696 1.0069659 -0.41188246
v -0.45452696 1.0069659 -0.41188246
v -0.45452696 0.9683656 -0.41188246
v -0.45452696 1.0069659 -0.41188246
v -0.42728028 1.0187424 0.35160208
v -0.45452696 1.0069659 0.3751928
v -0.42728028 1.0187423 -0.38829184
v 0.42728028 1.0187424 0.35160208
v -0.45452696 1.0069659 0.3751928
v 0.45452696 1.0069659 0.3751928
v 0.42728028 1.0187424 -0.38829184
v 0.45452696 1.0069659 0.3751928
v 0.45452696 1.0069659 -0.41188246
v 0.45452696 1.0069659 -0.41188246
v -0.45452696 1.0069659 -0.41188246
v 0.37247008 0.12766922 0.33262312
v 0.4076654 0.9683656 0.33262312
v 0.4076654 0 0.33262312
v 0.22019531 0 0.33262312
v 0.17741027 0.030599974 0.33262312
v 0.13322693 0.050146177 0.33262312
v 0.08226929 0.06047043 0.33262312
v -0.10423767 0.06047043 0.33262312
v -0.3773303 0.12766907 0.33262312
v -0.15213683 0.05209915 0.33262312
v -0.19685851 0.032578733 0.33262312
v -0.23588134 0 0.33262312
v -0.4076654 -1.5258789E-07 0.33262312
v -0.3773303 0.6818077 0.33262312
v -0.4076654 0.9683656 0.33262312
v 0.37247008 0.6818077 0.33262312
v -0.3773303 0.7189959 0.33262312
v 0.37247008 0.7189959 0.33262312
v -0.3773303 0.93659276 0.33262312
v 0.37247008 0.93659276 0.33262312
v -0.14902537 0.8150396 0.41015995
v -0.16164978 0.816796 0.36624023
v -0.15075484 0.81680703 0.41034147
v -0.15984054 0.8150396 0.36624023
v -0.1374077 0.8150396 0.36624023
v -0.12760505 0.8150396 0.4043488
v -0.12395024 0.8150396 0.40717345
v 0.11707014 0.8150396 0.40717345
v 0.14198558 0.8150396 0.41015995
v 0.12071478 0.8150396 0.4043488
v 0.13051744 0.8150396 0.36624023
v 0.15280075 0.8150396 0.36624023
v -0.15075484 0.8433923 0.41034147
v -0.16164978 0.8434033 0.36624023
v -0.15984054 0.84515977 0.36624023
v -0.14902537 0.84515977 0.41015995
v -0.1374077 0.84515977 0.36624023
v -0.12760505 0.84515977 0.4043488
v -0.1259355 0.84339195 0.40391934
v -0.13559447 0.8434033 0.36624023
v -0.1239604 0.84515977 0.40717345
v -0.1239604 0.84339195 0.40545195
v -0.1259355 0.84339195 0.40391934
v 0.11705998 0.84338063 0.40545195
v 0.11705998 0.84515977 0.40717345
v 0.119045235 0.84339195 0.40391928
v 0.1207148 0.84515977 0.40434873
v 0.14198558 0.84515965 0.41015995
v 0.13051744 0.84515977 0.36624023
v 0.15280075 0.84515977 0.36624023
v 0.15460998 0.8434033 0.36624023
v 0.14371504 0.84339225 0.41034147
v 0.14371504 0.81680703 0.41034147
v 0.15280075 0.8150396 0.36624023
v 0.14198558 0.8150396 0.41015995
v 0.15460998 0.816796 0.36624023
v 0.14371504 0.84339225 0.41034147
v 0.15460998 0.8434033 0.36624023
v 0.14173713 0.81681806 0.41188246
v 0.14198558 0.8150396 0.41015995
v 0.14174703 0.84339225 0.41188246
v 0.14198558 0.84515965 0.41015995
v -0.14902537 0.84515977 0.41015995
v -0.14878681 0.81680703 0.41188246
v -0.14902537 0.8150396 0.41015995
v -0.15075484 0.81680703 0.41034147
v -0.14877693 0.8433812 0.41188246
v -0.15075484 0.8433923 0.41034147
v -0.16164978 0.8434033 0.36624023
v -0.16164978 0.816796 0.36624023
v -0.1259355 0.84339195 0.40391934
v -0.13559447 0.8434033 0.36624023
v -0.13559447 0.816796 0.36624023
v -0.1259355 0.8168074 0.40391934
v -0.1374077 0.8150396 0.36624023
v -0.12760505 0.8150396 0.4043488
v -0.12395024 0.8150396 0.40717345
v -0.12395024 0.81681865 0.40545195
v -0.1239604 0.84339195 0.40545195
v 0.11705998 0.84338063 0.40545195
v 0.11707014 0.8168074 0.40545195
v 0.11707014 0.8150396 0.40717345
v 0.12071478 0.8150396 0.4043488
v 0.119045235 0.8168074 0.40391934
v 0.119045235 0.84339195 0.40391928
v 0.13051744 0.8150396 0.36624023
v 0.12870422 0.8434033 0.36624023
v 0.12870422 0.816796 0.36624023
v 0.119045235 0.84339195 0.40391928
v 0.12870422 0.8434033 0.36624023
v 0.13051744 0.84515977 0.36624023
v 0.1207148 0.84515977 0.40434873
vt 1.6783398 0.5719935
vt 1.6783396 0.28657365
vt 1.4714482 0.28657383
vt 1.4714484 0.57199365
vt 1.024243 0.28657377
vt 1.0242432 0.57199365
vt 1.2311345 0.57199365
vt 1.2311345 0.2865738
vt 1.2726856 1.3195767
vt 1.2726858 1.5264682
vt 1.323318 1.5264682
vt 1.323318 1.3195767
vt 1.0242432 0.57199365
vt 1.024243 0.28657377
vt 0.9736105 0.28657395
vt 0.9621087 0.29617634
vt 0.9489273 0.30192992
vt 0.93480927 0.30439728
vt 0.7839295 0.5719941
vt 0.8798375 0.30439737
vt 0.86481816 0.30135447
vt 0.85179526 0.29559332
vt 0.83918464 0.28657418
vt 0.783929 0.2865742
vt 1.323318 1.5264682
vt 1.3348198 1.3195767
vt 1.323318 1.3195767
vt 1.3348198 1.5264682
vt 1.3480012 1.3195767
vt 1.3480012 1.5264682
vt 1.3621192 1.3195766
vt 1.3621192 1.5264682
vt 1.4170909 1.3195767
vt 1.4170909 1.5264683
vt 1.4321104 1.3195766
vt 1.4321105 1.5264682
vt 1.4451332 1.3195767
vt 1.4451332 1.5264683
vt 1.4577439 1.3195766
vt 1.4577439 1.5264682
vt 1.4577439 1.5264682
vt 1.5129995 1.5264682
vt 1.5129995 1.3195766
vt 1.4577439 1.3195766
vt 1.4975995 0.6838926
vt 1.2766004 0.6838926
vt 1.2766008 0.8472215
vt 1.4975995 0.8472215
vt 1.6908756 0.68389255
vt 1.4975995 0.6838926
vt 1.4975995 0.8472215
vt 1.6908756 0.8472215
vt 1.0833248 0.84722227
vt 1.2766008 0.8472215
vt 1.2766004 0.6838926
vt 1.0833241 0.68389344
vt 1.2935735 0.873845
vt 1.2935733 1.0671211
vt 1.514572 1.0671214
vt 1.5145724 0.873845
vt 1.4970905 1.2676098
vt 1.4970905 1.0743334
vt 1.2760917 1.0743333
vt 1.2760915 1.2676097
vt 0.72597104 1.0935448
vt 0.7300296 1.0935448
vt 0.7300296 1.0294094
vt 0.72597104 1.0294094
vt 0.95795006 1.0294096
vt 0.95389146 1.0294095
vt 0.95388955 1.093545
vt 0.95794815 1.0935451
vt 0.7313615 1.0237309
vt 0.73136157 1.0277892
vt 0.95236045 1.0277909
vt 0.95236045 1.0237323
vt 0.9523604 1.0992228
vt 0.9523604 1.0951644
vt 0.7313613 1.0951644
vt 0.73136145 1.0992228
vt 0.9523604 1.0951644
vt 0.7337573 1.0914366
vt 0.7313613 1.0951644
vt 0.9501626 1.0914366
vt 0.9501631 1.031518
vt 0.95389146 1.0294095
vt 0.95388955 1.093545
vt 0.7337573 1.0315175
vt 0.7300296 1.0935448
vt 0.7300296 1.0294094
vt 0.73136157 1.0277892
vt 0.95236045 1.0277909
vt 1.8394382 1.1072242
vt 1.8532503 1.1197715
vt 1.8532503 0.887786
vt 1.8394381 0.9003329
vt 1.5853121 0.8877859
vt 1.5991243 0.9003328
vt 1.5853121 1.1197716
vt 1.5991242 1.1072243
vt 1.5991242 1.1072243
vt 1.5853121 1.1197716
vt 1.8532503 1.1197715
vt 1.8394382 1.1072242
vt 1.753962 0.6302453
vt 1.7539619 0.64162266
vt 1.985946 0.64162266
vt 1.9859462 0.6302453
vt 0.98610175 0.63024545
vt 0.98610187 0.64162266
vt 1.2540395 0.64162266
vt 1.2540398 0.63024545
vt 1.2540398 0.63024545
vt 1.2540395 0.64162266
vt 1.4860246 0.64162266
vt 1.4860249 0.6302453
vt 1.4860249 0.6302453
vt 1.4860246 0.64162266
vt 1.7539619 0.64162266
vt 1.753962 0.6302453
vt 0.8610254 1.3794284
vt 0.869056 1.1543958
vt 0.8610254 1.1474426
vt 0.869056 1.3724749
vt 1.1209325 1.1543957
vt 0.8610254 1.1474426
vt 1.1289632 1.1474428
vt 1.1209323 1.372475
vt 1.1289632 1.1474428
vt 1.1289632 1.3794284
vt 1.1289632 1.3794284
vt 0.8610254 1.3794284
vt 1.4610745 0.32420358
vt 1.4714484 0.57199365
vt 1.4714482 0.28657383
vt 1.4161927 0.28657383
vt 1.4035817 0.29559302
vt 1.3905591 0.3013541
vt 1.3755397 0.30439714
vt 1.3205678 0.30439714
vt 1.2400756 0.32420352
vt 1.3064499 0.30192977
vt 1.2932684 0.29617622
vt 1.2817667 0.28657383
vt 1.2311345 0.2865738
vt 1.2400756 0.4875325
vt 1.2311345 0.57199365
vt 1.4610745 0.4875325
vt 1.2400756 0.4984935
vt 1.4610745 0.4984935
vt 1.2400756 0.5626288
vt 1.4610745 0.5626288
vt 0.7632873 0.7633399
vt 0.7507821 0.7703301
vt 0.7637808 0.7671187
vt 0.7507821 0.7697968
vt 0.7507821 0.7631848
vt 0.7609056 0.760572
vt 0.762094 0.7602653
vt 0.762096 0.6871258
vt 0.7632871 0.68407714
vt 0.76090926 0.6868205
vt 0.7507821 0.68421555
vt 0.750782 0.67764765
vt 0.7735669 0.7671187
vt 0.78656554 0.7703301
vt 0.78656554 0.7697968
vt 0.77406055 0.7633451
vt 0.78656554 0.7631848
vt 0.775234 0.7597455
vt 0.7754598 0.7598034
vt 0.78656554 0.7626504
vt 0.77450067 0.7592212
vt 0.7750081 0.7592212
vt 0.7750081 0.7596876
vt 0.775008 0.68818206
vt 0.77450067 0.68818206
vt 0.7750081 0.6877127
vt 0.7756905 0.68750626
vt 0.77406055 0.68407714
vt 0.78656554 0.68421555
vt 0.7865655 0.67764765
vt 0.78656554 0.6771144
vt 0.7735669 0.68032557
vt 0.7647559 0.6799836
vt 0.7642349 0.66710895
vt 0.76423496 0.68005186
vt 0.7647527 0.6669848
vt 0.77259177 0.6799836
vt 0.7725951 0.6669848
vt 0.7647592 0.68090856
vt 0.7632871 0.68407714
vt 0.77259177 0.68090564
vt 0.7731127 0.6808353
vt 0.77406055 0.7633451
vt 0.7647559 0.7665386
vt 0.76423496 0.7666089
vt 0.7647559 0.76746064
vt 0.7725885 0.7665357
vt 0.77259177 0.76746064
vt 0.77259505 0.7804593
vt 0.7647527 0.7804593
vt 0.72713184 0.70482373
vt 0.7271352 0.693718
vt 0.7192929 0.693718
vt 0.7192962 0.70482373
vt 0.71877515 0.693718
vt 0.71877515 0.7050927
vt 0.71877515 0.706428
vt 0.71929955 0.70574486
vt 0.72713184 0.70574194
vt 0.7271285 0.7767811
vt 0.7192962 0.77678406
vt 0.71877515 0.7761002
vt 0.71877515 0.77743316
vt 0.7192962 0.77770215
vt 0.72713184 0.77770215
vt 0.71877515 0.78880787
vt 0.72713524 0.78880787
vt 0.7192929 0.78880787
vt 0.72713184 0.77770215
vt 0.72713524 0.78880787
vt 0.7276529 0.78880787
vt 0.7271626 0.7783579
vn 1 0 0
vn 1 0 0
vn 1 0 0
vn 1 0 0
vn -1 0 0
vn -1 0 0
vn -1 0 0
vn -1 0 0
vn 8.882542E-07 -1 0
vn 8.882542E-07 -1 0
vn 8.882542E-07 -1 0
vn 8.8825414E-07 -1 0
vn -0 0 -1
vn 5.870536E-07 0 -1
vn 4.444895E-07 0 -1
vn 1.1287098E-07 0 -1
vn 4.668328E-07 0 -1
vn -0 0 -1
vn -1.0423423E-07 0 -1
vn -0 0 -1
vn -0 0 -1
vn -4.7152787E-07 0 -1
vn -0 0 -1
vn -0 0 -1
vn 0.6408775 -0.76764315 0
vn 0.5282395 -0.84909546 0
vn 0.6408775 -0.76764315 0
vn 0.5282395 -0.84909546 0
vn 0.28834775 -0.95752573 0
vn 0.28834775 -0.95752573 0
vn 0.035689943 -0.9993629 0
vn 0.03568995 -0.9993629 0
vn -0.04343598 -0.99905616 0
vn -0.043435976 -0.99905616 0
vn -0.29954374 -0.9540826 0
vn -0.29954374 -0.9540826 0
vn -0.49951407 -0.8663058 0
vn -0.49951407 -0.8663058 0
vn -0.581732 -0.81338054 0
vn -0.581732 -0.81338054 0
vn -0 -1 0
vn -0 -1 0
vn -0 -1 0
vn -0 -1 0
vn -0 0 1
vn -0 0 1
vn -0 0 1
vn -0 0 1
vn 1 0 0
vn 1 0 0
vn 1 0 0
vn 1 0 0
vn -1 5.374991E-07 4.6538895E-07
vn -1 5.374991E-07 4.6538895E-07
vn -1 5.374991E-07 4.6538895E-07
vn -1 5.374991E-07 4.6538895E-07
vn -1.0175239E-07 1 0
vn -1.0175239E-07 1 0
vn -1.01752384E-07 1 0
vn -1.01752384E-07 1 0
vn -0 -1 0
vn -0 -1 0
vn -0 -1 0
vn -0 -1 0
vn -1 -1.2731535E-07 0
vn -1 -1.2731536E-07 0
vn -1 -1.2731536E-07 0
vn -1 -1.2731535E-07 0
vn 1 0 0
vn 1 0 0
vn 1 0 0
vn 1 0 0
vn -0 -1 0
vn -0 -1 0
vn -0 -1 0
vn -0 -1 0
vn -0 1 0
vn -0 1 0
vn -0 1 0
vn -0 1 0
vn -0 0.87043977 0.49227506
vn -0.021470297 0.07818228 0.9967078
vn -0 0.87043977 0.49227512
vn 0.021611162 0.07698123 0.99679834
vn 0.02161115 -0.0769811 0.99679834
vn 0.86144197 0 0.5078561
vn 0.86144197 0 0.5078561
vn -0.021470295 -0.07818218 0.9967078
vn -0.84123 0 0.54067755
vn -0.84123 0 0.54067755
vn -0 -0.8704377 0.49227855
vn -0 -0.8704377 0.49227855
vn -0 -1 0
vn -0 -1 0
vn -0 -1 0
vn -0 -1 0
vn -0 -1 -9.146153E-07
vn -0 -1 -9.146152E-07
vn -0 -1 0
vn -0 -1 0
vn -0 -1 9.977639E-07
vn -0 -1 9.977639E-07
vn -0 -1 9.977639E-07
vn -0 -1 9.977639E-07
vn -1 0 0
vn -1 0 0
vn -1 0 0
vn -1 0 0
vn -0 0 1
vn -0 0 1
vn -0 0 1
vn -0 0 1
vn 1 0 0
vn 1 0 0
vn 1 0 0
vn 1 0 0
vn -0 0 -1
vn -0 0 -1
vn -0 0 -1
vn -0 0 -1
vn -0.3967438 0.9179294 0
vn -0.018502377 0.99957305 0.022611598
vn -0.3967438 0.9179294 0
vn -0.018502375 0.99957305 -0.022611624
vn 0.018502342 0.99957305 0.022611605
vn -0 0.8947108 0.44664592
vn -0 0.8947108 0.44664592
vn 0.018502323 0.99957305 -0.022611605
vn 0.3967461 0.9179284 1.3466186E-07
vn 0.39674616 0.9179284 1.3466187E-07
vn -0 0.89471024 -0.44664723
vn -0 0.89471024 -0.44664717
vn 6.963965E-07 0 1
vn -0 0 1
vn 2.8821668E-07 0 1
vn -3.165333E-07 0 1
vn -2.2556218E-07 0 1
vn 3.519858E-07 0 1
vn -0 0 1
vn -0 0 1
vn -8.020158E-07 0 1
vn -0 0 1
vn -0 0 1
vn -0 0 1
vn -2.8400086E-07 0 1
vn -6.5037534E-07 0 1
vn -0 0 1
vn 5.907797E-07 0 1
vn -0 0 1
vn -0 0 1
vn -0 0 1
vn -0 0 1
vn -0.045877565 -0.94863033 0.31304273
vn -0.9693592 -0.054786187 0.23945992
vn -0.9609754 -0.06272765 0.2694279
vn -0.09796533 -0.9948961 0.024175875
vn 0.051860683 -0.9985656 -0.013310156
vn 0.06507671 -0.99769187 -0.019391423
vn 0.001379186 -0.9768332 -0.2139979
vn -0.0013797084 -0.9768256 -0.21403216
vn 0.046113774 -0.9483574 0.31383413
vn -0.06540626 -0.99766856 -0.019475851
vn -0.052185986 -0.9985475 -0.013394128
vn 0.09854475 -0.9948355 0.024317157
vn -0.9609937 0.062747695 0.26935834
vn -0.9693592 0.05478623 0.23945992
vn -0.0979654 0.9948961 0.024175161
vn -0.045930102 0.948769 0.31261453
vn 0.051860742 0.9985656 -0.013309985
vn 0.06507138 0.9976926 -0.019373398
vn 0.956198 0.06373428 -0.28569806
vn 0.96642417 0.06811151 -0.24776019
vn 0.0013795324 0.97683614 -0.21398428
vn 0.006619119 0.06101282 -0.99811506
vn 0.956198 0.06373428 -0.28569806
vn -0.006628652 0.06097508 -0.9981173
vn -0.0013793653 0.97682333 -0.21404254
vn -0.9562142 0.06375201 -0.2856397
vn -0.06541016 0.99766797 -0.019491877
vn 0.04606095 0.9482006 0.31431538
vn -0.052184496 0.9985476 -0.0133924745
vn 0.09854608 0.9948354 0.02431884
vn 0.9693592 0.05478641 0.23946027
vn 0.9609754 0.06272763 0.26942793
vn 0.96099377 -0.0627478 0.26935807
vn 0.09854475 -0.9948355 0.024317157
vn 0.046113774 -0.9483574 0.31383413
vn 0.96935934 -0.054786325 0.23945977
vn 0.9609754 0.06272763 0.26942793
vn 0.9693592 0.05478641 0.23946027
vn 0.005032035 -0.06398476 0.9979381
vn 0.046113774 -0.9483574 0.31383413
vn 0.00502137 0.06388729 0.99794453
vn 0.04606095 0.9482006 0.31431538
vn -0.045930102 0.948769 0.31261453
vn -0.005021393 -0.06388737 0.99794453
vn -0.045877565 -0.94863033 0.31304273
vn -0.9609754 -0.06272765 0.2694279
vn -0.0050319913 0.063984595 0.9979381
vn -0.9609937 0.062747695 0.26935834
vn -0.9693592 0.05478623 0.23945992
vn -0.9693592 -0.054786187 0.23945992
vn 0.956198 0.06373428 -0.28569806
vn 0.96642417 0.06811151 -0.24776019
vn 0.9664239 -0.06811141 -0.24776134
vn 0.9562139 -0.06375197 -0.28564093
vn 0.051860683 -0.9985656 -0.013310156
vn 0.06507671 -0.99769187 -0.019391423
vn 0.001379186 -0.9768332 -0.2139979
vn 0.006628494 -0.060974974 -0.9981173
vn 0.006619119 0.06101282 -0.99811506
vn -0.006628652 0.06097508 -0.9981173
vn -0.0066192327 -0.061012723 -0.99811506
vn -0.0013797084 -0.9768256 -0.21403216
vn -0.06540626 -0.99766856 -0.019475851
vn -0.95619774 -0.06373465 -0.28569862
vn -0.9562142 0.06375201 -0.2856397
vn -0.052185986 -0.9985475 -0.013394128
vn -0.96642417 0.06811173 -0.2477603
vn -0.9664238 -0.068111934 -0.24776132
vn -0.9562142 0.06375201 -0.2856397
vn -0.96642417 0.06811173 -0.2477603
vn -0.052184496 0.9985476 -0.0133924745
vn -0.06541016 0.99766797 -0.019491877
g End_Table_Hotel_Prop_0
f 3/3/3 2/2/2 1/1/1
f 4/4/4 3/3/3 1/1/1
f 7/7/7 6/6/6 5/5/5
f 8/8/8 7/7/7 5/5/5
f 11/11/11 10/10/10 9/9/9
f 12/12/12 11/11/11 9/9/9
f 15/15/15 14/14/14 13/13/13
f 13/13/13 16/16/16 15/15/15
f 13/13/13 17/17/17 16/16/16
f 13/13/13 18/18/18 17/17/17
f 13/13/13 19/19/19 18/18/18
f 19/19/19 20/20/20 18/18/18
f 19/19/19 21/21/21 20/20/20
f 19/19/19 22/22/22 21/21/21
f 19/19/19 23/23/23 22/22/22
f 19/19/19 24/24/24 23/23/23
f 27/27/27 26/26/26 25/25/25
f 26/26/26 28/28/28 25/25/25
f 26/26/26 29/29/29 28/28/28
f 29/29/29 30/30/30 28/28/28
f 29/29/29 31/31/31 30/30/30
f 31/31/31 32/32/32 30/30/30
f 31/31/31 33/33/33 32/32/32
f 33/33/33 34/34/34 32/32/32
f 33/33/33 35/35/35 34/34/34
f 35/35/35 36/36/36 34/34/34
f 35/35/35 37/37/37 36/36/36
f 37/37/37 38/38/38 36/36/36
f 37/37/37 39/39/39 38/38/38
f 39/39/39 40/40/40 38/38/38
f 43/43/43 42/42/42 41/41/41
f 44/44/44 43/43/43 41/41/41
f 47/47/47 46/46/46 45/45/45
f 48/48/48 47/47/47 45/45/45
f 51/51/51 50/50/50 49/49/49
f 52/52/52 51/51/51 49/49/49
f 55/55/55 54/54/54 53/53/53
f 56/56/56 55/55/55 53/53/53
f 59/59/59 58/58/58 57/57/57
f 60/60/60 59/59/59 57/57/57
f 63/63/63 62/62/62 61/61/61
f 64/64/64 63/63/63 61/61/61
f 67/67/67 66/66/66 65/65/65
f 68/68/68 67/67/67 65/65/65
f 71/71/71 70/70/70 69/69/69
f 72/72/72 71/71/71 69/69/69
f 75/75/75 74/74/74 73/73/73
f 76/76/76 75/75/75 73/73/73
f 79/79/79 78/78/78 77/77/77
f 80/80/80 79/79/79 77/77/77
f 83/83/83 82/82/82 81/81/81
f 82/82/82 84/84/84 81/81/81
f 85/85/85 84/84/84 82/82/82
f 84/84/84 85/85/85 86/86/86
f 87/87/87 84/84/84 86/86/86
f 88/88/88 85/85/85 82/82/82
f 88/88/88 82/82/82 89/89/89
f 90/90/90 88/88/88 89/89/89
f 85/85/85 88/88/88 91/91/91
f 92/92/92 85/85/85 91/91/91
f 95/95/95 94/94/94 93/93/93
f 96/96/96 95/95/95 93/93/93
f 97/97/97 95/95/95 96/96/96
f 98/98/98 97/97/97 96/96/96
f 99/99/99 97/97/97 98/98/98
f 100/100/100 99/99/99 98/98/98
f 103/103/103 102/102/102 101/101/101
f 104/104/104 103/103/103 101/101/101
f 107/107/107 106/106/106 105/105/105
f 108/108/108 107/107/107 105/105/105
f 111/111/111 110/110/110 109/109/109
f 112/112/112 111/111/111 109/109/109
f 115/115/115 114/114/114 113/113/113
f 116/116/116 115/115/115 113/113/113
f 119/119/119 118/118/118 117/117/117
f 120/120/120 119/119/119 117/117/117
f 123/123/123 122/122/122 121/121/121
f 122/122/122 124/124/124 121/121/121
f 122/122/122 125/125/125 124/124/124
f 125/125/125 122/122/122 126/126/126
f 127/127/127 125/125/125 126/126/126
f 125/125/125 128/128/128 124/124/124
f 128/128/128 125/125/125 129/129/129
f 130/130/130 128/128/128 129/129/129
f 124/124/124 128/128/128 131/131/131
f 132/132/132 124/124/124 131/131/131
f 135/135/135 134/134/134 133/133/133
f 135/135/135 133/133/133 136/136/136
f 136/136/136 133/133/133 137/137/137
f 137/137/137 133/133/133 138/138/138
f 138/138/138 133/133/133 139/139/139
f 139/139/139 133/133/133 140/140/140
f 133/133/133 141/141/141 140/140/140
f 140/140/140 141/141/141 142/142/142
f 142/142/142 141/141/141 143/143/143
f 143/143/143 141/141/141 144/144/144
f 144/144/144 141/141/141 145/145/145
f 141/141/141 146/146/146 145/145/145
f 146/146/146 147/147/147 145/145/145
f 134/134/134 148/148/148 133/133/133
f 146/146/146 148/148/148 149/149/149
f 146/146/146 149/149/149 147/147/147
f 148/148/148 150/150/150 149/149/149
f 148/148/148 134/134/134 150/150/150
f 149/149/149 151/151/151 147/147/147
f 150/150/150 134/134/134 152/152/152
f 152/152/152 134/134/134 147/147/147
f 151/151/151 152/152/152 147/147/147
g End_Table_Hotel_Prop_1
f 155/155/155 154/154/154 153/153/153
f 154/154/154 156/156/156 153/153/153
f 156/156/156 157/157/157 153/153/153
f 157/157/157 158/158/158 153/153/153
f 158/158/158 159/159/159 153/153/153
f 159/159/159 160/160/160 153/153/153
f 160/160/160 161/161/161 153/153/153
f 160/160/160 162/162/162 161/161/161
f 162/162/162 163/163/163 161/161/161
f 163/163/163 164/164/164 161/161/161
f 167/167/167 166/166/166 165/165/165
f 168/168/168 167/167/167 165/165/165
f 169/169/169 167/167/167 168/168/168
f 170/170/170 169/169/169 168/168/168
f 169/169/169 170/170/170 171/171/171
f 172/172/172 169/169/169 171/171/171
f 173/173/173 170/170/170 168/168/168
f 173/173/173 174/174/174 170/170/170
f 174/174/174 175/175/175 170/170/170
f 174/174/174 173/173/173 176/176/176
f 177/177/177 173/173/173 168/168/168
f 173/173/173 177/177/177 176/176/176
f 176/176/176 177/177/177 178/178/178
f 177/177/177 179/179/179 178/178/178
f 180/180/180 177/177/177 168/168/168
f 179/179/179 177/177/177 180/180/180
f 181/181/181 179/179/179 180/180/180
f 182/182/182 181/181/181 180/180/180
f 183/183/183 182/182/182 180/180/180
f 184/184/184 183/183/183 180/180/180
f 187/187/187 186/186/186 185/185/185
f 186/186/186 188/188/188 185/185/185
f 185/185/185 188/188/188 189/189/189
f 188/188/188 190/190/190 189/189/189
f 185/185/185 189/189/189 191/191/191
f 191/191/191 192/192/192 185/185/185
f 189/189/189 193/193/193 191/191/191
f 193/193/193 189/189/189 194/194/194
f 193/193/193 194/194/194 195/195/195
f 192/192/192 191/191/191 196/196/196
f 191/191/191 193/193/193 196/196/196
f 197/197/197 192/192/192 196/196/196
f 196/196/196 198/198/198 197/197/197
f 199/199/199 193/193/193 195/195/195
f 193/193/193 199/199/199 196/196/196
f 196/196/196 199/199/199 198/198/198
f 199/199/199 195/195/195 200/200/200
f 199/199/199 200/200/200 198/198/198
f 200/200/200 201/201/201 198/198/198
f 201/201/201 202/202/202 198/198/198
f 205/205/205 204/204/204 203/203/203
f 206/206/206 205/205/205 203/203/203
f 207/207/207 205/205/205 206/206/206
f 208/208/208 207/207/207 206/206/206
f 209/209/209 208/208/208 206/206/206
f 210/210/210 206/206/206 203/203/203
f 210/210/210 209/209/209 206/206/206
f 211/211/211 210/210/210 203/203/203
f 211/211/211 212/212/212 210/210/210
f 209/209/209 210/210/210 213/213/213
f 212/212/212 213/213/213 210/210/210
f 214/214/214 209/209/209 213/213/213
f 214/214/214 213/213/213 215/215/215
f 216/216/216 213/213/213 212/212/212
f 213/213/213 216/216/216 215/215/215
f 217/217/217 216/216/216 212/212/212
f 218/218/218 215/215/215 216/216/216
f 217/217/217 219/219/219 216/216/216
f 220/220/220 218/218/218 216/216/216
f 219/219/219 220/220/220 216/216/216
f 223/223/223 222/222/222 221/221/221
f 224/224/224 223/223/223 221/221/221
