g Picture_Framed_008_Common
v 0.47287086 0.3233449 0
v 0.47287086 0.3233449 0.03890647
v -0.47287086 0.3233449 0.03890647
v -0.47287086 0.3233449 0
v -0.47287086 -0.3233449 0.03890647
v 0.47287086 -0.3233449 0.03890647
v 0.47287086 -0.3233449 0
v -0.47287086 -0.3233449 0
v 0.47287086 -0.3233449 0
v 0.47287086 -0.3233449 0.03890647
v 0.47287086 0.3233449 0.03890647
v 0.47287086 0.3233449 0
v -0.47287086 0.3233449 0.03890647
v -0.47287086 -0.3233449 0.03890647
v -0.47287086 -0.3233449 0
v -0.47287086 0.3233449 0
v -0.45453855 -0.30797088 0.048006065
v 0.47287086 -0.3233449 0.03890647
v -0.47287086 -0.3233449 0.03890647
v 0.45453855 -0.30797088 0.048006065
v -0.43555006 -0.29220566 0.048006065
v 0.43555006 -0.29220566 0.048006065
v -0.41747412 -0.2770478 0.03866321
v 0.41747242 -0.2770478 0.03866321
v 0.47287086 0.3233449 0.03890647
v 0.47287086 -0.3233449 0.03890647
v 0.45453855 -0.30797088 0.048006065
v 0.45453855 0.30797032 0.048006065
v 0.43555006 -0.29220566 0.048006065
v 0.43555006 0.2922054 0.048006065
v 0.41747242 -0.2770478 0.03866321
v 0.41747242 0.27704775 0.03866321
v -0.47287086 0.3233449 0.03890647
v 0.47287086 0.3233449 0.03890647
v 0.45453855 0.30797032 0.048006065
v -0.45453855 0.30797032 0.048006065
v 0.43555006 0.2922054 0.048006065
v -0.43555006 0.2922054 0.048006065
v 0.41747242 0.27704775 0.03866321
v -0.41747412 0.27704775 0.03866321
v -0.45453855 0.30797032 0.048006065
v -0.47287086 -0.3233449 0.03890647
v -0.47287086 0.3233449 0.03890647
v -0.45453855 -0.30797088 0.048006065
v -0.43555006 0.2922054 0.048006065
v -0.43555006 -0.29220566 0.048006065
v -0.41747412 0.27704775 0.03866321
v -0.41747412 -0.2770478 0.03866321
v -0.41747412 -0.2770478 0.022944665
v 0.41747242 -0.2770478 0.022944665
v 0.41747242 -0.2770478 0.03866321
v -0.41747412 -0.2770478 0.03866321
v 0.41747242 0.27704775 0.03866321
v 0.41747242 -0.2770478 0.03866321
v 0.41747242 -0.2770478 0.022944665
v 0.41747242 0.27704775 0.022944665
v -0.41747412 0.27704775 0.03866321
v 0.41747242 0.27704775 0.03866321
v 0.41747242 0.27704775 0.022944665
v -0.41747412 0.27704775 0.022944665
v -0.41747412 0.27704775 0.022944665
v -0.41747412 -0.2770478 0.022944665
v -0.41747412 -0.2770478 0.03866321
v -0.41747412 0.27704775 0.03866321
v -0.35836163 -0.22121753 0.016435005
v -0.35836157 0.22273135 0.016435005
v 0.36244187 0.22273132 0.016435005
v 0.36244187 -0.22121753 0.016435005
v -0.35836163 -0.22121753 0.022944665
v -0.35836163 -0.22121753 0.016435005
v 0.36244187 -0.22121753 0.016435005
v 0.36244187 -0.22121753 0.022944665
v 0.36244187 -0.22121753 0.022944665
v 0.36244187 -0.22121753 0.016435005
v 0.36244187 0.22273132 0.016435005
v 0.36244187 0.22273132 0.022944665
v 0.36244187 0.22273132 0.022944665
v 0.36244187 0.22273132 0.016435005
v -0.35836157 0.22273135 0.016435005
v -0.35836157 0.22273135 0.022944665
v -0.35836157 0.22273135 0.022944665
v -0.35836157 0.22273135 0.016435005
v -0.35836163 -0.22121753 0.016435005
v -0.35836163 -0.22121753 0.022944665
v -0.41747412 -0.2770478 0.022944665
v -0.35836163 -0.22121753 0.022944665
v 0.36244187 -0.22121753 0.022944665
v -0.35836157 0.22273135 0.022944665
v 0.41747242 -0.2770478 0.022944665
v -0.41747412 0.27704775 0.022944665
v 0.41747242 0.27704775 0.022944665
v 0.36244187 0.22273132 0.022944665
vt 2.0065866 0.8733921
vt 1.9823148 0.8465347
vt 1.0513127 0.84653497
vt 1.0270405 0.87339187
vt 1.0513127 0.19574648
vt 1.9823146 0.19574642
vt 2.0065868 0.16889387
vt 1.0270405 0.16889387
vt 2.0065868 0.16889387
vt 1.9823146 0.19574642
vt 1.9823148 0.8465347
vt 2.0065866 0.8733921
vt 1.0513127 0.84653497
vt 1.0513127 0.19574648
vt 1.0270405 0.16889387
vt 1.0270405 0.87339187
vt 1.0711377 0.21289533
vt 1.9823146 0.19574642
vt 1.0513127 0.19574648
vt 1.9624844 0.21289521
vt 1.0897882 0.2282123
vt 1.9438285 0.2282123
vt 1.1088377 0.24483359
vt 1.924772 0.24483353
vt 1.9823148 0.8465347
vt 1.9823146 0.19574642
vt 1.9624844 0.21289521
vt 1.9624846 0.82938313
vt 1.9438285 0.2282123
vt 1.9438283 0.8140652
vt 1.924772 0.24483353
vt 1.9247719 0.7974427
vt 1.0513127 0.84653497
vt 1.9823148 0.8465347
vt 1.9624846 0.82938313
vt 1.0711378 0.8293834
vt 1.9438283 0.8140652
vt 1.0897882 0.8140652
vt 1.9247719 0.7974427
vt 1.1088378 0.7974427
vt 1.0711378 0.8293834
vt 1.0513127 0.19574648
vt 1.0513127 0.84653497
vt 1.0711377 0.21289533
vt 1.0897882 0.8140652
vt 1.0897882 0.2282123
vt 1.1088378 0.7974427
vt 1.1088377 0.24483359
vt 1.1184928 0.2556005
vt 1.9151165 0.25560045
vt 1.924772 0.24483353
vt 1.1088377 0.24483359
vt 1.9247719 0.7974427
vt 1.924772 0.24483353
vt 1.9151165 0.25560045
vt 1.9151165 0.78666854
vt 1.1088378 0.7974427
vt 1.9247719 0.7974427
vt 1.9151165 0.78666854
vt 1.1184931 0.78666854
vt 1.1184931 0.78666854
vt 1.1184928 0.2556005
vt 1.1088377 0.24483359
vt 1.1088378 0.7974427
vt 0.5 0
vt 0.5 0.5
vt 1 0.5
vt 1 0
vt 1.1748922 0.30911058
vt 1.1873677 0.31895477
vt 1.8501363 0.31895465
vt 1.8626119 0.30911046
vt 1.8626119 0.30911046
vt 1.8501363 0.31895465
vt 1.8501363 0.7247653
vt 1.862612 0.73460937
vt 1.862612 0.73460937
vt 1.8501363 0.7247653
vt 1.1873679 0.7247653
vt 1.1748923 0.7346095
vt 1.1748923 0.7346095
vt 1.1873679 0.7247653
vt 1.1873677 0.31895477
vt 1.1748922 0.30911058
vt 1.1184928 0.2556005
vt 1.1748922 0.30911058
vt 1.8626119 0.30911046
vt 1.1748923 0.7346095
vt 1.9151165 0.25560045
vt 1.1184931 0.78666854
vt 1.9151165 0.78666854
vt 1.862612 0.73460937
vn -0 1 0
vn -0 1 0
vn -0 1 0
vn -0 1 0
vn -0 -1 0
vn -0 -1 0
vn -0 -1 0
vn -0 -1 0
vn 1 0 0
vn 1 0 0
vn 1 0 0
vn 1 0 0
vn -1 0 0
vn -1 0 0
vn -1 0 0
vn -1 0 0
vn -0 -0.41759673 0.9086324
vn -0 -0.50935006 0.86055946
vn -0 -0.50935006 0.86055946
vn -0 -0.41759673 0.9086324
vn -0 0.13822709 0.9904006
vn -0 0.13822067 0.99040145
vn -0 0.5247061 0.85128343
vn -0 0.5247062 0.85128343
vn 0.44461057 0 0.89572394
vn 0.44461057 0 0.89572394
vn 0.33624476 0 0.9417746
vn 0.33624464 0 0.9417747
vn -0.13855956 0 0.99035406
vn -0.13856077 0 0.99035394
vn -0.45912614 0 0.88837105
vn -0.45912614 0 0.88837105
vn -0 0.5093359 0.86056787
vn -0 0.5093359 0.86056787
vn -0 0.41758844 0.9086363
vn -0 0.41758844 0.9086363
vn -0 -0.1382218 0.9904013
vn -0 -0.13822821 0.9904004
vn -0 -0.5247127 0.85127944
vn -0 -0.5247126 0.85127944
vn -0.33624452 0 0.9417747
vn -0.44461048 0 0.89572394
vn -0.44461048 0 0.89572394
vn -0.33624464 0 0.9417746
vn 0.1385604 0 0.99035394
vn 0.13855922 0 0.9903542
vn 0.45916045 0 0.88835335
vn 0.4591605 0 0.88835335
vn -0 1 0
vn -0 1 0
vn -0 1 0
vn -0 1 0
vn -1 0 0
vn -1 0 0
vn -1 0 0
vn -1 0 0
vn -0 -1 0
vn -0 -1 0
vn -0 -1 0
vn -0 -1 0
vn 1 0 0
vn 1 0 0
vn 1 0 0
vn 1 0 0
vn -0 0 1
vn -0 0 1
vn -0 0 1
vn -0 0 1
vn -0 1 0
vn -0 1 0
vn -0 1 0
vn -0 1 0
vn -1 0 0
vn -1 0 0
vn -1 0 0
vn -1 0 0
vn -0 -1 0
vn -0 -1 0
vn -0 -1 0
vn -0 -1 0
vn 1 0 0
vn 1 0 0
vn 1 0 0
vn 1 0 0
vn -0 0 1
vn -0 0 1
vn -0 0 1
vn -0 0 1
vn -0 0 1
vn -0 0 1
vn -0 0 1
vn -0 0 1
g Picture_Framed_008_Common_0
f 3/3/3 2/2/2 1/1/1
f 4/4/4 3/3/3 1/1/1
f 7/7/7 6/6/6 5/5/5
f 8/8/8 7/7/7 5/5/5
f 11/11/11 10/10/10 9/9/9
f 12/12/12 11/11/11 9/9/9
f 15/15/15 14/14/14 13/13/13
f 16/16/16 15/15/15 13/13/13
f 19/19/19 18/18/18 17/17/17
f 18/18/18 20/20/20 17/17/17
f 17/17/17 20/20/20 21/21/21
f 20/20/20 22/22/22 21/21/21
f 21/21/21 22/22/22 23/23/23
f 22/22/22 24/24/24 23/23/23
f 27/27/27 26/26/26 25/25/25
f 28/28/28 27/27/27 25/25/25
f 29/29/29 27/27/27 28/28/28
f 30/30/30 29/29/29 28/28/28
f 31/31/31 29/29/29 30/30/30
f 32/32/32 31/31/31 30/30/30
f 35/35/35 34/34/34 33/33/33
f 36/36/36 35/35/35 33/33/33
f 37/37/37 35/35/35 36/36/36
f 38/38/38 37/37/37 36/36/36
f 39/39/39 37/37/37 38/38/38
f 40/40/40 39/39/39 38/38/38
f 43/43/43 42/42/42 41/41/41
f 42/42/42 44/44/44 41/41/41
f 41/41/41 44/44/44 45/45/45
f 44/44/44 46/46/46 45/45/45
f 45/45/45 46/46/46 47/47/47
f 46/46/46 48/48/48 47/47/47
f 51/51/51 50/50/50 49/49/49
f 52/52/52 51/51/51 49/49/49
f 55/55/55 54/54/54 53/53/53
f 56/56/56 55/55/55 53/53/53
f 59/59/59 58/58/58 57/57/57
f 60/60/60 59/59/59 57/57/57
f 63/63/63 62/62/62 61/61/61
f 64/64/64 63/63/63 61/61/61
g Picture_Framed_008_Common_1
f 67/67/67 66/66/66 65/65/65
f 68/68/68 67/67/67 65/65/65
g Picture_Framed_008_Common_2
f 71/71/71 70/70/70 69/69/69
f 72/72/72 71/71/71 69/69/69
f 75/75/75 74/74/74 73/73/73
f 76/76/76 75/75/75 73/73/73
f 79/79/79 78/78/78 77/77/77
f 80/80/80 79/79/79 77/77/77
f 83/83/83 82/82/82 81/81/81
f 84/84/84 83/83/83 81/81/81
f 87/87/87 86/86/86 85/85/85
f 85/85/85 86/86/86 88/88/88
f 89/89/89 87/87/87 85/85/85
f 90/90/90 85/85/85 88/88/88
f 89/89/89 91/91/91 87/87/87
f 90/90/90 88/88/88 92/92/92
f 91/91/91 92/92/92 87/87/87
f 91/91/91 90/90/90 92/92/92
