g Wall_With_Frame_Striped_001_Straight_4M_Common_Struc
v -0 0 4.1568084
v -0 27.624645 4.1568084
v 399.99997 27.624645 4.1568084
v 400 0 4.1568084
v 399.99997 27.624645 0
v 399.99997 27.624645 4.1568084
v -0 27.624645 4.1568084
v -0 27.624645 0
v -0 285.44153 0
v -0 400 0
v 400 400 0
v 400 285.44153 0
v -0 27.624645 0
v 399.99997 27.624645 0
vt 0 0
vt 0 0.067106724
vt 1 0.06710675
vt 1 0
vt 1 0.07738781
vt 1 0.06710675
vt 0 0.067106724
vt 0 0.07738781
vt 0 0.7161653
vt 0 1
vt 1 1
vt 1 0.7161653
vt 0 0.07738781
vt 1 0.07738781
vn -0 0 1
vn -0 0 1
vn -0 0 1
vn -0 0 1
vn -0 1 0
vn -0 1 0
vn -0 1 0
vn -0 1 0
vn -0 0 1
vn -0 0 1
vn -0 0 1
vn -0 0 1
vn -0 0 1
vn -0 0 1
g Wall_With_Frame_Striped_001_Straight_4M_Common_Struc_0
f 3/3/3 2/2/2 1/1/1
f 4/4/4 3/3/3 1/1/1
f 7/7/7 6/6/6 5/5/5
f 8/8/8 7/7/7 5/5/5
g Wall_With_Frame_Striped_001_Straight_4M_Common_Struc_1
f 11/11/11 10/10/10 9/9/9
f 12/12/12 11/11/11 9/9/9
g Wall_With_Frame_Striped_001_Straight_4M_Common_Struc_2
f 12/12/12 9/9/9 13/13/13
f 14/14/14 12/12/12 13/13/13
