g Chaamber_ModularWall_DoorframeWidth_001
v 1.5721582 -2.4970484 -0.071741454
v 1.5721582 -3.222773 -0.07174146
v 1.585835 -3.222773 -0.055104315
v 1.5721582 3.2227728 -0.07174146
v 1.585835 -2.4970484 -0.055104315
v 1.585835 3.2227728 -0.055104315
v 1.5721582 -2.4970484 -0.071741454
v 1.585835 -3.222773 -0.055104315
v 1.585835 -2.4970484 -0.055104315
v -1.5721582 3.2227728 0.07174151
v -1.5721533 -2.4970484 0.07174151
v -1.585835 -2.4970484 0.055104356
v -1.5721582 3.2227728 0.07174151
v -1.585835 -2.4970484 0.055104356
v -1.585835 3.2227728 0.055104356
v -1.5721533 -2.4970484 0.07174151
v -1.585835 -3.222773 0.055104356
v -1.5721582 -3.222773 0.07174151
v 1.5721582 -2.4970484 0.071741484
v 1.5721582 3.2227728 0.071741484
v 1.585835 3.2227728 0.055104356
v -1.585835 -2.4970484 -0.055104315
v -1.585835 -3.222773 -0.032034554
v -1.585835 -3.222773 -0.055104315
v -1.585835 -2.4970484 -0.032034554
v -1.585835 3.2227728 -0.055104315
v -1.585835 3.2227728 -0.032034554
v -1.585835 -2.4970484 0.016747594
v -1.585835 -3.222773 0.055104356
v -1.585835 -3.222773 0.016747594
v -1.585835 -2.4970484 0.055104356
v -1.585835 3.2227728 0.016747594
v -1.585835 3.2227728 0.055104356
v -1.5721582 -3.222773 -0.07174146
v -1.585835 -2.4970484 -0.055104315
v -1.585835 -3.222773 -0.055104315
v -1.5721533 -2.4970484 -0.071741454
v -1.585835 3.2227728 -0.055104315
v -1.5721582 3.2227728 -0.07174146
v 1.585835 -2.4970484 0.055104356
v 1.585835 -3.222773 0.03203459
v 1.585835 -3.222773 0.055104356
v 1.585835 -2.4970484 0.03203459
v 1.585835 3.2227728 0.055104356
v 1.585835 3.2227728 0.03203459
v 1.5721582 3.2227728 -0.07174146
v 1.585835 3.2227728 -0.055104315
v 1.585835 3.2227728 -0.016747553
v 1.5721582 3.2227728 -0.016829023
v 1.5373633 3.2227728 -0.07174146
v 1.585835 3.2227728 0.03203459
v 1.5357324 3.2227728 -0.017046036
v 0.7470312 3.2227728 -0.06947637
v 1.5721582 3.2227728 0.03204641
v 1.585835 3.2227728 0.055104356
v 1.5721582 3.2227728 0.071741484
v 1.5342675 3.2227728 0.032079164
v 1.533081 3.2227728 0.071741484
v 0.7377832 3.2227728 -0.026060574
v 0.72511715 3.2227728 0.033396695
v 0.7172168 3.2227728 0.070482984
v -0.70045406 3.2227728 0.034628846
v -0.70045406 3.2227728 0.067298666
v -1.5373633 3.2227728 0.07174151
v -0.70045406 3.2227728 -0.03462881
v -0.70045406 3.2227728 -0.06729863
v -1.533086 3.2227728 -0.07174146
v -1.5357422 3.2227728 0.017327022
v -1.5342675 3.2227728 -0.032121096
v -1.5721582 3.2227728 -0.07174146
v -1.5721582 3.2227728 -0.032057505
v -1.585835 3.2227728 -0.055104315
v -1.585835 3.2227728 -0.032034554
v -1.5721582 3.2227728 0.016905768
v -1.5721582 3.2227728 0.07174151
v -1.585835 3.2227728 0.016747594
v -1.585835 3.2227728 0.055104356
v 1.585835 -2.4970484 -0.016747553
v 1.585835 -3.222773 -0.055104315
v 1.585835 -3.222773 -0.016747553
v 1.585835 -2.4970484 -0.055104315
v 1.585835 3.2227728 -0.016747553
v 1.585835 3.2227728 -0.055104315
v 1.5721582 -3.222773 0.071741484
v 1.585835 -2.4970484 0.055104356
v 1.585835 -3.222773 0.055104356
v 1.5721582 -2.4970484 0.071741484
v 1.585835 3.2227728 0.055104356
v 0.7470312 -3.222773 -0.069476396
v 1.5373633 -3.222773 -0.07174151
v 1.5373633 -2.4970484 -0.07174149
v 0.7470312 -2.4970484 -0.069476396
v -0.70045406 -3.222773 -0.06729863
v 0.7470312 3.2227728 -0.06947637
v 1.5373633 3.2227728 -0.07174146
v -0.70045406 3.2227728 -0.06729863
v -0.70045406 -2.4970484 -0.06729863
v -1.533086 -3.222773 -0.07174146
v -1.533086 -2.4970484 -0.071741454
v -1.533086 3.2227728 -0.07174146
v -1.5373633 -2.4970484 0.07174151
v -1.5373633 3.2227728 0.07174151
v -0.70045406 3.2227728 0.067298666
v -0.70045406 -2.4970484 0.067298666
v 0.7172168 -2.4970484 0.070482984
v 0.7172168 3.2227728 0.070482984
v 1.533081 -2.4970484 0.071741484
v 1.533081 3.2227728 0.071741484
v -0.70045406 -3.222773 0.067298666
v -1.5373633 -3.222773 0.07174151
v 0.7172168 -3.222773 0.070482984
v 1.533081 -3.222773 0.071741484
v -1.6511816 -2.4970484 -0.019840237
v -1.6511816 -3.222773 0.0045532794
v -1.6511816 -3.222773 -0.019840237
v -1.6511816 -2.4970484 0.0045532794
v -1.6511816 3.2227728 -0.019840237
v -1.6511816 3.2227728 0.0045532794
v -1.585835 -2.4970484 -0.032034554
v -1.6389892 -3.222773 -0.032034554
v -1.585835 -3.222773 -0.032034554
v -1.6389892 -2.4970484 -0.032034554
v -1.585835 3.2227728 -0.032034554
v -1.6389892 3.2227728 -0.032034554
v -1.585835 -3.222773 0.016747594
v -1.6389892 -3.222773 0.016747594
v -1.6389892 -2.4970484 0.016747594
v -1.585835 -2.4970484 0.016747594
v -1.585835 3.2227728 0.016747594
v -1.6389892 3.2227728 0.016747594
v -1.6389892 3.2227728 -0.032034554
v -1.6389892 3.2227728 0.016747594
v -1.6511816 3.2227728 -0.019840237
v -1.6511816 3.2227728 0.0045532794
v -1.6389892 -3.222773 -0.032034554
v -1.6511816 -2.4970484 -0.019840237
v -1.6511816 -3.222773 -0.019840237
v -1.6389892 -2.4970484 -0.032034554
v -1.6511816 3.2227728 -0.019840237
v -1.6389892 3.2227728 -0.032034554
v -1.6511816 -3.222773 0.0045532794
v -1.6389892 -2.4970484 0.016747594
v -1.6389892 -3.222773 0.016747594
v -1.6511816 -2.4970484 0.0045532794
v -1.6389892 3.2227728 0.016747594
v -1.6511816 3.2227728 0.0045532794
v -1.5721582 -3.222773 -0.07174146
v -1.5721533 -2.4970484 -0.071741454
v -1.5721582 3.2227728 -0.07174146
v -1.5721582 -3.222773 0.07174151
v -1.5721533 -2.4970484 0.07174151
v -1.5721582 3.2227728 0.07174151
v 1.6511816 -2.4970484 0.019840278
v 1.6511816 -3.222773 -0.0045532403
v 1.6511816 -3.222773 0.019840278
v 1.6511816 -2.4970484 -0.0045532403
v 1.6511816 3.2227728 0.019840278
v 1.6511816 3.2227728 -0.0045532403
v 1.585835 -2.4970484 0.03203459
v 1.6389892 -3.222773 0.03203459
v 1.585835 -3.222773 0.03203459
v 1.6389892 -2.4970484 0.03203459
v 1.585835 3.2227728 0.03203459
v 1.6389892 3.2227728 0.03203459
v 1.585835 -3.222773 -0.016747553
v 1.6389892 -3.222773 -0.016747553
v 1.6389892 -2.4970484 -0.016747553
v 1.585835 -2.4970484 -0.016747553
v 1.585835 3.2227728 -0.016747553
v 1.6389892 3.2227728 -0.016747553
v 1.6389892 3.2227728 0.03203459
v 1.6389892 3.2227728 -0.016747553
v 1.6511816 3.2227728 0.019840278
v 1.6511816 3.2227728 -0.0045532403
v 1.6389892 -3.222773 0.03203459
v 1.6511816 -2.4970484 0.019840278
v 1.6511816 -3.222773 0.019840278
v 1.6389892 -2.4970484 0.03203459
v 1.6511816 3.2227728 0.019840278
v 1.6389892 3.2227728 0.03203459
v 1.6511816 -3.222773 -0.0045532403
v 1.6389892 -2.4970484 -0.016747553
v 1.6389892 -3.222773 -0.016747553
v 1.6511816 -2.4970484 -0.0045532403
v 1.6389892 3.2227728 -0.016747553
v 1.6511816 3.2227728 -0.0045532403
v 1.5721582 -3.222773 0.071741484
v 1.5721582 -2.4970484 0.071741484
v 1.5721582 3.2227728 0.071741484
v 1.5721582 -3.222773 -0.07174146
v 1.5721582 -2.4970484 -0.071741454
v 1.5721582 3.2227728 -0.07174146
vt 0.930537 0.097218454
vt 0.930537 0.001696758
vt 0.9283471 0.001696758
vt 0.930537 0.85007566
vt 0.9283471 0.097218454
vt 0.9283471 0.85007566
vt 0.930537 0.097218454
vt 0.9283471 0.001696758
vt 0.9283471 0.097218454
vt 0.8627499 0.85007566
vt 0.8627499 0.097218454
vt 0.8605601 0.097218454
vt 0.8627499 0.85007566
vt 0.8605601 0.097218454
vt 0.8605601 0.85007566
vt 0.8627499 0.097218454
vt 0.8605601 0.001696758
vt 0.8627499 0.001696758
vt 0.91133606 0.097218454
vt 0.91133606 0.85007566
vt 0.9135258 0.85007566
vt 0.84573895 0.097218454
vt 0.8487754 0.001696758
vt 0.84573895 0.001696758
vt 0.8487754 0.097218454
vt 0.84573895 0.85007566
vt 0.8487754 0.85007566
vt 0.8555115 0.097218454
vt 0.8605601 0.001696758
vt 0.8555115 0.001696758
vt 0.8605601 0.097218454
vt 0.8555115 0.85007566
vt 0.8605601 0.85007566
vt 0.8435491 0.001696758
vt 0.84573895 0.097218454
vt 0.84573895 0.001696758
vt 0.8435491 0.097218454
vt 0.84573895 0.85007566
vt 0.8435491 0.85007566
vt 0.9135258 0.097218454
vt 0.9165624 0.001696758
vt 0.9135258 0.001696758
vt 0.9165624 0.097218454
vt 0.9135258 0.85007566
vt 0.9165624 0.85007566
vt 0.998008 0.012098279
vt 0.9958187 0.010298082
vt 0.99077004 0.010298082
vt 0.99078053 0.012098279
vt 0.998008 0.016678464
vt 0.9843492 0.010298082
vt 0.99080884 0.016892869
vt 0.9977103 0.120703936
vt 0.9843476 0.012098279
vt 0.98131275 0.010298082
vt 0.9791226 0.012098279
vt 0.9843435 0.01708543
vt 0.9791226 0.017241582
vt 0.9919958 0.12192079
vt 0.9841696 0.1235883
vt 0.9792884 0.12462796
vt 0.9840078 0.3112254
vt 0.97970754 0.3112254
vt 0.9791226 0.42138126
vt 0.99312365 0.3112254
vt 0.9974239 0.3112254
vt 0.998008 0.42081815
vt 0.9862845 0.42116767
vt 0.99279356 0.42097348
vt 0.998008 0.42596143
vt 0.9927846 0.42596143
vt 0.9958187 0.42776164
vt 0.99278224 0.42776164
vt 0.98634034 0.42596143
vt 0.9791226 0.42596143
vt 0.9863614 0.42776164
vt 0.98131275 0.42776164
vt 0.9232986 0.097218454
vt 0.9283471 0.001696758
vt 0.9232986 0.001696758
vt 0.9283471 0.097218454
vt 0.9232986 0.85007566
vt 0.9283471 0.85007566
vt 0.91133606 0.001696758
vt 0.9135258 0.097218454
vt 0.9135258 0.001696758
vt 0.91133606 0.097218454
vt 0.9135258 0.85007566
vt 0.30724955 0.85007566
vt 0.411275 0.85007566
vt 0.411275 0.75455403
vt 0.30724955 0.75455403
vt 0.11672807 0.85007566
vt 0.30724955 0.0016967832
vt 0.411275 0.0016967832
vt 0.11672807 0.0016967832
vt 0.11672807 0.75455403
vt 0.007135335 0.85007566
vt 0.007135335 0.75455403
vt 0.007135335 0.0016967832
vt 0.4274501 0.097218454
vt 0.4274501 0.85007566
vt 0.53760594 0.85007566
vt 0.53760594 0.097218454
vt 0.7242034 0.097218454
vt 0.7242034 0.85007566
vt 0.83158976 0.097218454
vt 0.83158976 0.85007566
vt 0.53760594 0.001696758
vt 0.4274501 0.001696758
vt 0.7242034 0.001696758
vt 0.83158976 0.001696758
vt 0.87107277 0.097218454
vt 0.8742834 0.001696758
vt 0.87107277 0.001696758
vt 0.8742834 0.097218454
vt 0.87107277 0.85007566
vt 0.8742834 0.85007566
vt 0.8904194 0.75455403
vt 0.8834233 0.85007566
vt 0.8904194 0.85007566
vt 0.8834233 0.75455403
vt 0.8904194 0.0016967832
vt 0.8834233 0.0016967832
vt 0.904376 0.001696758
vt 0.8973799 0.001696758
vt 0.8973799 0.097218454
vt 0.904376 0.097218454
vt 0.904376 0.85007566
vt 0.8973799 0.85007566
vt 0.99278224 0.43475774
vt 0.9863614 0.43475774
vt 0.991177 0.43636215
vt 0.98796576 0.43636215
vt 0.8694676 0.001696758
vt 0.87107277 0.097218454
vt 0.87107277 0.001696758
vt 0.8694676 0.097218454
vt 0.87107277 0.85007566
vt 0.8694676 0.85007566
vt 0.8742834 0.001696758
vt 0.87588847 0.097218454
vt 0.87588847 0.001696758
vt 0.8742834 0.097218454
vt 0.87588847 0.85007566
vt 0.8742834 0.85007566
vt 0.001992032 0.85007566
vt 0.001992841 0.75455403
vt 0.001992032 0.0016967832
vt 0.4228699 0.001696758
vt 0.4228707 0.097218454
vt 0.4228699 0.85007566
vt 0.93885976 0.097218454
vt 0.9420705 0.001696758
vt 0.93885976 0.001696758
vt 0.9420705 0.097218454
vt 0.93885976 0.85007566
vt 0.9420705 0.85007566
vt 0.9512102 0.097218454
vt 0.9582063 0.001696758
vt 0.9512102 0.001696758
vt 0.9582063 0.097218454
vt 0.9512102 0.85007566
vt 0.9582063 0.85007566
vt 0.9651668 0.85007566
vt 0.9721629 0.85007566
vt 0.9721629 0.75455403
vt 0.9651668 0.75455403
vt 0.9651668 0.0016967832
vt 0.9721629 0.0016967832
vt 0.9843492 0.0033019923
vt 0.99077004 0.0033019923
vt 0.9859544 0.0016967832
vt 0.9891648 0.0016967832
vt 0.9372547 0.001696758
vt 0.93885976 0.097218454
vt 0.93885976 0.001696758
vt 0.9372547 0.097218454
vt 0.93885976 0.85007566
vt 0.9372547 0.85007566
vt 0.9420705 0.001696758
vt 0.9436756 0.097218454
vt 0.9436756 0.001696758
vt 0.9420705 0.097218454
vt 0.9436756 0.85007566
vt 0.9420705 0.85007566
vt 0.8367331 0.001696758
vt 0.8367331 0.097218454
vt 0.8367331 0.85007566
vt 0.4158552 0.85007566
vt 0.4158552 0.75455403
vt 0.4158552 0.0016967832
vn 0.7724862 0 -0.6350315
vn 0.7724862 0 -0.63503146
vn 0.7724862 0 -0.63503146
vn 0.7724862 0 -0.6350315
vn 0.7724862 0 -0.6350315
vn 0.7724862 0 -0.6350315
vn 0.7724862 0 -0.6350315
vn 0.7724862 0 -0.63503146
vn 0.7724862 0 -0.6350315
vn -0.7724309 -2.972552E-07 0.6350988
vn -0.77243096 0 0.63509876
vn -0.7724309 0 0.6350988
vn -0.7724309 -2.972552E-07 0.6350988
vn -0.7724309 0 0.6350988
vn -0.7724309 -2.972552E-07 0.6350989
vn -0.77243096 0 0.63509876
vn -0.77243084 2.342827E-06 0.635099
vn -0.77243084 2.342827E-06 0.635099
vn 0.7724861 0 0.63503176
vn 0.77248603 0 0.6350318
vn 0.77248603 0 0.6350318
vn -1 0 0
vn -1 0 0
vn -1 0 0
vn -1 0 0
vn -1 0 0
vn -1 0 0
vn -1 0 0
vn -1 0 0
vn -1 0 0
vn -1 0 0
vn -1 0 0
vn -1 0 0
vn -0.7724306 2.019498E-06 -0.63509923
vn -0.7724306 0 -0.6350992
vn -0.7724306 2.0194975E-06 -0.63509923
vn -0.7724306 0 -0.63509923
vn -0.7724306 -2.5623157E-07 -0.6350991
vn -0.7724306 -2.562316E-07 -0.63509923
vn 1 0 0
vn 1 0 0
vn 1 0 0
vn 1 0 0
vn 1 0 0
vn 1 0 0
vn -0 1 0
vn -0 1 0
vn -0 1 0
vn -0 1 0
vn -0 1 -4.7629787E-06
vn -0 1 0
vn -0 1 0
vn -0 1 -2.4165038E-06
vn -0 1 0
vn -0 1 0
vn -0 1 0
vn -0 1 0
vn -0 1 -5.981894E-06
vn -0 1 2.1903473E-07
vn -0 1 -2.3840839E-07
vn -0 1 -2.036483E-06
vn -0 1 0
vn -0 1 0
vn -0 1 0
vn -0 1 0
vn -0 1 0
vn -0 1 0
vn -0 1 0
vn -0 1 0
vn -0 1 0
vn -0 1 0
vn -0 1 0
vn -0 1 0
vn -0 1 0
vn -0 1 0
vn -0 1 0
vn -0 1 0
vn 1 0 0
vn 1 0 0
vn 1 0 0
vn 1 0 0
vn 1 0 0
vn 1 0 0
vn 0.77248615 0 0.6350316
vn 0.7724861 0 0.63503176
vn 0.77248615 0 0.6350316
vn 0.7724861 0 0.63503176
vn 0.77248603 0 0.6350318
vn -0.0019853532 0 -0.9999981
vn -0.002745096 0 -0.9999963
vn -0.0027451038 0 -0.9999963
vn -0.0019853464 0 -0.9999981
vn 0.0009933965 0 -0.9999995
vn -0.0019853457 0 -0.9999981
vn -0.0027451047 0 -0.9999963
vn 0.0009933995 0 -0.9999995
vn 0.0009933992 0 -0.9999995
vn 0.0050966595 0 -0.999987
vn 0.005096659 0 -0.999987
vn 0.005096659 0 -0.999987
vn 0.005096677 0 0.999987
vn 0.0050966786 0 0.999987
vn 0.0005582059 0 0.9999999
vn 0.0005582057 0 0.9999999
vn -0.0019891367 0 0.9999981
vn -0.0019891364 0 0.9999981
vn -0.0014720233 0 0.9999989
vn -0.0014720226 0 0.9999989
vn 0.00055820425 0 0.9999999
vn 0.005096671 0 0.999987
vn -0.0019891374 0 0.9999981
vn -0.0014720282 0 0.9999989
vn -1 0 0
vn -1 0 0
vn -1 0 0
vn -1 0 0
vn -1 0 0
vn -1 0 0
vn -0 0 -1
vn -0 0 -1
vn -0 0 -1
vn -0 0 -1
vn -0 0 -1
vn -0 0 -1
vn -0 0 1
vn -0 0 1
vn -0 0 1
vn -0 0 1
vn -0 0 1
vn -0 0 1
vn -0 1 0
vn -0 1 0
vn -0 1 0
vn -0 1 0
vn -0.70716274 0 -0.70705074
vn -0.7071628 0 -0.70705074
vn -0.70716274 0 -0.70705074
vn -0.7071628 0 -0.70705074
vn -0.70716286 0 -0.7070507
vn -0.70716286 0 -0.7070507
vn -0.70716274 0 0.70705074
vn -0.7071628 0 0.70705074
vn -0.70716274 0 0.70705074
vn -0.7071628 0 0.70705074
vn -0.7071628 0 0.70705074
vn -0.7071628 0 0.70705074
vn -0 0 -1
vn -0 0 -1
vn -0 0 -1
vn -0 0 1
vn -0 0 1
vn -0 0 1
vn 1 0 0
vn 1 0 0
vn 1 0 0
vn 1 0 0
vn 1 0 0
vn 1 0 0
vn -0 0 1
vn -0 0 1
vn -0 0 1
vn -0 0 1
vn -0 0 1
vn -0 0 1
vn -0 0 -1
vn -0 0 -1
vn -0 0 -1
vn -0 0 -1
vn -0 0 -1
vn -0 0 -1
vn -0 1 0
vn -0 1 0
vn -0 1 0
vn -0 1 0
vn 0.70716274 0 0.7070508
vn 0.70716274 0 0.70705074
vn 0.70716274 0 0.7070508
vn 0.70716274 0 0.70705074
vn 0.7071628 0 0.70705074
vn 0.7071628 0 0.70705074
vn 0.70716274 0 -0.7070508
vn 0.70716274 0 -0.7070508
vn 0.70716274 0 -0.7070508
vn 0.70716274 0 -0.7070508
vn 0.70716274 0 -0.70705074
vn 0.70716274 0 -0.70705074
vn -0 0 1
vn -0 0 1
vn -0 0 1
vn 1.2085436E-06 0 -1
vn 7.89228E-07 0 -1
vn 7.360257E-07 0 -1
g Chaamber_ModularWall_DoorframeWidth_001_0
f 3/3/3 2/2/2 1/1/1
f 5/5/5 1/1/1 4/4/4
f 6/6/6 5/5/5 4/4/4
f 9/9/9 8/8/8 7/7/7
f 12/12/12 11/11/11 10/10/10
f 15/15/15 14/14/14 13/13/13
f 14/14/14 17/17/17 16/16/16
f 17/17/17 18/18/18 16/16/16
f 21/21/21 20/20/20 19/19/19
f 24/24/24 23/23/23 22/22/22
f 23/23/23 25/25/25 22/22/22
f 22/22/22 25/25/25 26/26/26
f 25/25/25 27/27/27 26/26/26
f 30/30/30 29/29/29 28/28/28
f 29/29/29 31/31/31 28/28/28
f 28/28/28 31/31/31 32/32/32
f 31/31/31 33/33/33 32/32/32
f 36/36/36 35/35/35 34/34/34
f 35/35/35 37/37/37 34/34/34
f 35/35/35 38/38/38 37/37/37
f 38/38/38 39/39/39 37/37/37
f 42/42/42 41/41/41 40/40/40
f 41/41/41 43/43/43 40/40/40
f 40/40/40 43/43/43 44/44/44
f 43/43/43 45/45/45 44/44/44
f 48/48/48 47/47/47 46/46/46
f 49/49/49 48/48/48 46/46/46
f 49/49/49 46/46/46 50/50/50
f 51/51/51 48/48/48 49/49/49
f 52/52/52 49/49/49 50/50/50
f 52/52/52 50/50/50 53/53/53
f 54/54/54 51/51/51 49/49/49
f 54/54/54 49/49/49 52/52/52
f 55/55/55 51/51/51 54/54/54
f 56/56/56 55/55/55 54/54/54
f 56/56/56 54/54/54 57/57/57
f 57/57/57 54/54/54 52/52/52
f 58/58/58 56/56/56 57/57/57
f 59/59/59 52/52/52 53/53/53
f 57/57/57 52/52/52 59/59/59
f 58/58/58 57/57/57 60/60/60
f 60/60/60 57/57/57 59/59/59
f 61/61/61 58/58/58 60/60/60
f 61/61/61 60/60/60 62/62/62
f 60/60/60 59/59/59 62/62/62
f 63/63/63 61/61/61 62/62/62
f 64/64/64 63/63/63 62/62/62
f 59/59/59 53/53/53 65/65/65
f 59/59/59 65/65/65 62/62/62
f 53/53/53 66/66/66 65/65/65
f 66/66/66 67/67/67 65/65/65
f 68/68/68 64/64/64 62/62/62
f 68/68/68 62/62/62 65/65/65
f 67/67/67 69/69/69 65/65/65
f 69/69/69 68/68/68 65/65/65
f 67/67/67 70/70/70 69/69/69
f 70/70/70 71/71/71 69/69/69
f 69/69/69 71/71/71 68/68/68
f 70/70/70 72/72/72 71/71/71
f 72/72/72 73/73/73 71/71/71
f 68/68/68 74/74/74 64/64/64
f 71/71/71 74/74/74 68/68/68
f 71/71/71 73/73/73 74/74/74
f 74/74/74 75/75/75 64/64/64
f 73/73/73 76/76/76 74/74/74
f 74/74/74 76/76/76 75/75/75
f 76/76/76 77/77/77 75/75/75
f 80/80/80 79/79/79 78/78/78
f 79/79/79 81/81/81 78/78/78
f 78/78/78 81/81/81 82/82/82
f 81/81/81 83/83/83 82/82/82
f 86/86/86 85/85/85 84/84/84
f 85/85/85 87/87/87 84/84/84
f 85/85/85 88/88/88 87/87/87
f 91/91/91 90/90/90 89/89/89
f 92/92/92 91/91/91 89/89/89
f 92/92/92 89/89/89 93/93/93
f 92/92/92 94/94/94 91/91/91
f 94/94/94 95/95/95 91/91/91
f 96/96/96 94/94/94 92/92/92
f 97/97/97 92/92/92 93/93/93
f 97/97/97 96/96/96 92/92/92
f 93/93/93 98/98/98 97/97/97
f 98/98/98 99/99/99 97/97/97
f 97/97/97 99/99/99 96/96/96
f 99/99/99 100/100/100 96/96/96
f 103/103/103 102/102/102 101/101/101
f 104/104/104 103/103/103 101/101/101
f 104/104/104 105/105/105 103/103/103
f 105/105/105 106/106/106 103/103/103
f 105/105/105 107/107/107 106/106/106
f 107/107/107 108/108/108 106/106/106
g Chaamber_ModularWall_DoorframeWidth_001_1
f 101/101/101 110/110/110 109/109/109
f 104/104/104 101/101/101 109/109/109
f 109/109/109 111/111/111 104/104/104
f 111/111/111 105/105/105 104/104/104
f 105/105/105 111/111/111 107/107/107
f 111/111/111 112/112/112 107/107/107
g Chaamber_ModularWall_DoorframeWidth_001_2
f 115/115/115 114/114/114 113/113/113
f 114/114/114 116/116/116 113/113/113
f 113/113/113 116/116/116 117/117/117
f 116/116/116 118/118/118 117/117/117
f 121/121/121 120/120/120 119/119/119
f 120/120/120 122/122/122 119/119/119
f 119/119/119 122/122/122 123/123/123
f 122/122/122 124/124/124 123/123/123
f 127/127/127 126/126/126 125/125/125
f 128/128/128 127/127/127 125/125/125
f 128/128/128 129/129/129 127/127/127
f 129/129/129 130/130/130 127/127/127
f 73/73/73 131/131/131 76/76/76
f 131/131/131 132/132/132 76/76/76
f 131/131/131 133/133/133 132/132/132
f 133/133/133 134/134/134 132/132/132
f 137/137/137 136/136/136 135/135/135
f 136/136/136 138/138/138 135/135/135
f 136/136/136 139/139/139 138/138/138
f 139/139/139 140/140/140 138/138/138
f 143/143/143 142/142/142 141/141/141
f 142/142/142 144/144/144 141/141/141
f 142/142/142 145/145/145 144/144/144
f 145/145/145 146/146/146 144/144/144
f 98/98/98 147/147/147 99/99/99
f 147/147/147 148/148/148 99/99/99
f 99/99/99 148/148/148 100/100/100
f 148/148/148 149/149/149 100/100/100
f 151/151/151 150/150/150 110/110/110
f 101/101/101 151/151/151 110/110/110
f 101/101/101 102/102/102 151/151/151
f 102/102/102 152/152/152 151/151/151
f 155/155/155 154/154/154 153/153/153
f 154/154/154 156/156/156 153/153/153
f 153/153/153 156/156/156 157/157/157
f 156/156/156 158/158/158 157/157/157
f 161/161/161 160/160/160 159/159/159
f 160/160/160 162/162/162 159/159/159
f 159/159/159 162/162/162 163/163/163
f 162/162/162 164/164/164 163/163/163
f 167/167/167 166/166/166 165/165/165
f 168/168/168 167/167/167 165/165/165
f 168/168/168 169/169/169 167/167/167
f 169/169/169 170/170/170 167/167/167
f 51/51/51 171/171/171 48/48/48
f 171/171/171 172/172/172 48/48/48
f 171/171/171 173/173/173 172/172/172
f 173/173/173 174/174/174 172/172/172
f 177/177/177 176/176/176 175/175/175
f 176/176/176 178/178/178 175/175/175
f 176/176/176 179/179/179 178/178/178
f 179/179/179 180/180/180 178/178/178
f 183/183/183 182/182/182 181/181/181
f 182/182/182 184/184/184 181/181/181
f 182/182/182 185/185/185 184/184/184
f 185/185/185 186/186/186 184/184/184
f 112/112/112 187/187/187 107/107/107
f 187/187/187 188/188/188 107/107/107
f 107/107/107 188/188/188 108/108/108
f 188/188/188 189/189/189 108/108/108
f 191/191/191 190/190/190 90/90/90
f 91/91/91 191/191/191 90/90/90
f 91/91/91 95/95/95 191/191/191
f 95/95/95 192/192/192 191/191/191
